<?xml version="1.0" encoding="UTF-8" standalone="no"?>
<!-- Created with Inkscape (http://www.inkscape.org/) -->

<svg
   width="85.599998mm"
   height="53.98mm"
   viewBox="0 0 323.52756 204.01889"
   version="1.1"
   id="svg5"
   inkscape:version="1.1.1 (3bf5ae0d25, 2021-09-20)"
   sodipodi:docname="logo.svg.2021_12_07_22_48_58.0.svg"
   xmlns:inkscape="http://www.inkscape.org/namespaces/inkscape"
   xmlns:sodipodi="http://sodipodi.sourceforge.net/DTD/sodipodi-0.dtd"
   xmlns="http://www.w3.org/2000/svg"
   xmlns:svg="http://www.w3.org/2000/svg">
  <sodipodi:namedview
     id="namedview7"
     pagecolor="#505050"
     bordercolor="#ffffff"
     borderopacity="1"
     inkscape:pageshadow="0"
     inkscape:pageopacity="0"
     inkscape:pagecheckerboard="1"
     inkscape:document-units="mm"
     showgrid="false"
     inkscape:zoom="4.0000002"
     inkscape:cx="197.87499"
     inkscape:cy="199.87499"
     inkscape:window-width="1920"
     inkscape:window-height="1017"
     inkscape:window-x="0"
     inkscape:window-y="32"
     inkscape:window-maximized="1"
     inkscape:current-layer="layer1" />
  <defs
     id="defs2">
    <inkscape:path-effect
       effect="copy_rotate"
       starting_point="94.79422,-24.564818"
       origin="88.298915,-30.995917"
       id="path-effect53146"
       is_visible="true"
       lpeversion="1"
       method="normal"
       num_copies="8"
       starting_angle="-44.715411"
       rotation_angle="45"
       gap="-0.01"
       copies_to_360="true"
       mirror_copies="false"
       split_items="false" />
  </defs>
  <g
     inkscape:label="Réteg 1"
     inkscape:groupmode="layer"
     id="layer1">
    <path
       d="m 73.581126,25.003419 q 0.48,0 1.12,0.08 0.68,0.08 1.16,0.32 0.52,0.24 0.52,0.72 0,0.28 -0.24,0.56 -0.2,0.24 -0.52,0.24 -0.4,0 -0.96,-0.24 -0.56,-0.24 -1.24,-0.24 -0.8,0 -1.44,0.36 -0.6,0.36 -0.96,1.12 -0.32,0.72 -0.32,1.88 v 23.8 q 0,0.32 -0.24,0.56 -0.24,0.24 -0.56,0.24 -0.36,0 -0.6,-0.24 -0.2,-0.24 -0.2,-0.56 v -23.8 q 0,-2.48 1.32,-3.64 1.32,-1.16 3.16,-1.16 z m 1.84,9.68 q 0.32,0 0.52,0.24 0.24,0.2 0.24,0.52 0,0.32 -0.24,0.56 -0.2,0.2 -0.52,0.2 h -9.52 q -0.28,0 -0.52,-0.24 -0.24,-0.24 -0.24,-0.52 0,-0.36 0.24,-0.56 0.24,-0.2 0.52,-0.2 z"
       id="path33926"
       style="font-weight:300;font-size:40px;line-height:1.25;font-family:Quicksand;-inkscape-font-specification:'Quicksand, Light';fill:#242424" />
    <path
       d="m 88.101075,54.803419 q -3,0 -5.32,-1.28 -2.28,-1.28 -3.6,-3.6 -1.32,-2.36 -1.32,-5.52 0,-3.36 1.28,-5.72 1.32,-2.36 3.36,-3.6 2.08,-1.28 4.4,-1.28 1.68,0 3.28,0.56 1.6,0.52 2.84,1.68 1.28,1.12 2.04,2.84 0.8,1.68 0.88,4.04 0,0.32 -0.24,0.6 -0.24,0.24 -0.56,0.24 h -16.32 l -0.24,-1.52 h 16.12 l -0.4,0.36 v -0.72 q -0.2,-2.12 -1.36,-3.56 -1.12,-1.44 -2.72,-2.16 -1.6,-0.76 -3.32,-0.76 -1.2,0 -2.52,0.56 -1.32,0.52 -2.44,1.64 -1.12,1.08 -1.84,2.76 -0.68,1.68 -0.68,3.92 0,2.44 0.96,4.48 1,2.04 2.92,3.28 1.96,1.24 4.8,1.24 1.36,0 2.56,-0.44 1.2,-0.48 2.16,-1.24 0.96,-0.76 1.56,-1.64 0.32,-0.36 0.68,-0.36 0.28,0 0.48,0.24 0.2,0.2 0.2,0.48 0,0.28 -0.16,0.48 -1.24,1.6 -3.2,2.8 -1.92,1.2 -4.28,1.2 z m -1.64,-22.24 q -0.2,0 -0.32,-0.16 -0.12,-0.16 -0.12,-0.32 0,-0.2 0.2,-0.52 l 2.48,-3.72 q 0.12,-0.2 0.36,-0.4 0.28,-0.24 0.68,-0.24 0.44,0 0.72,0.24 0.32,0.24 0.32,0.76 0,0.24 -0.08,0.4 -0.08,0.12 -0.2,0.28 l -3,3.08 q -0.2,0.2 -0.48,0.4 -0.24,0.2 -0.56,0.2 z"
       id="path33928"
       style="font-weight:300;font-size:40px;line-height:1.25;font-family:Quicksand;-inkscape-font-specification:'Quicksand, Light';fill:#242424" />
    <path
       d="m 103.14106,53.603419 q 0,0.32 -0.24,0.56 -0.24,0.24 -0.56,0.24 -0.36,0 -0.6,-0.24 -0.2,-0.24 -0.2,-0.56 v -28 q 0,-0.32 0.24,-0.56 0.24,-0.24 0.56,-0.24 0.36,0 0.56,0.24 0.24,0.24 0.24,0.56 z"
       id="path33930"
       style="font-weight:300;font-size:40px;line-height:1.25;font-family:Quicksand;-inkscape-font-specification:'Quicksand, Light';fill:#242424" />
    <path
       d="m 111.58105,53.603419 q 0,0.32 -0.24,0.56 -0.24,0.24 -0.56,0.24 -0.36,0 -0.6,-0.24 -0.2,-0.24 -0.2,-0.56 v -19 q 0,-0.32 0.24,-0.56 0.24,-0.24 0.56,-0.24 0.36,0 0.56,0.24 0.24,0.24 0.24,0.56 z m -0.8,-22.52 q -0.64,0 -1.04,-0.36 -0.36,-0.36 -0.36,-0.92 v -0.32 q 0,-0.56 0.4,-0.92 0.4,-0.36 1.04,-0.36 0.56,0 0.92,0.36 0.4,0.36 0.4,0.92 v 0.32 q 0,0.56 -0.4,0.92 -0.36,0.36 -0.96,0.36 z"
       id="path33932"
       style="font-weight:300;font-size:40px;line-height:1.25;font-family:Quicksand;-inkscape-font-specification:'Quicksand, Light';fill:#242424" />
    <path
       d="m 117.34102,34.003419 q 0.4,0 0.64,0.36 l 14.44,18.92 q 0.16,0.2 0.16,0.48 0,0.32 -0.24,0.56 -0.2,0.24 -0.52,0.24 -0.36,0 -0.68,-0.36 l -14.48,-18.88 q -0.16,-0.2 -0.16,-0.48 0,-0.36 0.24,-0.6 0.28,-0.24 0.6,-0.24 z m 0,20.56 q -0.28,0 -0.52,-0.16 -0.24,-0.2 -0.24,-0.6 0,-0.28 0.16,-0.48 l 7,-9.08 0.96,1.24 -6.72,8.76 q -0.24,0.32 -0.64,0.32 z m 14.48,-20.56 q 0.4,0 0.56,0.2 0.2,0.2 0.2,0.48 0,0.12 -0.08,0.28 -0.04,0.12 -0.12,0.24 l -7,9.36 -0.84,-1.4 6.6,-8.8 q 0.32,-0.36 0.68,-0.36 z"
       id="path33934"
       style="font-weight:300;font-size:40px;line-height:1.25;font-family:Quicksand;-inkscape-font-specification:'Quicksand, Light';fill:#242424" />
    <path
       d="m 182.99167,54.403419 q -1.12,0 -1.84,-0.68 -0.68,-0.72 -0.68,-1.76 v -23.12 q 0,-1.04 0.68,-1.72 0.72,-0.72 1.76,-0.72 h 13 q 1.04,0 1.72,0.68 0.72,0.64 0.72,1.68 0,0.88 -0.72,1.56 -0.68,0.68 -1.72,0.68 h -10.8 l 0.36,-0.48 v 8.04 l -0.28,-0.52 h 8.92 q 1.04,0 1.72,0.68 0.72,0.64 0.72,1.68 0,0.88 -0.72,1.56 -0.68,0.68 -1.72,0.68 h -9 l 0.36,-0.36 v 9.68 q 0,1.04 -0.76,1.76 -0.72,0.68 -1.72,0.68 z"
       style="font-weight:normal;font-size:40px;line-height:1.25;font-family:Quicksand;-inkscape-font-specification:'Quicksand, @wght=700';font-variation-settings:'wght' 700;fill:#242424"
       id="path33936" />
    <path
       d="m 222.71155,43.723419 q 0,3.28 -1.48,5.8 -1.44,2.48 -3.92,3.88 -2.44,1.4 -5.48,1.4 -3.04,0 -5.52,-1.4 -2.44,-1.4 -3.92,-3.88 -1.44,-2.52 -1.44,-5.8 0,-3.28 1.44,-5.76 1.48,-2.52 3.92,-3.92 2.48,-1.44 5.52,-1.44 3.04,0 5.48,1.44 2.48,1.4 3.92,3.92 1.48,2.48 1.48,5.76 z m -4.8,0 q 0,-2.04 -0.84,-3.52 -0.8,-1.52 -2.2,-2.36 -1.36,-0.84 -3.04,-0.84 -1.68,0 -3.08,0.84 -1.36,0.84 -2.2,2.36 -0.8,1.48 -0.8,3.52 0,2 0.8,3.52 0.84,1.48 2.2,2.32 1.4,0.84 3.08,0.84 1.68,0 3.04,-0.84 1.4,-0.84 2.2,-2.32 0.84,-1.52 0.84,-3.52 z"
       style="font-weight:normal;font-size:40px;line-height:1.25;font-family:Quicksand;-inkscape-font-specification:'Quicksand, @wght=700';font-variation-settings:'wght' 700;fill:#242424"
       id="path33938" />
    <path
       d="m 227.15149,33.403419 h 9.48 q 0.96,0 1.6,0.64 0.64,0.64 0.64,1.6 0,0.92 -0.64,1.56 -0.64,0.6 -1.6,0.6 h -9.48 q -0.96,0 -1.6,-0.64 -0.64,-0.64 -0.64,-1.6 0,-0.92 0.64,-1.52 0.64,-0.64 1.6,-0.64 z m 4.28,-5 q 1.04,0 1.68,0.72 0.68,0.68 0.68,1.72 v 17.8 q 0,0.56 0.2,0.92 0.24,0.36 0.6,0.52 0.4,0.16 0.84,0.16 0.48,0 0.88,-0.16 0.4,-0.2 0.92,-0.2 0.56,0 1,0.52 0.48,0.52 0.48,1.44 0,1.12 -1.24,1.84 -1.2,0.72 -2.6,0.72 -0.84,0 -1.88,-0.12 -1,-0.16 -1.92,-0.68 -0.88,-0.56 -1.48,-1.68 -0.6,-1.12 -0.6,-3.08 v -18 q 0,-1.04 0.68,-1.72 0.72,-0.72 1.76,-0.72 z"
       style="font-weight:normal;font-size:40px;line-height:1.25;font-family:Quicksand;-inkscape-font-specification:'Quicksand, @wght=700';font-variation-settings:'wght' 700;fill:#242424"
       id="path33940" />
    <path
       d="m 304.76251,11.110142 c 0,2.186667 -0.49333,4.12 -1.48,5.8 -0.96,1.653333 -2.26667,2.946667 -3.92,3.88 -1.62667,0.933333 -3.45333,1.4 -5.48,1.4 -2.02667,0 -3.86667,-0.466667 -5.52,-1.4 -1.62667,-0.933333 -2.93333,-2.226667 -3.92,-3.88 -0.96,-1.68 -1.44,-3.613333 -1.44,-5.8 0,-2.1866666 0.48,-4.1066666 1.44,-5.7599996 0.98667,-1.68 2.29333,-2.986667 3.92,-3.92 1.65333,-0.95999996 3.49333,-1.43999996 5.52,-1.43999996 2.02667,0 3.85333,0.48 5.48,1.43999996 1.65333,0.933333 2.96,2.24 3.92,3.92 0.98667,1.653333 1.48,3.573333 1.48,5.7599996 z m -4.8,0 c 0,-1.3599996 -0.28,-2.5333326 -0.84,-3.5199996 -0.53333,-1.013333 -1.26667,-1.8 -2.2,-2.36 -0.90667,-0.56 -1.92,-0.84 -3.04,-0.84 -1.12,0 -2.14667,0.28 -3.08,0.84 -0.90667,0.56 -1.64,1.346667 -2.2,2.36 -0.53333,0.986667 -0.8,2.16 -0.8,3.5199996 0,1.333333 0.26667,2.506667 0.8,3.52 0.56,0.986667 1.29333,1.76 2.2,2.32 0.93333,0.56 1.96,0.84 3.08,0.84 1.12,0 2.13333,-0.28 3.04,-0.84 0.93333,-0.56 1.66667,-1.333333 2.2,-2.32 0.56,-1.013333 0.84,-2.186667 0.84,-3.52 z"
       style="font-weight:normal;font-size:40px;line-height:1.25;font-family:Quicksand;-inkscape-font-specification:'Quicksand, @wght=700';font-variation-settings:'wght' 700;fill:#242424"
       id="path33942"
       sodipodi:nodetypes="sccsccsccsccssccsccsccsccs" />
    <text
       xml:space="preserve"
       style="font-style:normal;font-variant:normal;font-weight:normal;font-stretch:normal;font-size:40px;line-height:1.25;font-family:Viga;-inkscape-font-specification:'Viga, Normal';font-variant-ligatures:normal;font-variant-caps:normal;font-variant-numeric:normal;font-variant-east-asian:normal;opacity:1;fill:#000000;fill-opacity:1;stroke:none"
       x="53.365166"
       y="112.45763"
       id="text951"><tspan
         sodipodi:role="line"
         id="tspan949"
         x="53.365166"
         y="112.45763"><tspan
           style="font-style:normal;font-variant:normal;font-weight:300;font-stretch:normal;font-size:40px;font-family:Quicksand;-inkscape-font-specification:'Quicksand, Light';font-variant-ligatures:normal;font-variant-caps:normal;font-variant-numeric:normal;font-variant-east-asian:normal;fill:#e3cb13;fill-opacity:1"
           id="tspan12977">0.5X</tspan><tspan
           style="font-style:normal;font-variant:normal;font-weight:normal;font-stretch:normal;font-size:40px;font-family:Quicksand;-inkscape-font-specification:'Quicksand, @wght=700';font-variant-ligatures:normal;font-variant-caps:normal;font-variant-numeric:normal;font-variant-east-asian:normal;font-variation-settings:'wght' 700;fill:#242424;fill-opacity:1"
           id="tspan16299">Fotó</tspan></tspan></text>
    <text
       xml:space="preserve"
       style="font-style:normal;font-variant:normal;font-weight:300;font-stretch:normal;font-size:40px;line-height:1.25;font-family:Quicksand;-inkscape-font-specification:'Quicksand, Light';font-variant-ligatures:normal;font-variant-caps:normal;font-variant-numeric:normal;font-variant-east-asian:normal;fill:#242424;fill-opacity:1;stroke:none"
       x="64.021126"
       y="10.403419"
       id="text33924"><tspan
         sodipodi:role="line"
         id="tspan33922"
         x="64.021126"
         y="10.403419">félix<tspan
   style="font-style:normal;font-variant:normal;font-weight:normal;font-stretch:normal;font-size:40px;font-family:Quicksand;-inkscape-font-specification:'Quicksand, @wght=700';font-variant-ligatures:normal;font-variant-caps:normal;font-variant-numeric:normal;font-variant-east-asian:normal;font-variation-settings:'wght' 700;fill:#242424;fill-opacity:1"
   id="tspan33920">Fotó</tspan></tspan></text>
    <path
       d="m 252.80957,-44.422891 c 0,0 -3.64946,-6.324573 -11.84121,-8.577261 -1.98603,-0.553988 -4.01067,-0.754595 -6.07562,-0.595652 -2.06494,0.158678 -3.81216,0.953006 -5.2417,2.382602 -2.22376,2.223741 -3.25621,4.447501 -3.09738,6.671241 0.0794,2.14434 0.99274,4.010726 2.74,5.599113 0.87371,0.714679 1.94577,1.310412 3.21648,1.786944 1.1913,0.55598 2.5812,0.913147 4.16951,1.072339 8.26112,-0.398349 9.35304,-7.087664 16.12992,-8.339326 z"
       style="font-weight:normal;font-size:40px;-inkscape-font-specification:'Quicksand, @wght=700';font-variation-settings:'wght' 700;fill:#e3cb13;fill-opacity:1;stroke-width:4.21187"
       id="path38201"
       inkscape:transform-center-x="-3.9130628"
       inkscape:transform-center-y="-3.774459"
       sodipodi:nodetypes="cccsccccc" />
    <path
       d="m 252.80957,-44.422891 c 0,0 -6.32457,3.649455 -8.57726,11.841203 -0.55399,1.986023 -0.7546,4.010656 -0.59565,6.075644 0.15868,2.064932 0.95301,3.812158 2.3826,5.241695 2.22374,2.223749 4.44751,3.256216 6.67124,3.097371 2.14435,-0.0794 4.01074,-0.992697 5.59912,-2.739997 0.71467,-0.873733 1.31041,-1.945784 1.78694,-3.216476 0.55598,-1.191296 0.91314,-2.581222 1.07234,-4.169527 -0.39836,-8.26114 -7.08767,-9.35305 -8.33933,-16.129913 z"
       style="font-weight:normal;font-size:40px;-inkscape-font-specification:'Quicksand, @wght=700';font-variation-settings:'wght' 700;fill:#e3cb13;fill-opacity:1;stroke-width:4.21187"
       id="path38880"
       inkscape:transform-center-x="3.7744553"
       inkscape:transform-center-y="-3.9130633"
       sodipodi:nodetypes="cccsccccc" />
    <path
       d="m 252.80957,-44.422891 c 0,0 3.64946,6.324577 11.84121,8.577264 1.98602,0.553991 4.01065,0.7546 6.07564,0.595647 2.06493,-0.158676 3.81216,-0.953005 5.2417,-2.3826 2.22375,-2.223739 3.25621,-4.447503 3.09737,-6.671241 -0.0794,-2.144342 -0.9927,-4.010737 -2.74,-5.599112 -0.87373,-0.714674 -1.94578,-1.31041 -3.21648,-1.786947 -1.19129,-0.555979 -2.58122,-0.91314 -4.16952,-1.072334 -8.26114,0.398354 -9.35305,7.087667 -16.12992,8.339323 z"
       style="font-weight:normal;font-size:40px;-inkscape-font-specification:'Quicksand, @wght=700';font-variation-settings:'wght' 700;fill:#e3cb13;fill-opacity:1;stroke-width:4.21187"
       id="path38882"
       inkscape:transform-center-x="3.9130608"
       inkscape:transform-center-y="3.7744548"
       sodipodi:nodetypes="cccsccccc" />
    <text
       xml:space="preserve"
       style="font-style:normal;font-variant:normal;font-weight:300;font-stretch:normal;font-size:40px;line-height:1.25;font-family:Quicksand;-inkscape-font-specification:'Quicksand, Light';font-variant-ligatures:normal;font-variant-caps:normal;font-variant-numeric:ordinal slashed-zero;font-variant-east-asian:normal;fill:#242424;fill-opacity:1;stroke:none"
       x="128.30009"
       y="-24.769844"
       id="text45653"><tspan
         sodipodi:role="line"
         id="tspan45651"
         x="128.30009"
         y="-24.769844">fotó</tspan></text>
    <g
       aria-label="0.5X"
       id="text8136"
       style="font-weight:900;font-size:56.4519px;line-height:1.25;font-family:'Montserrat Alternates';-inkscape-font-specification:'Montserrat Alternates, Heavy';fill:#e3cb13;stroke-width:1.4113"
       transform="translate(-4.0401538,41.727603)">
      <path
         d="m 134.07148,183.62673 c 10.4436,0 17.89525,-7.56456 17.89525,-20.6614 0,-13.09684 -7.45165,-20.6614 -17.89525,-20.6614 -10.4436,0 -17.89525,7.56456 -17.89525,20.6614 0,13.09684 7.45165,20.6614 17.89525,20.6614 z m 0,-10.66941 c -2.59679,0 -4.51615,-2.37098 -4.51615,-9.99199 0,-7.62101 1.91936,-9.99199 4.51615,-9.99199 2.59679,0 4.51615,2.37098 4.51615,9.99199 0,7.62101 -1.91936,9.99199 -4.51615,9.99199 z"
         id="path59671" />
      <path
         d="m 161.33764,183.28801 c 4.2339,0 7.45165,-3.0484 7.45165,-7.33874 0,-4.3468 -3.21775,-7.22585 -7.45165,-7.22585 -4.23389,0 -7.45165,2.87905 -7.45165,7.22585 0,4.29034 3.21776,7.33874 7.45165,7.33874 z"
         id="path59673" />
      <path
         d="M 484.03055,143.20717 H 229.47503 l -6.54842,9.93553 -6.71778,-9.93553 h -14.95975 l 13.77426,19.5888 -14.28233,19.92753 h 15.18556 l 6.66132,-10.55651 6.83068,10.55651 h 254.61198 z"
         id="path59677"
         sodipodi:nodetypes="cccccccccccc" />
      <path
         d="m 185.66835,157.15078 0.28226,-3.89518 h 15.29847 v -10.04843 h -26.25014 l -1.97581,23.99205 h 11.45973 c 4.79842,0 5.98391,1.12904 5.98391,2.8226 0,2.03227 -2.20163,3.10485 -5.19358,3.10485 -3.33066,0 -7.16939,-0.90323 -10.5565,-2.87904 l -4.51616,9.82263 c 4.2339,2.37098 10.16135,3.55647 15.58073,3.55647 12.64522,0 18.06461,-6.83068 18.06461,-13.88717 0,-7.00004 -4.4597,-12.58878 -16.14525,-12.58878 z"
         id="path59675" />
    </g>
    <path
       d="m 83.60235,-46.042341 35.46935,-6.568382 -9.28952,-11.395052 -8.04175,2.159106 c 0,0 -14.259411,10.107977 -18.13808,15.804328 z m -9.263837,7.727969 20.436073,-29.725167 -14.626206,-1.488832 -4.159654,7.213091 c 0,0 -2.935508,17.230346 -1.650213,24.000908 z m -1.086022,12.01502 -6.568382,-35.469352 -11.395052,9.289526 2.159106,8.041745 c 0,0 10.107977,14.259412 15.804328,18.138081 z m 7.727969,9.263837 -29.725167,-20.436073 -1.488832,14.626206 7.213091,4.159654 c 0,0 17.230346,2.935508 24.000908,1.650213 z m 12.01502,1.086022 -35.469352,6.5683819 9.289526,11.3950517 8.041745,-2.15910594 c 0,0 14.259412,-10.10797666 18.138081,-15.80432766 z m 9.26384,-7.727969 L 81.823244,6.0477055 96.44945,7.5365368 100.6091,0.32344586 c 0,0 2.93551,-17.23034586 1.65022,-24.00090786 z m 1.08602,-12.01502 6.56838,35.46935247 11.39505,-9.28952637 -2.1591,-8.0417451 c 0,0 -10.10798,-14.259412 -15.80433,-18.138081 z m -7.72797,-9.263837 29.72517,20.436073 1.48883,-14.626206 -7.21309,-4.159654 c 0,0 -17.23035,-2.935508 -24.00091,-1.650213 z"
       style="font-weight:normal;font-size:40px;-inkscape-font-specification:'Quicksand, @wght=700';font-variation-settings:'wght' 700;fill:#ffffff;fill-opacity:1;stroke-width:4.21187"
       id="path38884"
       inkscape:transform-center-x="-2.2011491"
       inkscape:transform-center-y="1.7852498"
       sodipodi:nodetypes="ccccc"
       inkscape:path-effect="#path-effect53146"
       inkscape:original-d="m 74.375036,-38.383623 20.583465,-29.623295 -14.61863,-1.561461 -4.19543,7.192341 c 0,0 -3.021055,17.215553 -1.769405,23.992415 z"
       transform="matrix(0.51740912,-0.06342832,0.06342832,0.51740912,193.60806,225.5304)" />
    <text
       xml:space="preserve"
       style="font-style:normal;font-variant:normal;font-weight:normal;font-stretch:normal;font-size:40px;line-height:1.25;font-family:Quicksand;-inkscape-font-specification:'Quicksand, @wght=700';font-variant-ligatures:normal;font-variant-caps:normal;font-variant-numeric:normal;font-variant-east-asian:normal;font-variation-settings:'wght' 700;fill:#242424;fill-opacity:1;stroke:none"
       x="47.991051"
       y="28.096098"
       id="text4863"><tspan
         sodipodi:role="line"
         id="tspan4861"
         x="47.991051"
         y="28.096098">v</tspan></text>
    <rect
       style="font-variation-settings:'wght' 700;fill:#e3cb13;fill-opacity:1;stroke-width:6.55592"
       id="rect22280"
       width="39.675663"
       height="11.674659"
       x="255.19656"
       y="91.098686" />
    <rect
       style="font-variation-settings:'wght' 700;fill:#242424;fill-opacity:1;stroke-width:10"
       id="rect29913"
       width="39.739697"
       height="11.57738"
       x="255.19656"
       y="102.77335" />
  </g>
</svg>
