<?xml version="1.0" standalone="no"?>
<svg viewBox="0 0 200 200" xmlns="http://www.w3.org/2000/svg">
  <path fill="#F1C21B" d="M44.7,-77.6C56,-70.8,62.1,-55.1,68.9,-40.6C75.8,-26.2,83.4,-13.1,85.3,1.1C87.2,15.3,83.3,30.6,74.7,41.9C66,53.2,52.6,60.5,39.4,69.4C26.1,78.3,13.1,88.6,0.2,88.2C-12.6,87.8,-25.2,76.6,-38.4,67.7C-51.6,58.9,-65.4,52.3,-72.1,41.4C-78.7,30.5,-78.1,15.3,-77.6,0.3C-77.2,-14.7,-76.8,-29.4,-71,-41.7C-65.1,-54,-53.8,-63.8,-41.1,-69.8C-28.3,-75.8,-14.2,-78,1.2,-80.2C16.7,-82.3,33.3,-84.4,44.7,-77.6Z" transform="translate(100 100)" />
</svg>
