<?xml version="1.0" encoding="UTF-8" standalone="no"?>
<!-- Created with Inkscape (http://www.inkscape.org/) -->

<svg
   width="1137.1995"
   height="412.87753"
   viewBox="0 0 1137.1995 412.87753"
   version="1.1"
   id="svg5"
   inkscape:version="1.1.1 (3bf5ae0d25, 2021-09-20)"
   sodipodi:docname="cracked_paper.svg"
   xmlns:inkscape="http://www.inkscape.org/namespaces/inkscape"
   xmlns:sodipodi="http://sodipodi.sourceforge.net/DTD/sodipodi-0.dtd"
   xmlns="http://www.w3.org/2000/svg"
   xmlns:svg="http://www.w3.org/2000/svg">
  <sodipodi:namedview
     id="namedview7"
     pagecolor="#505050"
     bordercolor="#ffffff"
     borderopacity="1"
     inkscape:pageshadow="0"
     inkscape:pageopacity="0"
     inkscape:pagecheckerboard="1"
     inkscape:document-units="px"
     showgrid="false"
     inkscape:zoom="0.32963875"
     inkscape:cx="817.56164"
     inkscape:cy="250.27397"
     inkscape:window-width="1920"
     inkscape:window-height="1017"
     inkscape:window-x="0"
     inkscape:window-y="32"
     inkscape:window-maximized="1"
     inkscape:current-layer="layer1"
     lock-margins="true"
     fit-margin-top="0"
     fit-margin-left="0"
     fit-margin-right="0"
     fit-margin-bottom="0" />
  <defs
     id="defs2">
    <inkscape:path-effect
       effect="roughen"
       id="path-effect4575"
       is_visible="true"
       lpeversion="1.1"
       method="size"
       max_segment_size="16"
       segments="8"
       displace_x="7.48761;1"
       displace_y="1.35794;1"
       global_randomize="1;1"
       handles="along"
       shift_nodes="true"
       fixed_displacement="false"
       spray_tool_friendly="false" />
    <inkscape:path-effect
       effect="powerclip"
       id="path-effect3308"
       is_visible="true"
       lpeversion="1"
       inverse="true"
       flatten="false"
       hide_clip="false"
       message="A váltakozó kitöltési szabályt érdemes alkalmazni a &lt;b&gt;kitöltés és körvonal&lt;/b&gt; párbeszédablakon, ha a vágások útvonallá alakítása után az eredmény nem lapos." />
    <inkscape:path-effect
       effect="roughen"
       id="path-effect2518"
       is_visible="true"
       lpeversion="1.1"
       method="segments"
       max_segment_size="8.28633"
       segments="8"
       displace_x="7.48898;1"
       displace_y="2.76211;1"
       global_randomize="1;1"
       handles="rand"
       shift_nodes="true"
       fixed_displacement="false"
       spray_tool_friendly="false" />
    <clipPath
       clipPathUnits="userSpaceOnUse"
       id="clipPath3304">
      <path
         id="lpe_path-effect3308"
         style="fill:#ffffff;stroke-width:2.18724"
         class="powerclip"
         d="m -3.8254244,-6.4726898 20.3955184,0.3956791 15.771907,0.3598333 11.36286,-0.090377 23.333922,-0.035046 7.894957,0.7185758 19.13997,-0.3221968 14.6974,-0.3943018 15.42589,0.402873 16.24197,0.273687 18.56076,-0.098235 13.28274,0.087721 13.73688,0.029698 22.18003,0.1313671 12.13394,0.2871586 14.81573,0.4792507 20.45907,-0.1561455 15.86135,-0.1681172 13.85259,-0.093199 16.35713,-0.06026 11.44894,-0.8411838 24.77895,-0.7142895 12.10368,-0.2577474 12.6648,0.032309 18.06628,-0.00907 18.44775,-0.1849829 14.25031,0.2794284 19.45867,-0.8844999 10.17281,0.1147896 17.68713,-0.023868 15.89141,-0.8493977 17.49535,-0.7240498 14.2599,-0.113411 17.15198,-0.1330105 19.40875,0.2618165 8.57894,0.779596 17.34049,-0.9496549 17.56303,0.2118616 16.118,0.052904 16.2247,0.2067303 8.13781,0.829213 23.50428,-0.6788073 13.434,0.3298201 23.74882,-0.1982449 3.53495,-0.6653289 24.34407,-0.1936856 15.75553,0.1547332 14.48064,0.1783435 16.27914,0.084013 16.08997,0.056275 14.29123,0.3296539 17.49291,0.08289 16.08889,0.045212 15.38034,0.00861 19.14719,-0.025972 8.5576,0.3370308 22.48112,0.1475137 14.97084,0.3023232 15.32272,0.063446 13.26884,-0.9192255 19.16956,0.1715651 15.9046,0.025143 14.85631,0.579969 19.37798,-0.727825 18.2083,0.5556175 13.3159,0.7228206 11.856,0.077915 19.0063,-0.4485113 19.9368,0.3778689 13.1252,-1.146022 12.7752,0.5053178 14.8479,0.4224333 -0.1496,15.9271163 -0.6228,15.9344444 0.018,15.975626 -1.1664,15.307192 -2.9973,15.174842 -0.5276,16.752815 1.368,15.536683 0.021,15.80349 4.9391,16.69372 4.4959,14.51083 3.7179,17.42262 -1.0999,14.70118 0.084,16.4462 4.5319,14.37255 -1.4449,16.94754 -2.2024,15.95263 0.8613,15.03764 -0.646,16.09464 -2.9235,15.49714 0.3352,16.10458 -1.6976,15.59594 -0.7417,15.80074 1.8506,16.64131 -2.5119,15.24827 4.7144,15.48313 -4.3402,16.60084 0.2028,14.62133 -15.4722,-0.46802 -20.6844,-0.5582 -7.9648,0.43564 -18.3701,-0.40636 -17.2441,0.0446 -13.8788,-0.10779 -21.398,-0.28394 -10.6255,0.0327 -16.05472,0.65431 -20.64783,0.12118 -13.75071,0.007 -21.03546,0.57366 -11.05461,-0.0652 -15.38584,-0.0948 -17.54501,0.39761 -18.12572,0.50597 -7.83758,-0.35198 -22.45483,-0.25756 -18.34099,-1.26184 -11.42711,0.32326 -14.9996,0.27636 -23.52151,-0.11938 -8.03397,0.82533 -16.39395,-0.0841 -17.71965,0.91796 -14.40751,-0.34398 -13.65634,-0.0937 -21.18605,0.10274 -18.83488,0.62326 -14.44496,0.20189 -16.74539,0.46623 -18.11187,0.65581 -10.80133,-0.0146 -13.46109,-0.0204 -18.58794,-0.0613 -13.76225,-0.42125 -20.69264,0.80249 -16.5714,-0.22639 -12.84056,-0.0756 -20.62878,0.73145 -11.28773,0.33942 -19.48615,-0.0571 -13.25271,-0.15756 -13.53,0.0763 -19.91902,0.40346 -14.47875,0.023 -16.9793,0.0324 -14.75371,-0.13034 -16.79049,0.0919 -15.20717,-0.17004 -16.04532,0.19192 -18.24339,-1.22211 -20.33826,1.08528 -7.39726,-0.0538 -17.1466,-0.41741 -14.88673,0.34635 -16.85449,-0.22531 -17.3085,-0.27588 -21.18984,-1.28294 -14.05506,0.64448 -13.29716,0.12586 -15.0289,-0.2355 -16.65279,-0.23215 -13.64897,0.002 -22.836963,0.005 -11.214052,-0.29078 -15.9822,0.28708 -11.906749,-0.87579 -24.568517,-1.19303 -14.132354,0.72528 -13.5779534,-0.21265 2.1174425,-16.10467 2.2410275,-14.52083 -0.33415132,-16.76122 0.35152342,-15.80527 1.2370465,-15.79397 -0.8014947,-15.8902 -1.68183769,-16.01806 -0.42782914,-15.55206 1.0136232,-16.04024 0.48254283,-15.58587 -5.2494664,-14.62771 2.9421805,-17.33008 -0.1052495,-15.4056 -3.9935227,-16.294 -3.0380733,-15.24151 -4.0603383,-16.45078 1.976708,-15.30647 2.0003103,-15.75236 0.824591,-15.7476 L -11.551087,104.72892 -7.2333359,87.431816 -2.6723086,72.540678 -3.3700747,56.698279 -6.1674404,40.130169 -3.3512479,24.757543 -6.2247054,9.1542785 Z M 4.3124224,-0.19440137 1.6187063,13.662915 2.170494,29.108524 1.7379293,44.195686 2.2935765,58.91779 l -4.0094422,15.459659 -0.3145301,15.36105 0.5541272,15.239121 5.9482463,15.74472 2.3509275,15.20333 0.715004,14.38757 -0.3766041,14.95063 1.5494804,15.05476 -0.8865905,15.41875 -0.8621972,15.50905 -1.1388791,14.75088 1.9331382,15.08389 -2.7920956,15.46771 -1.0109467,14.59636 17.4993514,-0.8906 13.31018,-1.06717 14.510987,-0.66108 17.60937,-0.99771 17.641334,-1.386 19.637563,-0.89137 8.67188,-0.60826 17.3233,-0.9818 11.05586,-0.0199 22.78518,-1.59728 12.71408,-0.66016 21.60724,-1.96874 11.16088,-0.61705 14.60862,-0.99077 17.60207,-0.82744 18.268,-0.44754 12.36151,-0.76326 18.06011,-0.52246 15.36042,-0.74473 14.13015,-0.78998 17.2473,-1.478 12.53663,0.0212 17.7578,-0.975 16.07871,-0.71353 20.58466,0.11915 15.82835,-0.895 10.84435,-0.59255 18.125,-0.49918 12.58031,-0.18521 16.39295,-1.01682 17.71156,-0.58768 17.00962,-0.72321 11.31063,-0.42431 16.93086,-0.79147 16.18946,-0.99139 17.43675,-1.21138 14.41663,-0.85789 15.96727,-0.91089 15.49434,-0.0378 15.42746,-1.02657 16.37131,-0.83725 15.46971,-1.0202 13.22323,-0.66722 17.81902,-1.04187 14.18784,-1.36669 18.88697,-1.27955 15.6508,-0.67104 16.59165,-0.95793 14.48671,-0.86778 12.67524,-1.46986 22.2462,-0.76886 14.18628,-0.47368 13.58403,-0.90661 22.74289,-0.88196 8.21769,-0.79604 17.00327,-1.07958 17.96228,-0.87138 13.76126,-0.87641 12.843,-1.54095 15.06997,-0.68843 20.41718,-1.20651 19.98463,-0.72723 10.21647,-0.68006 16.69073,-0.42401 15.0056,-0.96113 12.9701,-0.8971 19.2189,-1.49758 13.2066,-0.72722 17.1602,-2.5067 22.8426,-2.14004 13.6418,0.51364 3.3108,-15.69052 1.6448,-15.09259 -5.9276,-14.05079 -0.6517,-15.44493 -0.3737,-14.66263 -0.2083,-15.40269 0.6399,-15.65221 -1.7633,-14.091109 -1.7387,-14.916163 5.9039,-16.529689 -1.8257,-13.877849 -6.6798,-14.825476 -4.1122,-14.609975 7.7417,-15.8547366 -19.4784,0.5628913 -9.8264,-0.34692158 -18.4046,0.0274391 -11.7171,-0.45082138 -20.4047,0.2092036 -12.9181,-0.6195488 -18.0028,0.029875 -14.2082,0.083711 -15.6858,0.1297103 -18.99091,0.1708009 -10.91389,-0.7043227 -19.01465,0.141123 -18.90133,0.3209123 -12.20946,-0.2702453 -15.10387,0.088636 -13.91434,-0.5771815 -19.17475,-0.1438664 -9.5316,0.6110375 -24.7996,-0.4219502 -13.52298,0.04797 -16.82914,0.2224364 -16.42774,0.1642383 -7.67876,0.09978 -24.57605,0.3275302 -13.4512,-0.065572 -13.98704,-0.4369389 -17.06574,0.2058683 -18.21867,0.6331171 -17.16941,0.23998497 -12.88111,0.17193788 -14.56616,-0.39395745 -18.04468,-0.6885846 -16.60067,0.5450574 -17.90643,-0.3844426 -7.66897,0.64167693 -18.27216,0.28745324 -16.29315,0.29930438 L 518.7089,0.42691995 509.04187,0.07416202 492.94119,0.08911846 477.5927,-0.29841201 465.17259,-0.4224391 451.24358,0.25430061 426.00305,0.71575049 413.8728,0.555938 398.70747,0.43071957 382.9973,0.38008563 366.52056,0.57637176 351.02866,-0.23414975 333.85879,-0.57190639 321.74376,-0.95320241 303.80269,-1.02528 l -20.68515,1.04789261 -12.52549,-0.16580192 -14.80466,-0.76296936 -15.93322,0.10684971 -16.83265,-0.30077454 -13.89953,-0.2736526 -15.28814,-0.083736 -12.54392,-0.9289515 -19.1191,-0.066905 -14.27916,0.049443 -19.28668,0.5928142 L 114.097,-1.6099731 98.003428,-1.9374062 82.803611,-1.5885719 65.160216,-1.3305151 49.233333,-1.0496361 31.628286,-0.55604123 20.870791,-0.8990089 Z" />
    </clipPath>
  </defs>
  <g
     inkscape:label="Réteg 1"
     inkscape:groupmode="layer"
     id="layer1"
     transform="translate(10.35483,2.3308499)">
    <path
       style="fill:#ffffff;stroke:#ffffff;stroke-width:1px;stroke-linecap:butt;stroke-linejoin:miter;stroke-opacity:1"
       d="m 1096.2618,209.38869 v 0 l -26.8645,100.62475 -38.5574,-59.56079 -26.6516,110.33687 -53.16396,-71.61886 -23.94376,76.73541 -56.44135,-52.60136 -41.51903,78.49373 -32.52841,-41.59846 -38.6239,49.7653 -3.03362,-77.34899 -49.9113,79.6954 -47.38667,-76.34895 -43.73004,63.03231 -58.99768,-48.43772 -11.73024,69.28981 -27.75982,-86.62103 -24.27367,66.49818 -48.1392,-91.60871 -27.36168,114.96377 -40.87861,-70.19449 -39.25172,61.67566 -15.33717,-81.10333 -35.22445,74.80695 -36.48148,-72.9626 -49.28762,70.2431 -37.42655,-81.60267 -42.105,54.91098 L 71.704151,313.9636 36.866566,361.38758 H 37.8668 l -64.746387,-89.99889 z"
       id="path857"
       sodipodi:nodetypes="cccccccccccccccccccccccccccccccccc"
       clip-path="url(#clipPath3304)"
       transform="matrix(0.57571447,0,0,0.49476668,-14.625507,-12.721791)" />
    <path
       id="path3298"
       style="fill:#ffffff;stroke:#ffffff;stroke-width:1.14194"
       d="M -14.498362,-7.1140658 H 617.63393 V 94.751196 L -14.498362,124.77813 Z"
       sodipodi:nodetypes="ccccc" />
  </g>
</svg>
