<?xml version="1.0" encoding="UTF-8" standalone="no"?>
<!-- Created with Inkscape (http://www.inkscape.org/) -->

<svg
   width="81.006248"
   height="13.194142"
   viewBox="0 0 81.006249 13.194143"
   version="1.1"
   id="svg5"
   inkscape:version="1.2 (dc2aedaf03, 2022-05-15)"
   sodipodi:docname="retouch.svg"
   xmlns:inkscape="http://www.inkscape.org/namespaces/inkscape"
   xmlns:sodipodi="http://sodipodi.sourceforge.net/DTD/sodipodi-0.dtd"
   xmlns="http://www.w3.org/2000/svg"
   xmlns:svg="http://www.w3.org/2000/svg">
  <sodipodi:namedview
     id="namedview7"
     pagecolor="#ffffff"
     bordercolor="#eeeeee"
     borderopacity="1"
     inkscape:showpageshadow="0"
     inkscape:pageopacity="0"
     inkscape:pagecheckerboard="true"
     inkscape:deskcolor="#a8a8a8"
     inkscape:document-units="px"
     showgrid="false"
     shape-rendering="crispEdges"
     inkscape:zoom="10.0125"
     inkscape:cx="52.084894"
     inkscape:cy="14.43196"
     inkscape:current-layer="layer1" />
  <defs
     id="defs2" />
  <g
     inkscape:label="Layer 1"
     inkscape:groupmode="layer"
     id="layer1"
     transform="translate(-134.96469,-331.47183)">
    <path
       style="fill:#000000;fill-opacity:1;stroke:none;stroke-width:10;stroke-opacity:0"
       id="path1384"
       d="m 138.27219,336.50815 c 1.02049,0.0813 1.33761,0.11392 2.53934,0.15806 4.17532,0.15334 8.35819,0.1166 12.53548,0.13546 4.18982,0.003 8.37791,0.12128 12.56751,0.15188 6.75411,0.0358 13.50785,0.10534 20.2621,0.10524 3.39656,0.0261 6.79117,-0.0872 10.18637,-0.15285 2.75481,-6.8e-4 5.50925,-0.0103 8.26355,-0.0658 1.83708,-0.0366 3.67322,-0.10494 5.50914,-0.17834 1.30196,-0.0527 2.60384,-0.10752 3.90572,-0.16207 2.42332,-0.10494 0.90616,0.25983 0.13397,-4.95652 -0.32683,0.081 -0.64228,0.19279 -0.96726,0.28008 -0.68938,0.15855 -1.41336,0.12284 -2.11575,0.12458 -1.46487,-0.037 -2.92973,-0.075 -4.3897,-0.20351 -1.9897,-0.23397 -3.99407,-0.24462 -5.99434,-0.22948 -2.90044,0.004 -5.80053,0.0212 -8.70042,0.0785 -2.91272,0.0658 -5.82446,0.16733 -8.73574,0.27797 -1.11407,0.0429 -2.22797,0.0899 -3.34187,0.13681 -1.52049,0.0458 -3.0367,0.16917 -4.55404,0.27167 -2.4839,0.1787 -4.96023,0.44559 -7.43674,0.70424 -1.8083,0.24072 -3.63138,0.22751 -5.45088,0.18965 -2.62021,-0.0512 -5.23943,-0.19092 -7.85194,-0.39767 -1.40116,-0.11371 -2.80196,-0.23242 -4.20337,-0.34418 -0.60834,-0.0422 -1.21636,-0.0864 -1.82457,-0.12984 -0.46352,-0.0146 -0.9256,-0.0507 -1.38908,-0.0675 -1.03761,-0.0136 -2.07504,0.0409 -3.11164,0.0808 -0.92892,0.0165 -1.85381,0.0951 -2.77816,0.18212 -0.56844,0.0593 -1.13611,0.13142 -1.70257,0.20798 -0.57502,0.0838 -1.15351,0.13644 -1.72675,0.23212 -0.42996,0.0592 -0.84792,0.15726 -1.255,0.31012 -0.72304,0.30225 -1.44358,0.72071 -1.63525,1.65555 -0.15933,0.7772 0.12726,1.60553 0.42066,2.34264 0.1819,0.45697 0.88091,0.71212 1.29996,0.90051 0.3772,0.16303 0.80087,0.19895 1.17791,0.36128 0.31555,0.13635 0.62945,0.28567 0.94855,0.42026 0.58483,0.20888 1.17873,0.39485 1.7784,0.55594 0.83025,0.27691 1.68221,0.4593 2.54201,0.61614 1.64508,0.28443 3.31449,0.36025 4.97862,0.44506 0.9938,0.0585 1.98064,0.18768 2.97197,0.27442 1.84742,0.11284 3.68722,0.31418 5.52897,0.492 0.85356,0.0961 1.70846,0.17818 2.56722,0.20367 0.31794,0.006 0.63596,5e-4 0.9537,-0.0109 0.21682,-0.008 0.1284,-0.0143 0.24513,-0.002 0.78384,0.0316 1.56818,0.004 2.35181,-0.0191 1.15894,-0.0398 2.3177,-0.0849 3.47636,-0.13185 0.66129,-0.0293 1.32226,-0.0575 1.98417,-0.066 2.05863,0.0205 4.11672,0.0146 6.17502,-0.0271 2.13386,-0.0158 4.26738,-0.0579 6.40129,-0.0538 0.92291,0.003 1.84576,0.0169 2.76855,-5.3e-4 0.9124,-0.0253 1.82429,-0.0662 2.73625,-0.10383 1.29965,-0.0566 2.59991,-0.0992 3.89864,-0.17458 1.00094,-0.0473 1.99671,-0.1528 2.99145,-0.269 0.50558,-0.0595 1.01444,-0.0819 1.52262,-0.10643 0.52522,-0.039 1.05133,-0.0141 1.57721,-0.007 0.89808,0.004 1.79575,-0.0339 2.69307,-0.0668 0.89122,-0.0327 1.78211,-0.0665 2.67194,-0.1263 1.58777,-0.11642 3.17329,-0.26594 4.75492,-0.44762 0.62651,-0.0717 1.25225,-0.15215 1.88123,-0.19924 0.31791,-0.0211 0.63632,-0.0333 0.95468,-0.0454 0.35985,-0.0139 0.71966,-0.0287 1.07947,-0.0435 0.16749,-0.0129 0.32072,0.0154 0.53539,0.0306 -0.0448,-0.003 -0.0896,-0.009 -0.13446,-0.0108 -0.0105,-4.1e-4 0.0208,0.005 0.0313,0.007 0.0416,0.008 0.0834,0.0166 0.12531,0.0227 0.26652,0.0385 0.52873,0.0552 0.79752,0.0633 0.31468,0.0309 0.63066,0.0487 0.94661,0.06 0.18803,0.005 0.3762,0.005 0.56424,-5e-5 0.0342,-8.2e-4 0.1367,3.7e-4 0.10266,-0.003 -0.0378,-0.004 -0.076,0.001 -0.11404,0.002 -1.93688,-0.12718 -1.71836,-1.6197 -1.89718,-3.85067 -0.0239,-0.29772 0.79727,-0.75848 1.08181,-0.87979 -0.71849,0.18609 -1.48185,0.20242 -2.21846,0.25804 -2.57985,0.19917 -5.15658,0.43623 -7.73252,0.68024 -1.86062,0.16461 -3.72396,0.2973 -5.58642,0.43989 -1.59838,0.10545 -3.19387,0.24717 -4.78985,0.38286 -2.03096,0.15161 -4.05822,0.34678 -6.08576,0.53757 -1.00223,0.093 -2.00495,0.18237 -3.00977,0.24254 -1.05744,0.0526 -2.11551,0.0922 -3.17336,0.13587 -1.34836,0.0466 -2.69389,0.14922 -4.03991,0.23825 -0.7551,0.0342 -1.51038,0.11043 -2.2667,0.10909 -1.20404,-0.0322 -2.40781,-0.0896 -3.61156,-0.13789 -1.20129,-0.031 -2.4014,-0.0952 -3.60297,-0.11655 -0.72928,-0.009 -1.45451,-0.0847 -2.18152,-0.13448 -0.46204,-0.0235 -0.91715,-0.0861 -1.37053,-0.17376 -0.84923,-0.12841 -1.70807,-0.13407 -2.56477,-0.12835 -0.91938,0.0143 -1.83838,0.0464 -2.75716,0.082 -1.39626,-0.004 -2.79214,0.0482 -4.18754,0.0917 -1.30517,0.0346 -2.60849,0.12698 -3.90906,0.23886 -2.323,0.17346 -4.6483,0.31466 -6.97373,0.45137 -0.80597,0.049 -1.61282,0.0725 -2.41598,0.15788 -0.46835,0.0562 -0.93852,0.0935 -1.40922,0.12237 -0.20832,0.01 -0.41645,0.0252 -0.62493,0.0318 -0.0295,9.7e-4 -0.11811,8.6e-4 -0.0885,6.5e-4 0.0458,-0.001 0.0921,-0.009 0.1374,-0.002 0.17968,0.0281 0.35668,0.0713 0.53503,0.10691 0.38155,0.27951 1.01192,0.38454 1.14464,0.83851 0.48279,1.65145 0.55555,2.97106 -0.8567,3.6741 -0.3055,0.0895 0.35968,-0.0515 0.40761,-0.0593 0.25318,-0.0374 0.50873,-0.0518 0.764,-0.0658 0.51275,-0.0121 1.01666,0.0358 1.52228,0.11618 0.75624,0.15313 1.5139,0.29917 2.26827,0.46187 1.10862,0.29681 2.22096,0.39142 3.36118,0.47855 1.05209,0.0581 2.09725,0.1995 3.14844,0.26854 0.40979,0.0269 1.52897,0.0761 1.94366,0.0951 2.04753,0.0903 4.09419,0.1696 6.14375,0.18791 1.63744,-0.003 3.27485,-0.001 4.91211,-0.0279 1.57177,-0.0322 3.14275,-0.093 4.71358,-0.15434 1.2117,-0.048 2.42324,-0.0993 3.63482,-0.14972 1.63897,-0.0586 3.27646,-0.13427 4.91269,-0.24503 1.23063,-0.0944 2.458,-0.22509 3.68759,-0.33099 0.46145,-0.0421 0.92428,-0.0637 1.38708,-0.0839 1.03668,0.0554 2.07461,0.0875 3.11184,0.13298 1.57943,0.0744 3.16017,0.0601 4.74017,0.0209 1.65327,-0.0722 3.30752,-0.0915 4.96209,-0.10097 1.05963,8.4e-4 2.11865,-0.0369 3.17739,-0.0763 1.58484,-0.049 3.16759,-0.13362 4.74941,-0.24099 0.66597,-0.0441 1.33136,-0.0973 1.99774,-0.13533 0.63491,-0.0322 1.27019,-0.0564 1.90536,-0.0826 0.91858,-0.0252 1.83637,-0.0967 2.75539,-0.10231 0.41682,0.0314 0.83679,0.0717 1.24905,0.14342 0.37176,0.0721 0.74962,0.0963 1.12529,0.13768 0.38918,0.047 0.7807,0.059 1.17228,0.0561 0.16386,-0.003 0.32769,-0.007 0.49145,-0.0133 0.0403,-10e-4 0.16154,-0.003 0.12114,-0.005 -0.0685,-0.003 -0.27327,-0.0105 -0.20567,0.001 0.0855,0.0146 0.17333,0.006 0.25998,0.008 -0.38175,-0.0203 -0.42872,-0.004 -0.89932,-0.1866 -0.14901,-0.0577 -0.27821,-0.15721 -0.41732,-0.23581 2.84022,2.1055 5.81785,-1.91118 2.97763,-4.01668 v 0 c -0.17371,-0.10425 -0.33438,-0.23414 -0.5211,-0.31276 -0.5444,-0.22925 -0.64164,-0.21032 -1.12247,-0.24812 0.0414,0.002 0.16596,0.009 0.12442,0.008 -0.28717,-0.006 -0.57251,-0.0167 -0.85954,10e-4 -0.19194,0.003 -0.38357,-0.002 -0.57426,-0.0264 -0.2961,-0.0326 -0.59377,-0.0484 -0.88663,-0.10558 -0.69008,-0.1059 -1.38617,-0.19343 -2.08486,-0.2053 -0.97088,0.0122 -1.9404,0.073 -2.91072,0.10632 -0.66209,0.0272 -1.32431,0.0526 -1.98615,0.0859 -0.68379,0.0393 -1.36666,0.0927 -2.05004,0.13858 -1.5311,0.10388 -3.06304,0.18587 -4.59709,0.23291 -1.00622,0.0375 -2.01271,0.074 -3.0198,0.073 -1.68669,0.01 -3.37313,0.0293 -5.05851,0.10246 -1.46564,0.0368 -2.93192,0.0516 -4.39703,-0.0177 -1.18266,-0.0515 -2.36611,-0.10629 -3.54925,-0.13293 -0.53304,0.023 -1.06604,0.049 -1.59751,0.0976 -1.19902,0.10349 -2.39601,0.22973 -3.59583,0.32393 -1.59291,0.10793 -3.18707,0.18037 -4.7826,0.23786 -1.20743,0.0502 -2.41483,0.10059 -3.6223,0.14922 -1.53321,0.0602 -3.06662,0.11946 -4.60076,0.15119 -1.59514,0.0264 -3.19041,0.0242 -4.78571,0.0274 -1.98811,-0.0172 -3.97329,-0.0958 -5.95946,-0.18288 -0.19422,-0.009 -1.53138,-0.0687 -1.76941,-0.084 -1.05895,-0.0682 -2.11168,-0.21343 -3.17161,-0.27035 -0.91753,-0.0695 -1.79679,-0.13029 -2.68741,-0.3808 -0.85368,-0.18378 -1.71065,-0.35192 -2.56802,-0.51695 -0.84691,-0.12571 -1.69791,-0.19896 -2.55494,-0.16547 -0.44196,0.0252 -0.88407,0.0566 -1.32136,0.12856 -0.37881,0.0656 -0.75915,0.12798 -1.12862,0.23753 -0.47296,0.16263 -1.414,0.50542 -1.53583,0.9698 -0.7956,3.03259 -0.55194,2.70605 1.11545,3.97449 0.23392,0.0556 0.46481,0.12608 0.70179,0.16681 0.44046,0.0757 0.89627,-0.0183 1.33799,-0.0191 0.54594,-0.0339 1.09131,-0.077 1.63459,-0.14147 0.72274,-0.0785 1.45033,-0.087 2.17543,-0.13795 2.37163,-0.13944 4.74315,-0.28337 7.11222,-0.46145 1.20853,-0.10578 2.42009,-0.18947 3.63297,-0.22257 1.40806,-0.044 2.81639,-0.0939 4.22533,-0.093 0.86678,-0.0337 1.73376,-0.0645 2.60114,-0.0783 0.36125,-0.003 0.72273,-0.008 1.08378,0.008 0.20007,0.009 0.29248,0.0211 0.49576,0.0407 0.004,1.9e-4 3.5e-4,-0.007 5.1e-4,-0.0111 0.65395,0.12597 1.31264,0.21358 1.97797,0.25274 0.8112,0.0548 1.62064,0.13745 2.43445,0.14527 1.16371,0.0196 2.32594,0.0851 3.48943,0.11329 1.28199,0.0513 2.56401,0.11547 3.84657,0.14179 0.85494,-0.01 1.70839,-0.07 2.56177,-0.11985 1.3039,-0.0862 2.60733,-0.18609 3.91351,-0.23144 1.09022,-0.0444 2.18069,-0.0849 3.27041,-0.14087 1.06083,-0.0642 2.11965,-0.15657 3.17773,-0.25549 2.01263,-0.18939 4.02494,-0.38322 6.04097,-0.53354 1.58201,-0.1345 3.1635,-0.27519 4.7479,-0.37948 1.89244,-0.1449 3.78576,-0.27975 5.67627,-0.44758 2.54583,-0.24117 5.09242,-0.47563 7.64211,-0.67251 1.1138,-0.0861 2.24985,-0.13942 3.32501,-0.46995 0.13431,-0.0485 0.27369,-0.0847 0.40292,-0.14551 0.27959,-0.13143 1.18684,-0.63923 1.17181,-0.95083 -0.12238,-2.53803 0.0158,-3.76949 -2.02731,-3.94194 -0.20116,-0.004 -0.40173,-8.5e-4 -0.60286,-6.6e-4 -0.33223,-0.0101 -0.66295,-0.0441 -0.99483,-0.0614 -0.0246,2e-5 -0.0494,-9.7e-4 -0.074,5e-5 -0.006,1.1e-4 -0.0228,-10e-6 -0.0174,0.002 0.0175,0.006 0.0731,0.0113 0.0544,0.0121 -0.17697,0.007 -0.39262,-0.14642 -0.56391,-0.0856 -0.35898,-0.0228 -0.71804,-0.0679 -1.07845,-0.038 -0.35838,0.0145 -0.71676,0.029 -1.07515,0.0433 -0.37885,0.015 -0.7578,0.0292 -1.13604,0.0559 -0.69274,0.0534 -1.38259,0.13608 -2.07253,0.2175 -1.50569,0.17323 -3.01513,0.31544 -4.52667,0.42668 -0.83657,0.0589 -1.67468,0.0852 -2.51264,0.11793 -0.81529,0.0296 -1.63086,0.0652 -2.44682,0.0639 -0.62731,-0.008 -1.25515,-0.0317 -1.88176,0.0128 -0.62116,0.0306 -1.24293,0.0603 -1.86082,0.13429 -0.89934,0.10504 -1.79926,0.20279 -2.70441,0.24383 -1.27017,0.0752 -2.54218,0.11285 -3.81324,0.17037 -0.87491,0.0364 -1.74977,0.0752 -2.62507,0.10024 -0.88758,0.0175 -1.77523,9.5e-4 -2.66288,-3.9e-4 -2.17091,-0.004 -4.34143,0.038 -6.51226,0.0549 -2.04891,0.0418 -4.09753,0.045 -6.14676,0.0267 -0.70499,0.0112 -1.40914,0.0366 -2.11345,0.0695 -1.14156,0.0463 -2.28318,0.0912 -3.42503,0.13003 -0.70303,0.021 -1.40664,0.0476 -2.10984,0.0176 -0.3839,-0.002 -0.76696,0.0167 -1.1509,0.0145 -0.74478,-0.0184 -1.48514,-0.10458 -2.22553,-0.18248 -1.85825,-0.17919 -3.71449,-0.38259 -5.57842,-0.49652 -1.05015,-0.0896 -2.09511,-0.23212 -3.14837,-0.28653 -1.45303,-0.074 -2.9114,-0.13174 -4.3489,-0.37276 -0.39185,-0.0689 -0.5723,-0.0936 -0.93749,-0.18008 -0.42364,-0.10033 -0.83304,-0.25207 -1.25454,-0.36015 -0.36495,-0.0718 -0.70849,-0.23839 -1.0719,-0.31867 -0.40789,-0.17141 -0.80249,-0.37375 -1.21866,-0.52492 -0.36573,-0.12521 -0.73658,-0.23772 -1.10913,-0.33634 0.31968,0.16729 0.79583,0.38745 0.91788,0.73089 0.82607,2.32471 0.58827,2.12543 -0.80464,3.66137 -0.0403,0.0446 -0.0933,0.0542 -0.14539,0.0645 0.0844,-0.0374 0.0132,-0.004 -0.13849,0.0267 -0.0172,0.004 -0.0695,0.008 -0.0523,0.005 0.16172,-0.0273 0.32492,-0.0465 0.48579,-0.0792 0.52257,-0.09 1.05286,-0.12499 1.57655,-0.2091 0.49494,-0.0702 0.99222,-0.1294 1.48904,-0.18323 0.83246,-0.0784 1.665,-0.15183 2.5018,-0.16372 0.91447,-0.0357 1.82948,-0.0814 2.74475,-0.0802 0.40487,0.0133 0.80852,0.0484 1.21348,0.0583 0.59252,0.0405 1.18459,0.0868 1.77722,0.1263 1.40293,0.11185 2.80528,0.23035 4.20795,0.34453 2.71007,0.21274 5.42668,0.36003 8.14469,0.41213 0.51917,0.01 1.03823,0.0267 1.55746,0.03 1.50792,0.01 3.01532,-0.0682 4.51286,-0.24575 2.41589,-0.25231 4.83154,-0.51327 7.25456,-0.68857 1.47502,-0.0997 2.94874,-0.22089 4.42683,-0.26473 1.10722,-0.0466 2.21441,-0.0933 3.32178,-0.13598 2.88097,-0.1098 5.76239,-0.21011 8.64476,-0.27532 2.88,-0.0571 5.7602,-0.073 8.64073,-0.0777 1.84236,-0.015 3.68858,-0.009 5.52092,0.21074 1.61174,0.13927 3.22849,0.18839 4.84566,0.22235 1.13408,-0.007 2.28796,0.004 3.3914,-0.29577 0.25943,-0.0697 0.5182,-0.13846 0.77129,-0.22942 0.0139,-0.005 -0.2035,0.0442 -0.11642,0.0227 0.0431,-0.0108 0.087,-0.0188 0.13053,-0.0282 -0.63091,-5.19196 0.96604,-5.01582 -1.45976,-4.91302 -1.29837,0.0545 -2.59675,0.10908 -3.89519,0.16163 -1.80294,0.0723 -3.60612,0.1397 -5.41025,0.17537 -2.75308,0.0556 -5.50627,0.0632 -8.25983,0.0657 -3.36286,0.0656 -6.72516,0.17735 -10.08938,0.1519 -6.74208,1.7e-4 -13.48368,-0.0695 -20.22561,-0.10509 -4.1942,-0.0304 -8.38687,-0.14921 -12.58132,-0.15197 -4.09646,-0.0185 -8.19834,0.0175 -12.293,-0.12849 -1.13866,-0.0406 -1.42419,-0.0709 -2.40412,-0.14903 -3.52417,-0.28304 -3.92446,4.70091 -0.40027,4.98395 z" />
  </g>
</svg>
