<?xml version="1.0" encoding="UTF-8" standalone="no"?>
<!-- Created with Inkscape (http://www.inkscape.org/) -->

<svg
   width="82.944473"
   height="13.194139"
   viewBox="0 0 82.944473 13.194139"
   version="1.1"
   id="svg5"
   inkscape:version="1.2 (dc2aedaf03, 2022-05-15)"
   sodipodi:docname="retouch.svg"
   xmlns:inkscape="http://www.inkscape.org/namespaces/inkscape"
   xmlns:sodipodi="http://sodipodi.sourceforge.net/DTD/sodipodi-0.dtd"
   xmlns="http://www.w3.org/2000/svg"
   xmlns:svg="http://www.w3.org/2000/svg">
  <sodipodi:namedview
     id="namedview7"
     pagecolor="#ffffff"
     bordercolor="#eeeeee"
     borderopacity="1"
     inkscape:showpageshadow="0"
     inkscape:pageopacity="0"
     inkscape:pagecheckerboard="true"
     inkscape:deskcolor="#a8a8a8"
     inkscape:document-units="px"
     showgrid="false"
     shape-rendering="crispEdges"
     inkscape:zoom="3.5399533"
     inkscape:cx="39.689789"
     inkscape:cy="104.94489"
     inkscape:current-layer="layer1" />
  <defs
     id="defs2" />
  <g
     inkscape:label="Layer 1"
     inkscape:groupmode="layer"
     id="layer1"
     transform="translate(-134.9647,-352.47807)">
    <path
       style="fill:#e2cc45;fill-opacity:1;stroke:none;stroke-width:10.1189;stroke-opacity:0"
       id="path890"
       d="m 137.22031,358.0895 c 1.04491,0.0813 1.36962,0.11392 2.6001,0.15806 4.27522,0.15334 8.55818,0.1166 12.83542,0.13546 4.29006,0.003 8.57835,0.12128 12.86819,0.15188 6.91571,0.0358 13.83105,0.10534 20.7469,0.10524 3.47783,0.0261 6.95366,-0.0872 10.43009,-0.15285 2.82073,-6.8e-4 5.64108,-0.0103 8.46128,-0.0658 1.88103,-0.0366 3.7611,-0.10494 5.64095,-0.17834 1.33311,-0.0527 2.66614,-0.10752 3.99916,-0.16207 2.48131,-0.10494 0.92785,0.25983 0.13718,-4.95652 -0.33465,0.081 -0.65764,0.19279 -0.9904,0.28008 -0.70588,0.15855 -1.44718,0.12284 -2.16637,0.12458 -1.49993,-0.037 -2.99983,-0.075 -4.49473,-0.20351 -2.03731,-0.23397 -4.08964,-0.24462 -6.13777,-0.22948 -2.96984,0.004 -5.93931,0.0212 -8.90858,0.0785 -2.98242,0.0658 -5.96382,0.16733 -8.94476,0.27797 -1.14073,0.0429 -2.28127,0.0899 -3.42183,0.13681 -1.55687,0.0458 -3.10936,0.16917 -4.663,0.27167 -2.54333,0.1787 -5.07891,0.44559 -7.61467,0.70424 -1.85157,0.24072 -3.71827,0.22751 -5.5813,0.18965 -2.6829,-0.0512 -5.36479,-0.19092 -8.03981,-0.39767 -1.43469,-0.11371 -2.869,-0.23242 -4.30395,-0.34418 -0.62289,-0.0422 -1.24546,-0.0864 -1.86822,-0.12984 -0.47461,-0.0146 -0.94775,-0.0507 -1.42231,-0.0675 -1.06244,-0.0136 -2.1247,0.0409 -3.18609,0.0808 -0.95115,0.0165 -1.89817,0.0951 -2.84463,0.18212 -0.58205,0.0593 -1.16329,0.13142 -1.74331,0.20798 -0.58878,0.0838 -1.18111,0.13644 -1.76806,0.23212 -0.44026,0.0592 -0.86821,0.15726 -1.28503,0.31012 -0.74034,0.30225 -1.47813,0.72071 -1.67438,1.65555 -0.16314,0.7772 0.13031,1.60553 0.43072,2.34264 0.18626,0.45697 0.902,0.71212 1.33106,0.90051 0.38623,0.16303 0.82004,0.19895 1.20611,0.36128 0.32309,0.13635 0.64451,0.28567 0.97124,0.42026 0.59882,0.20888 1.20693,0.39485 1.82095,0.55594 0.85011,0.27691 1.72245,0.4593 2.60283,0.61614 1.68444,0.28443 3.39379,0.36025 5.09774,0.44506 1.01758,0.0585 2.02803,0.18768 3.04308,0.27442 1.89162,0.11284 3.77544,0.31418 5.66125,0.492 0.87399,0.0961 1.74934,0.17818 2.62865,0.20367 0.32555,0.006 0.65118,5e-4 0.97652,-0.0109 0.222,-0.008 0.13147,-0.0143 0.25099,-0.002 0.8026,0.0316 1.6057,0.004 2.40808,-0.0191 1.18667,-0.0398 2.37316,-0.0849 3.55953,-0.13185 0.67712,-0.0293 1.35391,-0.0575 2.03165,-0.066 2.10789,0.0205 4.21522,0.0146 6.32277,-0.0271 2.18492,-0.0158 4.36949,-0.0579 6.55445,-0.0538 0.94499,0.003 1.88992,0.0169 2.83479,-5.3e-4 0.93423,-0.0253 1.86794,-0.0662 2.80171,-0.10383 1.33076,-0.0566 2.66213,-0.0992 3.99192,-0.17458 1.0249,-0.0473 2.0445,-0.1528 3.06303,-0.269 0.51768,-0.0595 1.03871,-0.0819 1.55905,-0.10643 0.53779,-0.039 1.07648,-0.0141 1.61495,-0.007 0.91956,0.004 1.83871,-0.0339 2.75751,-0.0668 0.91254,-0.0327 1.82475,-0.0665 2.73586,-0.1263 1.62577,-0.11642 3.24922,-0.26594 4.86869,-0.44762 0.6415,-0.0717 1.28221,-0.15215 1.92624,-0.19924 0.32552,-0.0211 0.65155,-0.0333 0.97752,-0.0454 0.36847,-0.0139 0.73689,-0.0287 1.1053,-0.0435 0.17151,-0.0129 0.3284,0.0154 0.5482,0.0306 -0.0459,-0.003 -0.0917,-0.009 -0.13768,-0.0108 -0.0107,-4.1e-4 0.0214,0.005 0.0321,0.007 0.0426,0.008 0.0854,0.0166 0.12831,0.0227 0.27289,0.0385 0.54138,0.0552 0.8166,0.0633 0.32221,0.0309 0.64575,0.0487 0.96926,0.06 0.19253,0.005 0.3852,0.005 0.57773,-5e-5 0.035,-8.2e-4 0.13998,3.7e-4 0.10511,-0.003 -0.0387,-0.004 -0.0779,0.001 -0.11676,0.002 -1.98323,-0.12718 -1.75948,-1.6197 -1.94258,-3.85067 -0.0245,-0.29772 0.81635,-0.75848 1.1077,-0.87979 -0.73569,0.18609 -1.51731,0.20242 -2.27155,0.25804 -2.64157,0.19917 -5.27995,0.43623 -7.91752,0.68024 -1.90515,0.16461 -3.81307,0.2973 -5.72009,0.43989 -1.63663,0.10545 -3.27028,0.24717 -4.90446,0.38286 -2.07954,0.15161 -4.15531,0.34678 -6.23136,0.53757 -1.02621,0.093 -2.05292,0.18237 -3.08179,0.24254 -1.08273,0.0526 -2.16612,0.0922 -3.24928,0.13587 -1.38062,0.0466 -2.75835,0.14922 -4.13657,0.23825 -0.77316,0.0342 -1.54651,0.11043 -2.32094,0.10909 -1.23284,-0.0322 -2.46542,-0.0896 -3.69797,-0.13789 -1.23003,-0.031 -2.45885,-0.0952 -3.68918,-0.11655 -0.74672,-0.009 -1.4893,-0.0847 -2.23371,-0.13448 -0.47309,-0.0235 -0.93909,-0.0861 -1.40332,-0.17376 -0.86954,-0.12841 -1.74894,-0.13407 -2.62614,-0.12835 -0.94137,0.0143 -1.88236,0.0464 -2.82312,0.082 -1.42967,-0.004 -2.85895,0.0482 -4.28773,0.0917 -1.33641,0.0346 -2.67091,0.12698 -4.00259,0.23886 -2.37859,0.17346 -4.75953,0.31466 -7.14059,0.45137 -0.82526,0.049 -1.65142,0.0725 -2.47378,0.15788 -0.47956,0.0562 -0.96099,0.0935 -1.44295,0.12237 -0.2133,0.01 -0.42641,0.0252 -0.63988,0.0318 -0.0302,9.7e-4 -0.12094,8.6e-4 -0.0906,6.5e-4 0.0469,-10e-4 0.0943,-0.009 0.14069,-0.002 0.18398,0.0281 0.36521,0.0713 0.54783,0.10691 0.39068,0.27951 1.03613,0.38454 1.17202,0.83851 0.49434,1.65145 0.56884,2.97106 -0.87719,3.6741 -0.31281,0.0895 0.36828,-0.0515 0.41736,-0.0593 0.25924,-0.0374 0.5209,-0.0518 0.78228,-0.0658 0.52501,-0.0121 1.04099,0.0358 1.5587,0.11618 0.77433,0.15313 1.55013,0.29917 2.32254,0.46187 1.13515,0.29681 2.2741,0.39142 3.4416,0.47855 1.07727,0.0581 2.14744,0.1995 3.22377,0.26854 0.4196,0.0269 1.56556,0.0761 1.99016,0.0951 2.09652,0.0903 4.19216,0.1696 6.29075,0.18791 1.67662,-0.003 3.35321,-10e-4 5.02965,-0.0279 1.60937,-0.0322 3.21793,-0.093 4.82635,-0.15434 1.2407,-0.048 2.48122,-0.0993 3.72179,-0.14972 1.67819,-0.0586 3.35485,-0.13427 5.03024,-0.24503 1.26007,-0.0944 2.5168,-0.22509 3.77581,-0.33099 0.47249,-0.0421 0.94639,-0.0637 1.42027,-0.0839 1.06148,0.0554 2.12424,0.0875 3.18629,0.13298 1.61723,0.0744 3.23578,0.0601 4.85359,0.0209 1.69282,-0.0722 3.38666,-0.0915 5.08081,-0.10097 1.08499,8.4e-4 2.16935,-0.0369 3.25342,-0.0763 1.62276,-0.049 3.24338,-0.13362 4.86304,-0.24099 0.68191,-0.0441 1.36321,-0.0973 2.04555,-0.13533 0.65009,-0.0322 1.30058,-0.0564 1.95094,-0.0826 0.94056,-0.0252 1.88031,-0.0967 2.82132,-0.10231 0.42679,0.0314 0.85681,0.0717 1.27893,0.14342 0.38065,0.0721 0.76755,0.0963 1.15222,0.13768 0.39849,0.047 0.79937,0.059 1.20032,0.0561 0.16779,-0.003 0.33554,-0.007 0.50321,-0.0133 0.0412,-10e-4 0.1654,-0.003 0.12405,-0.005 -0.0702,-0.003 -0.27981,-0.0105 -0.21059,0.001 0.0875,0.0146 0.17747,0.006 0.26619,0.008 -0.39088,-0.0203 -0.43898,-0.004 -0.92083,-0.1866 -0.15258,-0.0577 -0.28487,-0.15721 -0.42731,-0.23581 2.90818,2.1055 5.95705,-1.91118 3.04887,-4.01668 v 0 c -0.17786,-0.10425 -0.34238,-0.23414 -0.53357,-0.31276 -0.55742,-0.22925 -0.65698,-0.21032 -1.14932,-0.24812 0.0424,0.002 0.16993,0.009 0.12739,0.008 -0.29404,-0.006 -0.5862,-0.0167 -0.8801,10e-4 -0.19653,0.003 -0.39275,-0.002 -0.58799,-0.0264 -0.30319,-0.0326 -0.60799,-0.0484 -0.90786,-0.10558 -0.70658,-0.1059 -1.41933,-0.19343 -2.13474,-0.2053 -0.9941,0.0122 -1.98683,0.073 -2.98036,0.10632 -0.67793,0.0272 -1.356,0.0526 -2.03367,0.0859 -0.70015,0.0393 -1.39936,0.0927 -2.09909,0.13858 -1.56774,0.10388 -3.13633,0.18587 -4.70708,0.23291 -1.0303,0.0375 -2.06087,0.074 -3.09206,0.073 -1.72704,0.01 -3.45383,0.0293 -5.17954,0.10246 -1.50071,0.0368 -3.00206,0.0516 -4.50223,-0.0177 -1.21096,-0.0515 -2.42272,-0.10629 -3.63417,-0.13293 -0.54579,0.023 -1.09155,0.049 -1.63573,0.0976 -1.22771,0.10349 -2.45334,0.22973 -3.68187,0.32393 -1.63102,0.10793 -3.26332,0.18037 -4.89703,0.23786 -1.23632,0.0502 -2.47261,0.10059 -3.70897,0.14922 -1.5699,0.0602 -3.13999,0.11946 -4.71084,0.15119 -1.6333,0.0264 -3.26675,0.0242 -4.90021,0.0274 -2.03568,-0.0172 -4.06836,-0.0958 -6.10205,-0.18288 -0.19887,-0.009 -1.56802,-0.0687 -1.81174,-0.084 -1.08429,-0.0682 -2.16221,-0.21343 -3.2475,-0.27035 -0.93948,-0.0695 -1.83978,-0.13029 -2.75171,-0.3808 -0.8741,-0.18378 -1.75158,-0.35192 -2.62946,-0.51695 -0.86718,-0.12571 -1.73854,-0.19896 -2.61607,-0.16547 -0.45254,0.0252 -0.90523,0.0566 -1.35298,0.12856 -0.38788,0.0656 -0.77731,0.12798 -1.15563,0.23753 -0.48427,0.16263 -1.44782,0.50542 -1.57257,0.9698 -0.81463,3.03259 -0.56515,2.70605 1.14213,3.97449 0.23953,0.0556 0.47593,0.12608 0.71859,0.16681 0.451,0.0757 0.91771,-0.0183 1.37,-0.0191 0.55901,-0.0339 1.11742,-0.077 1.6737,-0.14147 0.74003,-0.0785 1.48504,-0.087 2.22749,-0.13795 2.42836,-0.13944 4.85663,-0.28337 7.28238,-0.46145 1.23745,-0.10578 2.478,-0.18947 3.7199,-0.22257 1.44175,-0.044 2.88377,-0.0939 4.32642,-0.093 0.88753,-0.0337 1.77524,-0.0645 2.66338,-0.0783 0.36989,-0.003 0.74003,-0.008 1.10971,0.008 0.20486,0.009 0.29948,0.0211 0.50762,0.0407 0.004,1.9e-4 3.6e-4,-0.007 5.2e-4,-0.0111 0.6696,0.12597 1.34405,0.21358 2.0253,0.25274 0.83061,0.0548 1.65941,0.13745 2.49269,0.14527 1.19156,0.0196 2.3816,0.0851 3.57292,0.11329 1.31267,0.0513 2.62536,0.11547 3.93861,0.14179 0.8754,-0.01 1.74926,-0.07 2.62307,-0.11985 1.33509,-0.0862 2.66971,-0.18609 4.00714,-0.23144 1.11631,-0.0444 2.23286,-0.0849 3.34865,-0.14087 1.08622,-0.0642 2.17037,-0.15657 3.25377,-0.25549 2.06079,-0.18939 4.12124,-0.38322 6.1855,-0.53354 1.61987,-0.1345 3.23919,-0.27519 4.86151,-0.37948 1.93772,-0.1449 3.87634,-0.27975 5.81208,-0.44758 2.60674,-0.24117 5.21426,-0.47563 7.82495,-0.67251 1.14045,-0.0861 2.30369,-0.13942 3.40457,-0.46995 0.13753,-0.0485 0.28024,-0.0847 0.41257,-0.14551 0.28627,-0.13143 1.21523,-0.63923 1.19984,-0.95083 -0.12531,-2.53803 0.0162,-3.76949 -2.07582,-3.94194 -0.20597,-0.004 -0.41134,-8.5e-4 -0.61728,-6.6e-4 -0.34017,-0.0101 -0.67881,-0.0441 -1.01863,-0.0614 -0.0252,2e-5 -0.0506,-9.7e-4 -0.0758,5e-5 -0.006,1.1e-4 -0.0234,-1e-5 -0.0178,0.002 0.0179,0.006 0.0748,0.0113 0.0557,0.0121 -0.1812,0.007 -0.40201,-0.14642 -0.5774,-0.0856 -0.36757,-0.0228 -0.73522,-0.0679 -1.10425,-0.038 -0.36696,0.0145 -0.73391,0.029 -1.10087,0.0433 -0.38793,0.015 -0.77594,0.0292 -1.16322,0.0559 -0.70932,0.0534 -1.41567,0.13608 -2.12213,0.2175 -1.54171,0.17323 -3.08727,0.31544 -4.63497,0.42668 -0.85659,0.0589 -1.71475,0.0852 -2.57276,0.11793 -0.8348,0.0296 -1.66988,0.0652 -2.50536,0.0639 -0.64232,-0.008 -1.28518,-0.0317 -1.92679,0.0128 -0.63603,0.0306 -1.27266,0.0603 -1.90534,0.13429 -0.92086,0.10504 -1.84231,0.20279 -2.76912,0.24383 -1.30056,0.0752 -2.603,0.11285 -3.90448,0.17037 -0.89583,0.0364 -1.79163,0.0752 -2.68787,0.10024 -0.90882,0.0175 -1.81771,9.5e-4 -2.7266,-3.9e-4 -2.22285,-0.004 -4.4453,0.038 -6.66807,0.0549 -2.09794,0.0418 -4.19557,0.045 -6.29383,0.0267 -0.72186,0.0112 -1.44285,0.0366 -2.16402,0.0695 -1.16887,0.0463 -2.3378,0.0912 -3.50697,0.13003 -0.71985,0.021 -1.4403,0.0476 -2.16032,0.0176 -0.39309,-0.002 -0.78532,0.0167 -1.17845,0.0145 -0.76259,-0.0184 -1.52067,-0.10458 -2.27877,-0.18248 -1.90271,-0.17919 -3.80336,-0.38259 -5.71189,-0.49652 -1.07528,-0.0896 -2.14524,-0.23212 -3.2237,-0.28653 -1.4878,-0.074 -2.98106,-0.13174 -4.45296,-0.37276 -0.40122,-0.0689 -0.58599,-0.0936 -0.95992,-0.18008 -0.43377,-0.10033 -0.85296,-0.25207 -1.28456,-0.36015 -0.37367,-0.0718 -0.72543,-0.23839 -1.09754,-0.31867 -0.41765,-0.17141 -0.82169,-0.37375 -1.24782,-0.52492 -0.37448,-0.12521 -0.7542,-0.23772 -1.13566,-0.33634 0.32733,0.16729 0.81487,0.38745 0.93984,0.73089 0.84583,2.32471 0.60234,2.12543 -0.82389,3.66137 -0.0412,0.0446 -0.0955,0.0542 -0.14888,0.0645 0.0864,-0.0374 0.0136,-0.004 -0.1418,0.0267 -0.0176,0.004 -0.0711,0.008 -0.0536,0.005 0.16559,-0.0273 0.3327,-0.0465 0.49741,-0.0792 0.53507,-0.09 1.07805,-0.12499 1.61428,-0.2091 0.50678,-0.0702 1.01596,-0.1294 1.52466,-0.18323 0.85238,-0.0784 1.70484,-0.15183 2.56167,-0.16372 0.93634,-0.0357 1.87325,-0.0814 2.81041,-0.0802 0.41456,0.0133 0.82787,0.0484 1.24252,0.0583 0.60669,0.0405 1.21293,0.0868 1.81974,0.1263 1.43649,0.11185 2.8724,0.23035 4.30864,0.34453 2.7749,0.21274 5.55651,0.36003 8.33955,0.41213 0.5316,0.01 1.06307,0.0267 1.59473,0.03 1.544,0.01 3.08747,-0.0682 4.62084,-0.24575 2.47369,-0.25231 4.94713,-0.51327 7.42813,-0.68857 1.51031,-0.0997 3.0193,-0.22089 4.53275,-0.26473 1.13371,-0.0466 2.26739,-0.0933 3.40126,-0.13598 2.9499,-0.1098 5.90026,-0.21011 8.85159,-0.27532 2.94891,-0.0571 5.89802,-0.073 8.84747,-0.0777 1.88645,-0.015 3.77684,-0.009 5.65302,0.21074 1.6503,0.13927 3.30574,0.18839 4.9616,0.22235 1.16121,-0.007 2.3427,0.004 3.47254,-0.29577 0.26564,-0.0697 0.5306,-0.13846 0.78974,-0.22942 0.0142,-0.005 -0.20837,0.0442 -0.1192,0.0227 0.0441,-0.0108 0.0891,-0.0188 0.13366,-0.0282 -0.64602,-5.19196 0.98915,-5.01582 -1.4947,-4.91302 -1.32943,0.0545 -2.65888,0.10908 -3.98838,0.16163 -1.84608,0.0723 -3.6924,0.1397 -5.5397,0.17537 -2.81895,0.0556 -5.63802,0.0632 -8.45745,0.0657 -3.44333,0.0656 -6.88607,0.17735 -10.33079,0.1519 -6.90339,1.7e-4 -13.80629,-0.0695 -20.70953,-0.10509 -4.29455,-0.0304 -8.58754,-0.14921 -12.88235,-0.15197 -4.19447,-0.0185 -8.3945,0.0175 -12.58713,-0.12849 -1.1659,-0.0406 -1.45826,-0.0709 -2.46164,-0.14903 -3.60849,-0.28304 -4.01835,4.70091 -0.40985,4.98395 z"
       inkscape:export-filename="sketch-yllw.svg"
       inkscape:export-xdpi="96"
       inkscape:export-ydpi="96" />
  </g>
</svg>
