<?xml version="1.0" encoding="UTF-8" standalone="no"?>
<!-- Created with Inkscape (http://www.inkscape.org/) -->

<svg
   width="152.30927"
   height="147.79497"
   viewBox="0 0 152.30927 147.79497"
   version="1.1"
   id="svg5"
   xmlns="http://www.w3.org/2000/svg"
   xmlns:svg="http://www.w3.org/2000/svg">
  <defs
     id="defs2" />
  <g
     id="layer1"
     transform="translate(-244.03655,-328.7891)">
    <path
       id="path557"
       style="fill:#000000;stroke-width:9.67384;stroke-opacity:0"
       d="m 342.42563,328.79214 c -15.45648,-0.0348 -30.91324,0.22928 -46.36133,0.80469 -14.37848,0.5407 -28.77405,1.00292 -43.10742,2.30664 -8.00997,0.50385 -8.69309,10.01268 -3.10157,12.75781 -3.34935,1.78866 -4.80181,4.82706 -2.42968,11.85938 0.0865,0.25643 1.0662,0.27371 2.14258,0.22461 -0.35931,0.25168 -0.71503,0.50967 -1.0879,0.74414 -0.58236,0.38799 -3.58094,2.55755 -3.3125,3.25195 2.8668,7.41531 2.60204,9.37483 3.83204,9.91797 -3.07148,1.26477 -5.1547,2.77023 -3.14649,10.78516 0.36544,1.4585 -0.20072,39.31315 0.42774,51.4707 -0.74327,1.79976 -1.4161,2.98904 -1.96875,3.30273 0.061,-0.006 0.12878,-0.0125 0.16796,-0.0195 0.60068,-0.10859 1.21183,-0.16589 1.80665,-0.30664 0.0321,-0.003 0.12232,-0.18094 0.17578,-0.24804 0.0885,0.7467 0.18573,1.27857 0.30664,1.27929 0.39194,0.001 0.8425,-0.1749 1.32617,-0.44922 -0.86127,15.61926 -0.85691,21.77006 0.23437,21.89649 v 17.65039 h 10.81055 c 0.052,0.0379 0.0938,0.0773 0.14649,0.11523 1.02034,0.73378 2.50071,0.29623 3.75781,0.34375 0.64609,0.0245 1.29098,-0.0783 1.93555,-0.1289 1.30079,-0.10227 2.60024,-0.21982 3.90039,-0.33008 1.67061,-0.14918 3.40227,-0.35921 5.15429,-0.58789 1.17549,-0.11002 2.58471,-0.31063 4.20508,-0.59571 7.22727,-1.08007 14.74646,-2.44037 21.48438,-3.01953 4.07084,-0.3856 6.49199,1.07631 10.58007,0.98243 5.14502,-0.0823 10.28566,0.28546 15.41797,0.5996 3.20297,0.21191 6.40755,0.39641 9.61719,0.45704 2.97289,0.0575 5.93349,0.0982 8.89063,-0.23829 2.42889,-0.53715 4.8617,2.95697 7.30859,2.50391 4.96848,-0.75333 9.96375,-1.31202 14.9668,-1.77734 2.71966,-0.26833 5.45765,-0.31743 8.16601,-0.69336 0.7551,-0.12331 1.50268,-2.00704 2.23438,-3.40821 1.86897,3.39722 3.65445,6.44737 4.64648,6.3379 2.04159,-0.12175 4.00244,-0.31983 5.98438,-0.84961 1.23505,-0.38401 4.41739,1.16871 5.58398,0.61132 0.47187,-0.34479 0.98734,-0.63821 1.41602,-1.03515 1.65039,-1.52828 0.78194,-5.7676 0.58398,-8.1211 -0.0968,-1.15105 -0.62815,-2.21982 -1.23047,-3.23437 0.56517,-0.0933 1.08536,-0.16248 1.82617,-0.35156 0.21331,-0.0545 0.64178,0.0199 0.62891,-0.19922 -0.41176,-7.01483 -1.11314,-15.58778 -2.25781,-21.75586 0.67108,0.0977 1.27978,0.14192 1.71484,0.0488 -0.65441,-8.75052 -0.0591,-9.53922 -0.31836,-14.80274 -0.0115,-0.23446 -0.79187,-0.4331 -1.76172,-0.61133 0.94446,-0.14318 1.78197,-0.31329 2.20703,-0.57812 -0.26801,-3.04982 -0.0863,-6.60918 -0.39062,-11.07813 0.0131,-5.8981 0.18852,-11.23542 -0.34375,-15.08789 0.99151,-0.74674 0.55174,-4.40759 0.67187,-5.79687 0.10717,-1.23919 -1.23968,-0.31296 -1.55078,-1.28516 0.38559,-0.0768 0.77669,-0.13155 1.1543,-0.23828 0.53895,-0.15236 -0.83856,-5.19727 -0.32227,-5.41406 1.12284,-2.61011 0.67621,-8.7765 0.50196,-11.61133 -0.18651,-3.03417 0.47473,-4.94342 -0.42774,-5.83008 0.0904,-0.0665 0.17802,-0.13647 0.26953,-0.20117 -0.2016,-3.32573 0.70119,-8.43117 -0.18164,-11.64453 -10e-4,-0.005 -0.008,-0.005 -0.01,-0.01 0.98504,-1.58645 -0.0771,-3.10768 0.0723,-5.30468 0.25779,-3.79149 0.8951,-6.46307 0.45118,-8.1836 0.0623,-0.0215 0.1272,-0.0348 0.18945,-0.0566 -0.10335,-0.84241 -0.20462,-1.49931 -0.24024,-2.75195 -0.21835,-7.67853 -0.62098,-10.65268 -6.02343,-10.75195 -0.7927,-0.0236 -1.58525,-0.0746 -2.37305,-0.16797 -2.32037,-0.26941 1.26935,0.14865 -1.22461,-0.14844 -0.0795,-0.009 -0.15879,-0.0178 -0.23828,-0.0273 -1.1352,-0.50288 -2.346,-0.63939 -3.56836,-0.67579 -6.1527,-0.22483 -18.30697,-0.40014 -24.46289,-0.50976 -5.15206,-0.0777 -10.30487,-0.12315 -15.45703,-0.13477 z m -98.11328,107.42578 c -0.163,0.0157 -0.33822,0.0328 -0.25391,0.0977 0.0499,0.0383 0.12219,-0.0287 0.18359,-0.043 0.0222,-0.01 0.0477,-0.0419 0.0703,-0.0547 z m 146.42187,-19.50586 c 0.14649,-2e-5 0.29297,-2e-5 0.43945,0 -0.19035,0.0197 -0.34562,0.0569 -0.49218,0.0996 0.0173,-0.0303 0.0351,-0.0672 0.0527,-0.0996 z m 4.18555,46.96485 c -0.30936,-0.0183 -0.76244,0.17907 -1.07617,0.19726 -0.0244,-0.0406 -0.0456,-0.0827 -0.0703,-0.12304 0.15814,-0.005 0.3165,0.003 0.47461,-0.004 0.22378,-0.0229 0.89643,-0.0571 0.67188,-0.0703 z" />
  </g>
</svg>
