<?xml version="1.0" encoding="UTF-8" standalone="no"?>
<!-- Created with Inkscape (http://www.inkscape.org/) -->

<svg
   width="164.96716"
   height="53.514801"
   viewBox="0 0 164.96716 53.5148"
   version="1.1"
   id="svg5"
   xmlns:xlink="http://www.w3.org/1999/xlink"
   xmlns="http://www.w3.org/2000/svg"
   xmlns:svg="http://www.w3.org/2000/svg">
  <defs
     id="defs2">
    <linearGradient
       id="linearGradient2269">
      <stop
         style="stop-color:#62e1f9;stop-opacity:1;"
         offset="0"
         id="stop2267" />
      <stop
         style="stop-color:#e26af1;stop-opacity:1;"
         offset="0.125"
         id="stop2265" />
      <stop
         style="stop-color:#38d1ed;stop-opacity:1;"
         offset="0.45493865"
         id="stop2263" />
      <stop
         style="stop-color:#e2ceae;stop-opacity:1;"
         offset="0.70641452"
         id="stop2261" />
      <stop
         style="stop-color:#e2cc45;stop-opacity:1;"
         offset="1"
         id="stop2259" />
    </linearGradient>
    <linearGradient
       id="linearGradient1913">
      <stop
         style="stop-color:#e2cc45;stop-opacity:1;"
         offset="0"
         id="stop1909" />
      <stop
         style="stop-color:#e2ceae;stop-opacity:1;"
         offset="0.29358548"
         id="stop1917" />
      <stop
         style="stop-color:#38d1ed;stop-opacity:1;"
         offset="0.54506135"
         id="stop1919" />
      <stop
         style="stop-color:#e26af1;stop-opacity:1;"
         offset="0.875"
         id="stop1921" />
      <stop
         style="stop-color:#62e1f9;stop-opacity:1;"
         offset="1"
         id="stop1911" />
    </linearGradient>
    <linearGradient
       xlink:href="#linearGradient1913"
       id="linearGradient1915"
       x1="63.267735"
       y1="397.12726"
       x2="215.54514"
       y2="397.12726"
       gradientUnits="userSpaceOnUse"
       gradientTransform="matrix(1,0,0,1.4514686,3.774554,-178.14356)" />
    <linearGradient
       xlink:href="#linearGradient2269"
       id="linearGradient2257"
       x1="72.92009"
       y1="396.18326"
       x2="193.73131"
       y2="396.18326"
       gradientUnits="userSpaceOnUse"
       gradientTransform="translate(20.261355,3.50923)" />
    <linearGradient
       xlink:href="#linearGradient2269"
       id="linearGradient3826"
       gradientUnits="userSpaceOnUse"
       x1="62.545944"
       y1="400.01462"
       x2="210.13858"
       y2="400.01462"
       gradientTransform="matrix(0.78349138,0,0,1.0782213,5.3488981,-31.818537)" />
  </defs>
  <g
     id="layer1"
     transform="translate(-54.3515,-372.20755)">
    <path
       style="fill:url(#linearGradient1915);fill-opacity:1;stroke-width:10.7491;stroke-opacity:0"
       id="path1884"
       d="m 71.03708,379.64668 c -0.28408,1.32381 -0.38696,2.70345 -0.69121,4.01885 -0.41207,1.75869 -0.81131,3.52365 -1.26166,5.2684 -0.53557,1.94849 -0.75537,3.98099 -0.86712,6.02243 -0.054,1.21713 -0.0545,2.43639 -0.0517,3.65489 -0.0547,1.5172 0.0964,3.00526 0.33615,4.48994 0.0471,0.21868 0.0938,0.4375 0.1414,0.65602 0.14557,0.66804 0.0885,0.38635 0.37673,1.42354 0.0106,0.0382 0.0428,0.15263 0.0312,0.11482 -0.0306,-0.0994 -0.10948,-0.40325 -0.0882,-0.30017 0.0483,0.23356 0.11285,0.46166 0.16928,0.6925 0.0737,0.30717 0.0426,0.18541 0.0577,0.55089 0.15329,1.38614 0.20141,1.49145 0.35409,2.48555 0.0155,0.10088 -0.036,-0.20053 -0.0539,-0.3008 0.0675,0.36713 0.0969,0.74797 0.2025,1.1014 0.70709,2.36552 1.69103,4.76082 4.00064,5.60916 1.82136,0.66901 3.83003,0.25408 5.70427,-0.14036 0.88149,-0.1855 2.01612,-1.73803 2.66423,-2.53879 1.15824,-1.48996 1.98869,-3.29153 2.74665,-5.10891 0.49216,-1.29446 1.07608,-2.53046 1.64593,-3.77478 0.67914,-1.49052 1.30478,-3.01509 1.97323,-4.51279 0.65253,-1.40203 1.21939,-2.85933 1.71135,-4.35514 0.36258,-1.05613 0.56665,-2.16919 0.76506,-3.28279 0.003,-0.0177 0.002,0.0369 -0.001,0.0546 -0.0324,0.16612 -0.0705,0.33047 -0.10582,0.4957 0.29605,-0.74932 0.63263,-1.8113 0.89901,-2.8309 0.20318,-0.63931 0.0634,-0.19087 0.35799,-0.99701 0.17053,-0.55163 0.27064,-0.91704 0.4289,-1.40208 0.0196,-0.0599 -0.0321,0.12338 -0.0542,0.18205 -0.0809,0.21438 -0.1234,0.46304 -0.25469,0.63623 -0.82363,1.08631 -1.72717,2.07784 -2.59075,3.11677 -2.30669,-0.12018 -4.6948,0.39166 -6.92007,-0.36053 -1.34361,-0.45418 -2.13993,-2.76136 -2.6138,-4.22643 -0.0469,-0.14515 -0.10136,-0.60859 -0.0973,-0.45267 0.008,0.31503 0.0996,0.61857 0.14279,0.92932 0.24394,1.17152 0.29105,2.38158 0.34437,3.58317 0.0433,1.1238 0.0537,2.24884 0.0567,3.3737 4.2e-4,0.96089 -0.002,1.92179 -0.003,2.88271 -8e-4,0.94545 -0.001,1.89093 -0.001,2.83641 -0.002,-0.0954 -0.005,-0.19059 -0.007,-0.28589 -0.005,-0.0145 -0.0122,-0.0549 -0.0146,-0.0405 -0.15573,0.93887 -0.29261,1.88661 -0.43425,2.82912 -0.19638,1.29484 -0.31807,2.60268 -0.3747,3.91707 -0.18881,7.00444 0.59629,1.86979 13.28414,4.20118 0.26977,-1.085 0.53094,-2.15923 0.87331,-3.21389 0.45995,-1.3488 0.8467,-2.73472 1.306,-4.08322 0.38207,-1.0385 0.65374,-2.1487 0.97566,-3.20212 0.23628,-0.80604 0.50422,-1.59384 0.77895,-2.38041 0.2731,-0.85687 0.66758,-1.63558 1.00662,-2.45411 0.0159,-0.0322 0.0618,-0.13005 0.0476,-0.0968 -0.0482,0.11263 -0.11372,0.21547 -0.14945,0.33488 -0.0225,0.0753 0.0747,-0.13194 0.10915,-0.2002 0.29269,-0.57921 0.5288,-1.11087 0.78136,-1.71841 0.38646,-1.29918 0.55304,-1.59138 0.77517,-2.73921 0.0344,-0.17752 -0.0856,0.3495 -0.12846,0.52425 0.25119,-0.8472 0.26352,-0.85207 0.51763,-1.7688 0.0322,-0.11626 -0.063,0.23306 -0.0946,0.34959 -0.19905,0.56736 0.24985,-0.75644 0.18729,-0.5674 -0.0442,0.13368 -0.12101,0.25683 -0.13475,0.40004 -0.0171,0.17791 0.15925,-0.30092 0.23351,-0.45534 0.14565,-0.30289 0.28488,-0.61031 0.42732,-0.91545 0.038,-0.0746 0.076,-0.14932 0.11399,-0.22398 0.007,-0.007 0.027,-0.0283 0.0209,-0.0205 -2.11965,2.73095 -2.44435,3.91498 -6.76427,3.39868 -2.53017,-0.30237 -3.23586,-1.99067 -4.37193,-3.9311 -0.13858,-0.23547 -0.15797,-0.45394 -0.12083,0.0781 0.047,0.67289 0.0276,0.36377 0.0649,1.08927 0.0774,1.70735 0.20306,3.41063 0.282,5.11818 0.0415,0.96982 0.0598,1.94072 0.0656,2.91172 -0.008,0.48992 0.0154,0.98134 10e-4,1.47111 -0.01,0.33106 0.0314,-0.38004 -0.0803,0.25723 0.0115,-0.0923 0.0818,-0.34992 0.0344,-0.27675 -0.0947,0.14617 -0.0872,0.358 -0.14549,0.53032 -0.10339,0.30585 -0.21994,0.60531 -0.33335,0.90563 -0.61065,1.71606 -1.05443,3.5127 -1.43113,5.3237 -0.27952,1.54533 -0.45386,3.11996 -0.39976,4.70574 0.0123,0.36075 0.005,0.72951 0.0798,1.07882 0.21827,1.01922 0.53021,2.00499 0.79531,3.00746 3.05349,1.17806 5.96208,3.34951 9.16047,3.53415 1.52459,0.088 3.21376,-3.91638 3.86987,-5.60605 0.25428,-0.61097 0.53729,-1.22263 0.80546,-1.83319 0.65215,-1.5592 1.07963,-3.22862 1.6122,-4.84767 0.56729,-1.64311 1.00941,-3.35124 1.39403,-5.07056 0.29459,-0.85982 0.51326,-1.81071 0.73522,-2.72275 0.11091,-0.31609 0.20493,-0.70585 0.2904,-1.03055 0.0322,-0.12221 -0.0581,0.24733 -0.0971,0.36659 -0.0631,0.19284 -0.15382,0.37191 -0.20891,0.56841 -0.0286,0.10218 0.0859,-0.18851 0.12884,-0.28277 0.40399,-1.06434 0.87846,-2.07687 1.33712,-3.10583 0.5361,-1.10228 0.95832,-2.27598 1.35801,-3.45895 -0.0454,0.13179 -0.0794,0.27053 -0.13618,0.39569 -0.16029,0.35351 -0.33943,0.69379 -0.51357,1.03737 -0.0217,0.0428 -0.0988,0.16134 -0.0737,0.1212 0.14848,-0.23693 0.29741,-0.47343 0.44398,-0.71212 0.0445,-0.0726 0.17584,-0.29191 0.12922,-0.22139 -0.13367,0.20218 -0.26038,0.41114 -0.39058,0.61671 -0.1471,0.17886 -0.59665,0.70477 -0.44133,0.53659 0.73406,-0.79486 0.66482,-0.76141 1.22293,-1.48839 0.24762,-0.32255 0.88269,-0.9261 -0.58221,0.57307 -1.20686,0.45181 -2.36799,1.16527 -3.62054,1.35548 -1.45398,0.22081 -3.55552,-1.26791 -4.04958,-1.93742 -0.007,-0.0411 0.0147,0.10625 8.4e-4,0.0839 -0.0341,-0.0546 -0.0883,-0.2463 -0.0855,-0.17768 0.005,0.12236 0.0653,0.23198 0.0925,0.34996 0.0604,0.2617 0.10778,0.52767 0.16673,0.78987 0.13987,0.71291 0.17463,1.44319 0.20133,2.17257 0.0296,1.05256 0.0271,2.1059 0.0263,3.15892 -0.001,1.11144 -0.004,2.22292 -0.005,3.33438 -7.7e-4,1.13408 -8e-4,2.26813 -8.4e-4,3.40222 -10e-6,0.23275 -10e-6,0.4655 -10e-6,0.69822 0,0.47858 0.007,0.95723 10e-6,1.43574 -10e-4,0.0824 -0.0174,0.329 -0.0135,0.24672 0.0357,-0.75638 0.004,-0.43916 0.0969,-1.07187 0.0858,-0.32169 0.17157,-0.64339 0.25735,-0.96511 7.7e-4,-0.006 2e-4,-0.0131 0.002,-0.0177 2.30039,-5.90513 6.82365,0.009 12.74162,3.14851 0.42943,0.22789 -0.0239,1.14422 -0.036,1.71633 0.15442,-0.93197 0.23583,-1.87626 0.40831,-2.80424 0.1518,-0.76322 0.24652,-1.53948 0.3486,-2.31399 0.0439,-0.33259 0.0739,-0.68143 0.18371,-0.99401 0.29753,-1.12979 0.51743,-2.28724 0.78481,-3.42728 -3.8e-4,0.0213 -0.0184,0.0674 -9.7e-4,0.064 0.0222,-0.004 0.0249,-0.046 0.035,-0.0704 0.0425,-0.10219 0.08,-0.20735 0.12285,-0.30925 0.19939,-0.47411 0.40291,-0.94622 0.60634,-1.41788 0.5442,-1.04046 1.03299,-2.12224 1.4991,-3.21772 0.34633,-0.75002 0.57347,-1.59164 0.99662,-2.28647 0.64388,-1.14412 1.19918,-2.33517 1.6685,-3.59977 -0.005,0.0196 -0.0213,0.0774 -0.0142,0.0589 0.20756,-0.5487 0.21971,-0.62505 0.42172,-1.26811 0.0165,-0.0523 0.066,-0.20879 0.0491,-0.1568 -0.54518,1.67122 0.1508,-0.0366 -2.26871,3.55739 -2.96264,-0.35975 -5.9664,-0.37853 -8.88794,-1.07923 -0.41172,-0.0987 -0.43284,-0.90149 -0.75298,-1.23303 -0.14559,-0.15077 0.13395,0.43686 0.19684,0.65708 0.47887,1.67698 0.88761,3.37822 1.30662,5.0786 0.61754,2.4363 1.2179,4.88435 1.67195,7.37526 0.3183,1.87823 0.68355,3.73914 1.14154,5.57425 0.25452,1.03076 0.46787,2.07017 0.75359,3.09065 -0.18438,-0.53839 -0.12516,-0.9626 -0.15044,-1.61894 1.08708,-7.33363 -0.2802,-2.03289 13.36152,-1.58098 0.002,7e-5 -0.0206,-0.16129 -0.0326,-0.28582 -0.0252,-0.2608 -0.039,-0.51101 -0.0566,-0.77454 -0.0402,-1.10583 -0.152,-2.22324 -0.0792,-3.33001 0.0365,-0.67425 0.10707,-1.35621 0.21456,-2.02007 0.003,-0.0167 0.012,0.0615 0.0182,0.0462 0.0384,-0.0961 0.0565,-0.20227 0.0848,-0.30342 0.51032,-1.71762 0.91062,-3.4769 1.28678,-5.24417 0.32904,-1.22785 0.57203,-2.4823 0.74188,-3.75659 0.14593,-1.29873 -0.02,0.0367 0.16197,-1.35027 0.0258,-0.19756 -0.0472,0.39613 -0.0793,0.5923 0.22928,-0.72537 0.4304,-1.3216 0.66963,-2.11454 -1.26766,4.96411 -9.04169,1.6254 -11.70813,1.72909 -0.17554,0.007 -0.15438,-0.40367 -0.29329,-0.53503 -0.0921,-0.0871 0.0905,0.26243 0.14078,0.39081 0.1317,0.33632 0.27006,0.66866 0.40509,1.00301 0.54107,1.3284 0.86196,2.76011 1.26845,4.15278 0.42611,1.63531 1.17668,3.11414 1.63488,4.73131 0.52711,1.88951 0.87944,3.84138 1.30075,5.76851 0.64882,2.81706 1.41347,5.58867 2.28936,8.31153 0.3219,1.02759 0.14039,0.46471 0.51867,1.59479 0.0611,0.18274 0.1931,0.74546 0.18327,0.54838 -0.0789,-1.58348 -0.76113,-3.21428 -0.39177,-4.73507 1.28796,-5.30297 2.87327,-4.85224 6.33498,-6.08088 1.82056,0.3362 2.91087,0.61197 4.02605,2.36312 0.39556,0.62117 0.47071,1.12621 0.72075,1.92272 0.10428,0.56311 0.077,0.33441 0.12145,0.84861 0.006,0.062 9.7e-4,0.24674 0.0145,0.18646 0.0516,-0.23481 0.0664,-0.47947 0.10258,-0.71852 0.34465,-2.27374 -0.1838,1.39891 0.32969,-2.23052 0.34412,-2.69231 0.6429,-5.39132 0.93147,-8.09301 0.19254,-1.39252 0.51738,-2.75313 0.8274,-4.11239 0.12717,-0.48355 0.19774,-0.98501 0.30746,-1.47398 0.0118,-0.0521 -0.0421,0.1922 -0.005,0.16229 0.0412,-0.0334 0.0497,-0.10436 0.0715,-0.1585 0.0801,-0.19824 0.1561,-0.39885 0.23415,-0.59828 0.0827,-0.21028 0.15874,-0.42464 0.2481,-0.63079 0.16911,-0.39015 0.42137,-0.80871 0.59517,-1.19867 0.38998,-0.87502 0.3569,-0.83791 0.70248,-1.78744 0.11939,-0.43393 0.23879,-0.86786 0.35818,-1.30178 0.0703,-0.37023 0.14065,-0.74047 0.21098,-1.11069 -9.7e-4,0.021 -0.009,0.0833 -0.004,0.0631 0.0252,-0.0955 0.0892,-0.38572 0.0635,-0.29053 -0.23354,0.86516 -0.22063,0.8175 -0.12076,0.5369 0.28105,-0.85093 0.47409,-1.73861 0.60261,-2.64149 0.0332,-0.23309 0.12868,-0.47181 0.0846,-0.7022 -0.0419,-0.21919 -0.0394,0.45007 -0.0916,0.66593 -0.12073,0.49976 -0.28363,0.98281 -0.42543,1.47419 -1.3757,2.68472 -1.61426,3.66803 -5.67522,4.44024 -1.3483,0.25639 -2.65509,-0.80365 -3.93222,-1.39098 -0.31274,-0.14384 -0.52219,-0.50993 -0.77671,-0.77455 -0.0665,-0.0691 -0.22453,-0.32159 -0.18569,-0.22597 0.0671,0.16502 0.18194,0.2938 0.27291,0.4407 0.44077,0.87748 0.7639,1.81979 1.05845,2.78199 0.42,1.37827 0.65608,2.82133 0.93431,4.24795 0.17,0.81001 0.27181,1.63594 0.31089,2.46973 0.0262,0.83031 0.0207,1.66154 0.0197,2.49229 -0.002,1.05245 -0.004,2.10488 -0.005,3.15732 -0.0246,1.15974 0.0166,2.31342 0.14417,3.46373 0.12852,1.12142 0.37971,2.21651 0.63345,3.30332 0.0377,0.13789 0.0758,0.27564 0.11318,0.41363 0.0164,0.0607 -0.045,-0.11815 -0.0502,-0.18178 -0.0893,-1.08231 -1.08906,-2.95432 -0.23292,-3.25093 28.33071,-9.81548 11.72827,-6.26971 13.41232,-0.77269 -0.0307,-0.66564 0.0286,0.61664 0.0273,0.69874 -0.004,0.25424 -0.0524,0.50505 -0.0627,0.75904 -5.8e-4,0.0147 0.025,0.0357 0.0309,0.0228 0.14155,-0.31047 0.24596,-0.64429 0.37744,-0.96131 0.64981,-1.8131 1.23321,-3.66384 1.77523,-5.52887 0.38198,-1.08016 0.74302,-2.17083 1.09888,-3.26418 0.6297,-1.90681 0.88283,-3.9273 1.0281,-5.96269 0.0645,-1.22305 0.0904,-2.44856 0.10369,-3.67383 0.007,-0.63373 -0.0644,-0.81506 0.019,-0.58635 0.0624,0.4973 -0.18055,0.9272 -0.23479,1.39342 -0.014,0.12077 0.0876,-0.21911 0.12889,-0.33007 0.28408,-0.76332 0.2272,-0.62274 0.49735,-1.47394 -0.007,0.0296 -0.0309,0.11684 -0.0204,0.0887 0.12097,-0.32013 0.25407,-0.77357 0.34872,-1.08092 0.0174,-0.0569 0.0716,-0.22663 0.0516,-0.17101 -1.14541,3.17969 0.47888,0.11002 -5.39842,5.24926 -1.6303,-0.51029 -3.31302,-0.81536 -4.89078,-1.53086 -0.42848,-0.19431 -0.67305,-0.75608 -1.00343,-1.14207 -0.055,-0.0642 -0.16224,-0.2995 -0.15179,-0.20758 0.0172,0.15165 0.12572,0.26578 0.17443,0.40682 0.14883,0.43085 0.22994,0.89216 0.34833,1.3369 0.55484,2.63802 1.23174,5.23921 1.69523,7.90476 0.16837,1.34782 0.19118,2.71448 0.28631,4.07238 0.0902,1.49235 0.40508,2.93119 0.70825,4.37238 -0.21938,-1.3047 -0.0312,0.40616 0.009,0.88037 1.06248,7.59959 3.28722,2.84376 13.78029,0.3048 0.25181,-0.061 0.011,-0.62741 0.0165,-0.94112 0.0407,0.21647 -0.0231,0.4335 -0.0101,0.64942 9.8e-4,0.0242 0.0221,-0.0411 0.0277,-0.0643 0.0656,-0.273 0.12258,-0.54886 0.1852,-0.82287 0.26938,-1.17869 0.27781,-1.20113 0.56508,-2.40626 0.41408,-1.83564 1.00938,-3.59427 1.53818,-5.3818 0.40396,-1.36769 0.75147,-2.75431 1.0607,-4.15811 -0.11341,0.75456 0.15691,-0.84053 0.18275,-0.62237 0.0119,0.1 -0.0401,0.19634 -0.0573,0.29527 -0.008,0.0446 -0.0448,0.16563 -0.0177,0.13455 0.26068,-0.29897 0.43524,-0.69334 0.65011,-1.04255 0.76533,-1.06633 1.42652,-2.22919 2.01641,-3.44815 0.74329,-1.50385 1.0222,-3.07505 1.14816,-4.84668 0.0318,-0.4477 -0.0448,-0.89708 -0.0672,-1.34563 -0.83351,-7.01897 -1.28051,0.83841 -10.18546,7.3487 -0.43333,0.31679 -0.81116,-0.73524 -1.21673,-1.10286 -0.0128,0.006 -0.044,0.004 -0.0385,0.0193 0.10388,0.29848 0.25908,0.56723 0.36639,0.8639 0.2074,0.57337 0.33675,1.16442 0.47981,1.7654 0.24347,1.18741 0.39068,2.40107 0.44761,3.62242 0.0318,0.86131 0.0253,1.72382 0.0215,2.58572 0.0234,1.15825 0.17694,2.30005 0.22592,3.45565 0.0233,1.18138 0.0376,2.35865 0.10382,3.53777 0.1249,1.48948 0.58286,2.88526 1.01926,4.23441 0.34635,1.26014 0.76107,2.51563 1.44938,3.56871 0.39932,0.61091 0.89108,1.12224 1.33662,1.68334 5.61851,2.22602 4.8907,3.54662 10.35813,-2.33978 0.66702,-0.71811 0.99921,-3.62867 1.25238,-4.96295 0.43197,-1.98957 0.95861,-3.93837 1.50482,-5.88394 0.4948,-1.59566 0.92932,-3.21778 1.40534,-4.82162 0.34469,-1.30406 0.72846,-2.58083 1.19135,-3.82859 0.56032,-1.6022 1.02045,-3.25759 1.38909,-4.94039 0.2596,-1.51208 0.2858,-1.86358 0.42805,-2.88521 0.1,-1.01509 0.16653,-1.73535 0.27518,-2.62931 -0.60195,4.59139 -3.13325,6.0391 -6.29575,6.5657 -0.58911,0.098 -1.18906,-0.145 -1.76189,-0.33974 -0.77716,-0.26411 -1.11087,-0.62525 -1.69772,-1.14358 -0.19856,-0.24915 -0.35015,-0.9232 -0.59568,-0.74741 -0.2423,0.17345 0.20083,0.64142 0.28789,0.96775 0.1444,0.54115 0.27703,1.08695 0.40625,1.63382 0.66172,2.80064 1.18021,5.6303 1.69705,8.47518 0.83776,5.11848 1.65602,10.24037 2.53424,15.34885 0.12633,0.89529 0.32044,1.79043 0.3319,2.7043 -0.0602,-2.35174 0.75611,-5.49722 2.65117,-6.4941 2.34422,-1.23315 5.10523,-0.53246 7.6516,-0.32416 0.47952,0.0392 1.44857,1.63999 1.73263,2.06685 -0.37211,-0.77701 -0.61009,-1.61048 -0.75944,-2.48722 -0.13154,-0.90631 -0.14502,-1.82917 -0.15997,-2.74692 0.0148,-0.38798 -0.0699,-1.30496 0.13162,-1.67222 0.19146,-0.51687 0.31491,-1.08577 0.54152,-1.58456 0.0155,-0.0344 -0.0103,0.0775 -0.0155,0.11627 -0.0882,0.21568 -0.27714,0.40644 -0.26451,0.64706 0.008,0.14007 0.19408,-0.15033 0.28619,-0.23403 0.24211,-0.22005 0.47496,-0.455 0.71599,-0.67681 0.90825,-0.8358 1.85582,-1.59689 2.79182,-2.38491 1.40702,-1.28593 2.88513,-2.53159 4.04123,-4.17113 0.28375,-0.4024 0.52768,-0.84429 0.79153,-1.26642 0.95635,-1.89072 1.49813,-4.03315 2.05245,-6.13705 0.38158,-1.58527 0.73265,-3.20842 0.70074,-4.87833 -0.0119,-0.62061 -0.10539,-1.23487 -0.15809,-1.85229 -0.38347,-2.52602 -1.43798,-4.69144 -2.68934,-6.70545 -0.24321,-0.32349 -0.44734,-0.69852 -0.72963,-0.97051 -1.61727,-1.55826 -3.70585,-3.38735 -6.02255,-2.55852 -1.91855,0.68641 -3.54617,2.33505 -5.06782,3.91982 -0.60594,0.6311 -1.03241,2.84128 -1.26493,3.85603 -0.37584,1.97847 -0.37906,4.00954 -0.43296,6.02653 -0.0401,1.50022 -0.0942,2.99985 -0.13924,4.49985 -0.14987,3.76132 -0.36295,7.51817 -0.54049,11.27754 -0.089,1.45197 -0.10578,2.9037 0.10975,4.34353 0.16939,1.13162 0.32398,1.55342 0.62318,2.60003 0.32908,1.11011 0.87458,2.09916 1.21491,3.20203 0.51482,1.31105 0.60273,1.56409 1.17616,2.792 0.90623,1.57956 2.33396,4.36832 4.13772,3.9468 3.1275,-0.73085 5.87858,-3.18668 8.39471,-5.5721 0.0574,-0.0544 0.37909,-2.92826 0.50224,-3.80186 0.19428,-1.26883 0.78596,-2.33178 1.31464,-3.42192 0.64848,-1.36673 1.33102,-2.71232 2.03101,-4.04128 0.42188,-0.55142 0.74722,-1.1991 1.10148,-1.81379 0.0751,-0.13048 0.12495,-0.29544 0.23329,-0.38445 0.069,-0.0566 -0.0689,0.18515 -0.1034,0.27774 0.0524,0.004 0.11152,0.0447 0.15741,0.0131 0.37662,-0.25778 0.7229,-0.57684 1.08513,-0.86381 0.43746,-0.34655 0.87781,-0.68768 1.31393,-1.03672 0.47168,-0.37752 2.02735,-1.63032 2.49879,-2.08424 0.48149,-0.46361 0.92939,-0.97714 1.39409,-1.46569 1.78743,-2.68952 1.98309,-2.48135 2.72566,-6.60562 0.42721,-2.37273 -0.31321,-5.49471 -1.01658,-7.73584 -0.19601,-0.46859 -0.32257,-0.99145 -0.58803,-1.40583 -3.19831,-4.99241 -4.65963,-5.17704 -11.79071,-0.39396 -1.73326,1.16256 -1.10571,5.4074 -0.86081,7.41838 0.28882,2.15229 0.43796,4.32656 0.53878,6.50247 0.0535,1.04745 0.11545,2.09894 -0.11016,3.12177 -0.22749,1.37769 -0.44086,2.75985 -0.62887,4.14656 -0.11649,0.85258 -0.35409,1.65171 -0.55465,2.47678 -0.31076,1.02396 -0.51354,2.086 -0.66805,3.1594 -0.55755,5.31679 1.24744,8.09129 6.44243,10.30729 2.27019,0.96839 4.21293,-1.33705 5.71677,-2.80669 1.29063,-1.65967 2.22286,-3.64911 3.26903,-5.53098 1.11036,-1.98261 1.96952,-4.15306 2.68195,-6.3861 0.53039,-1.82045 0.7858,-3.72618 1.05829,-5.62153 0.22407,-1.57843 0.30968,-3.17889 0.35736,-4.77772 0.0216,-0.81001 0.0201,-1.62045 0.0189,-2.43076 -0.002,-0.84294 -0.003,-1.68587 -0.003,-2.52878 -1.8e-4,-0.3041 -2.9e-4,-0.6082 -3.5e-4,-0.91228 -2e-5,-0.0848 0.004,-0.33883 -4e-5,-0.25424 -0.009,0.20269 0.13409,0.5215 -0.0158,0.60865 -3.59019,2.08693 -7.30221,3.84507 -10.95332,5.76758 1.23967,1.34667 2.29937,2.88829 3.21794,4.57084 0.51397,0.88795 0.79223,1.86468 0.94022,2.92272 0.061,0.47467 0.0998,0.95376 0.11264,1.43405 0.002,0.0837 0.0103,0.33479 0.004,0.25138 -0.0101,-0.12599 -0.0101,-0.25301 -0.0138,-0.3795 -0.12501,0.993 -0.18175,1.99934 -0.2306,3.00214 4e-5,-0.0518 0.0372,-0.13049 1.1e-4,-0.15536 -2.3e-4,-1.6e-4 -0.0177,0.10711 -0.0588,0.42487 -0.0432,0.3331 -0.0792,0.66704 -0.11701,1.00105 -0.0171,0.19794 -0.0372,0.39552 -0.0513,0.59381 -0.12071,1.69948 0.16203,-1.0222 -0.009,-0.0391 -0.0239,0.13702 -0.0464,0.27456 -0.0696,0.41186 -0.0229,0.15577 -0.10404,0.61963 -0.0688,0.46733 0.0779,-0.33666 0.26264,-1.36202 0.19489,-1.02213 -0.11865,0.59532 -0.21788,1.19683 -0.3539,1.78659 -0.0647,0.28022 0.20716,-1.13569 0.13845,-0.85693 -0.56407,2.0549 0.89211,-3.08636 -0.22253,0.90075 -0.0658,0.23489 0.12032,-0.47424 0.17617,-0.71292 0.008,-0.0331 -0.0211,0.0636 -0.0317,0.0954 -0.0584,0.19856 -0.26896,0.77302 -0.17542,0.59567 0.49322,-0.93527 0.83193,-1.9923 1.38031,-2.8805 0.29288,-0.47437 1.53173,-1.45244 1.11027,-1.15619 -0.47622,0.33475 -0.45194,0.33573 -1.01494,0.79552 -1.62358,1.40342 -2.58097,3.45886 -3.30665,5.64997 -0.0117,0.0306 -0.0397,0.12483 -0.0351,0.0916 0.25817,-1.83652 3.36501,-4.51577 4.38521,-4.43733 2.47655,0.19045 4.85039,1.57478 7.00535,3.07877 0.66517,0.46423 0.67733,1.67965 1.016,2.5195 -0.11401,-1.07526 -0.24206,-2.14844 -0.35612,-3.22393 -0.0939,-0.89551 -0.12372,-1.7974 -0.1394,-2.69911 -0.0706,-1.15675 -0.18868,-2.30452 -0.23881,-3.46304 -0.0325,-0.95169 -0.0348,-1.90443 -0.0376,-2.85677 0.0634,-0.69739 -0.10077,-1.44997 0.0197,-2.13717 0.0656,-0.7088 0.092,-1.42309 0.15678,-2.13181 0.006,-0.0617 -0.0382,0.13948 -0.005,0.18619 0.0283,0.0398 0.0183,-0.10291 0.0273,-0.15457 0.054,-0.23672 -0.0576,0.36881 -0.0318,0.28005 0.16588,-0.56921 0.32733,-1.10947 0.50967,-1.67138 0.44006,-1.37055 0.71293,-2.81071 0.94775,-4.25144 0.13466,-0.81218 0.27573,-1.42109 0.43729,-2.19646 0.005,-0.0145 0.0191,-0.0579 0.0155,-0.0428 -0.0976,0.42606 -0.19019,0.76293 -0.38366,1.1747 -0.18885,0.40196 -0.40909,0.78119 -0.6314,1.1567 -0.0827,0.13978 -0.35297,0.53486 -0.28186,0.38592 0.51727,-1.08327 1.08267,-2.13112 1.624,-3.19667 -1.40356,-3.54257 -2.24149,-7.5134 -4.2107,-10.62768 -0.67293,-1.06423 -4.58109,-0.25093 -5.79734,-0.0938 -1.18217,0.15634 -2.36972,0.21878 -3.55785,0.24639 -1.46182,0.0229 -2.92383,0.0181 -4.38575,0.0171 -2.43503,-0.0409 -4.86677,0.006 -7.29856,0.15768 -1.52285,0.0938 -3.04537,0.12338 -4.56466,0.2887 -1.36292,0.12657 -2.72383,0.26305 -4.08221,0.45215 -1.73828,0.21641 -3.47855,0.39285 -5.21517,0.63182 -0.97538,0.10132 -1.93689,0.32613 -2.91426,0.39505 -1.89166,0.0823 -3.78268,0.10712 -5.67325,0.22977 -1.4603,0.10987 -2.92163,0.19258 -4.38438,0.22918 -2.18276,0.0301 -4.36579,0.0222 -6.54867,0.0224 -2.68995,-9.8e-4 -5.3799,-0.001 -8.06985,-0.003 -1.86574,-0.0313 -3.72665,-0.006 -5.58869,0.13847 -1.84861,0.14964 -3.69633,0.35081 -5.53802,0.59826 -1.41941,0.23407 -2.85025,0.32235 -4.27743,0.45586 -1.40326,0.12976 -2.80775,0.20638 -4.20616,0.40269 -0.86507,0.16524 -1.73965,0.16861 -2.61267,0.18698 -1.13963,0.0186 -2.27939,0.0202 -3.41912,0.0199 -0.92122,0.0309 -0.99411,-0.0177 -1.82752,-0.11612 -0.63686,-0.22334 -1.29668,-0.39445 -1.95125,-0.5517 -1.512,-0.34914 -3.04927,-0.47799 -4.57717,-0.68144 -2.52398,-0.32329 -5.06587,-0.31106 -7.60046,-0.33838 -2.29952,-0.0196 -4.59911,-0.0223 -6.89868,-0.0211 -1.04723,10e-4 -2.09446,0.003 -3.14169,0.004 -0.96009,0.009 -1.90682,0.21259 -2.86133,0.30521 -1.61216,0.13934 -3.2178,0.34622 -4.82042,0.60347 -2.75623,0.4965 -5.49502,1.12443 -8.21507,1.85911 -1.65322,0.4613 -3.27537,1.11059 -4.78148,2.07326 -0.46817,0.29925 -0.92244,0.6299 -1.38367,0.94486 -2.47861,2.0254 -4.90244,4.27092 -6.91123,6.98669 -0.31103,0.42049 -0.59554,0.86923 -0.89331,1.30381 -0.34364,0.6981 -0.79164,1.33386 -1.03091,2.09427 -1.14491,3.63871 -1.01868,6.61254 0.82286,9.84187 0.78614,1.37856 1.45116,1.8128 2.501,2.72049 0.81183,0.57746 1.62793,1.14541 2.4375,1.72755 0.96528,0.64637 1.85963,1.40906 2.81002,2.09101 0.97646,0.57721 1.95836,1.12726 2.91617,1.74812 0.73096,0.51243 1.52271,1.04895 2.35758,1.50297 1.14095,0.6167 2.19527,0.86518 2.92972,1.06505 1.23884,0.29978 2.50043,0.37581 3.7595,0.41352 1.50296,0.0624 2.99777,-0.17643 4.48836,-0.3729 1.84297,-0.16854 3.67952,-0.38973 5.50359,-0.75534 1.17137,-0.18978 2.29394,-0.67155 3.46647,-0.84077 0.95756,-0.0814 1.91852,-0.0797 2.87794,-0.0864 1.12437,-0.003 2.24875,0.003 3.37313,0.004 1.19325,10e-4 2.38652,0.003 3.57977,0.003 0.83281,-0.0562 1.6502,0.0475 2.47782,0.12918 1.01083,0.17323 1.9991,0.49652 3.0009,0.73468 1.37606,0.40606 2.77757,0.62275 4.18705,0.75097 0.75939,-0.0164 1.48857,0.12889 2.23759,0.23961 1.34009,0.16418 2.68892,0.16679 4.03438,0.17982 1.51873,0.0537 3.03313,-0.11045 4.54824,-0.20927 1.01934,-0.0615 2.03948,-0.10146 3.05994,-0.11975 0.97609,-0.0102 1.95227,-0.006 2.92839,-0.006 1.40456,-0.0573 2.80452,-0.20978 4.20854,-0.28069 1.29971,-0.0499 2.60031,-0.0511 3.90055,-0.0547 1.24437,-0.003 2.48874,-5.2e-4 3.73311,3.8e-4 0.82455,6.2e-4 1.64908,8.8e-4 2.47362,0.001 1.22584,-0.0544 2.44464,0.0727 3.66684,0.16354 1.6923,0.21174 3.38779,0.37334 5.08653,0.48202 1.21938,0.0702 2.44017,0.084 3.6607,0.089 0.65086,0.001 1.30172,-10e-4 1.95258,-0.003 -0.0254,0.006 -0.10179,0.0131 -0.0763,0.0168 0.46683,0.0855 0.95027,0.10349 1.42048,0.15332 9.58923,1.01515 10.76364,-15.56248 1.17441,-16.57764 v 0 c -0.84557,-0.0894 -1.69021,-0.1994 -2.53906,-0.23225 -0.62969,10e-4 -1.25939,0.004 -1.88908,0.003 -0.99984,-0.004 -1.99993,-0.0131 -2.99894,-0.0668 -1.65918,-0.10393 -3.31305,-0.28423 -4.967,-0.47382 -1.49548,-0.1106 -2.9902,-0.24408 -4.48966,-0.19408 -0.82231,-1.3e-4 -1.64462,-3.7e-4 -2.46693,-0.001 -1.25731,-9.3e-4 -2.51462,-0.003 -3.77193,-3.2e-4 -1.48122,0.004 -2.96286,0.007 -4.44336,0.0694 -1.21075,0.0634 -2.42017,0.15715 -3.62874,0.26591 -1.04654,-6.1e-4 -2.09312,-0.004 -3.13963,0.007 -1.1952,0.0224 -2.39006,0.0682 -3.58393,0.14166 -1.23746,0.0814 -2.47318,0.22971 -3.71334,0.18591 -0.84761,-0.009 -1.69579,-0.0131 -2.54252,-0.0652 -0.95836,-0.1315 -1.91347,-0.31084 -2.88069,-0.31367 -0.87761,-0.0659 -1.7387,-0.2397 -2.59352,-0.49777 -1.48367,-0.3316 -2.94104,-0.85951 -4.45482,-0.97499 -1.18803,-0.1167 -2.37577,-0.22961 -3.56889,-0.18309 -1.18904,-3.6e-4 -2.37807,-10e-4 -3.5671,-0.003 -1.15541,-10e-4 -2.31081,-0.006 -3.46622,-0.004 -1.5308,0.0116 -3.06605,0.0148 -4.58884,0.23015 -1.33176,0.22474 -2.63074,0.60366 -3.94576,0.92901 -1.5541,0.33925 -3.13212,0.43534 -4.70164,0.61962 -0.90045,0.1196 -1.80469,0.29515 -2.71083,0.28059 -0.43441,-0.0116 -0.87176,-0.0224 -1.30356,-0.0702 0.25964,0.1405 0.0165,0.004 -0.64256,-0.17907 -0.40877,-0.11437 0.91885,0.2578 0.46834,0.19793 -0.10472,-0.0568 -0.20171,-0.14355 -0.31417,-0.17028 -0.0841,-0.02 0.29563,0.2115 0.22126,0.15961 -0.47176,-0.32922 -0.92405,-0.70213 -1.41571,-0.98773 -0.8964,-0.57994 -1.79406,-1.15808 -2.73391,-1.62792 0.31443,0.3139 0.14354,0.13513 -0.37415,-0.28874 -0.55511,-0.45443 -1.11996,-0.88752 -1.70145,-1.28927 -0.12974,-0.0896 -0.25852,-0.18133 -0.38777,-0.272 -0.71282,-0.51257 -1.42807,-1.02108 -2.14955,-1.51462 0.18482,0.18162 0.3885,0.3378 0.55446,0.54486 1.30914,1.63327 1.95689,3.6594 1.75706,6.00077 -0.074,0.86707 -0.37703,1.68759 -0.66017,2.48774 -0.1172,0.33121 -0.35187,0.57957 -0.5278,0.86936 0.27518,-0.59313 0.87883,-1.19085 1.27308,-1.62703 0.84442,-0.93423 1.73308,-1.80673 2.65256,-2.62787 0.7687,-0.55325 1.49651,-1.06495 2.3945,-1.24126 2.34372,-0.64376 4.70806,-1.1696 7.08263,-1.61197 1.37679,-0.23767 2.7614,-0.39136 4.14767,-0.51303 0.57293,-0.0613 1.19617,-0.0711 1.75822,-0.22735 0.0141,-0.004 -0.0271,-0.0131 -0.0407,-0.0182 1.04689,-7.1e-4 2.09379,-0.003 3.14069,-0.004 2.25765,-10e-4 4.51534,0.001 6.77296,0.0205 2.08216,0.0221 4.1712,-0.003 6.24603,0.24122 1.20789,0.16078 2.42409,0.25739 3.62149,0.51208 1.01376,0.24482 2.02867,0.64403 3.07364,0.74196 1.04128,0.1228 2.08351,0.23312 3.13084,0.19292 1.22207,3.9e-4 2.44417,-0.001 3.66613,-0.0225 1.31541,-0.0296 2.63274,-0.0685 3.93744,-0.29511 1.22099,-0.17559 2.45163,-0.20671 3.67653,-0.34039 1.59138,-0.14886 3.18648,-0.25445 4.76941,-0.51287 1.61959,-0.2353 3.25024,-0.3826 4.8765,-0.52668 1.57171,-0.12396 3.14198,-0.12802 4.71759,-0.10451 2.69077,5.1e-4 5.38154,10e-4 8.07231,0.003 2.27789,-7e-5 4.55599,0.009 6.83376,-0.026 1.60994,-0.0421 3.21859,-0.12758 4.82588,-0.24927 1.96127,-0.12933 3.92426,-0.12526 5.88592,-0.24571 1.17239,-0.10682 2.33014,-0.30571 3.49764,-0.45985 1.74995,-0.24093 3.50408,-0.41094 5.25515,-0.6374 1.24729,-0.17998 2.49795,-0.28694 3.74951,-0.41017 1.34056,-0.15327 2.68789,-0.1347 4.03149,-0.24244 2.1974,-0.13818 4.39411,-0.17448 6.59464,-0.136 1.55439,9.4e-4 3.10888,0.006 4.66317,-0.0206 1.58978,-0.0401 3.17871,-0.13005 4.76029,-0.34081 0.31447,-0.0427 0.62929,-0.0817 0.94342,-0.12787 0.23608,-0.0347 0.47197,-0.0718 0.70708,-0.11525 0.0972,-0.0179 0.38712,-0.0358 0.29084,-0.0601 -0.75324,-0.19013 -1.8319,0.26546 -2.26973,-0.50755 -1.7998,-3.17747 -2.6528,-7.0165 -3.9792,-10.52474 0.52583,-1.01159 1.09973,-1.98817 1.57748,-3.03478 0.11391,-0.24959 -0.3353,0.40097 -0.4784,0.62698 -0.83858,1.32438 -1.4935,2.74682 -1.80046,4.38862 -0.20493,1.0316 -0.43568,2.05535 -0.60114,3.09859 -0.0877,0.62994 -0.15048,0.9119 -0.23825,1.27885 -0.46313,1.43273 -0.92619,2.87319 -1.19071,4.38472 -0.20978,1.37984 -0.30644,2.77455 -0.39517,4.17274 -0.0441,1.08665 -0.0595,2.17175 -0.0472,3.25971 0.004,1.23462 0.0101,2.46976 0.0579,3.70321 0.0335,0.73325 0.0713,1.46499 0.13054,2.19598 0.0233,0.28876 0.0171,0.58589 0.0832,0.86455 0.0101,0.0414 0.006,-0.0858 0.008,-0.12874 0.0289,1.49423 0.0918,2.98804 0.24991,4.47132 0.18205,1.70208 0.34672,3.41226 0.64448,5.09065 0.3848,1.0666 0.35315,2.56771 1.15439,3.19979 2.15459,1.69966 4.62394,3.12864 7.18026,3.37512 2.20814,0.21291 3.78328,-2.82272 4.77091,-4.65243 0.0848,-0.15697 0.35713,-0.97879 0.42301,-1.17245 -0.32852,0.59362 -0.93238,1.44924 -1.54486,1.93509 -0.0695,0.0501 -0.13823,0.10232 -0.20866,0.15067 -0.0434,0.0298 0.0846,-0.0641 0.12738,-0.0948 0.15487,-0.11162 0.32118,-0.20172 0.46569,-0.33238 2.2465,-2.03149 1.30984,-1.14266 3.18241,-4.70747 0.0292,-0.0557 -0.0404,0.1228 -0.0605,0.18424 0.19654,-0.60689 0.65979,-2.53503 0.1476,-0.52686 -0.0305,0.11932 0.0802,-0.23026 0.11287,-0.34871 0.18564,-0.67277 0.37935,-1.49789 0.22669,-0.85288 0.0174,-0.0732 0.0384,-0.14501 0.0525,-0.21918 0.74349,-3.87875 -0.41768,1.74438 0.0219,-0.15395 0.10886,-0.47009 0.20341,-0.94495 0.30511,-1.41743 -9.7e-4,5.8e-4 -0.002,0.001 -0.003,0.001 0.0257,-0.17399 0.45294,-3.00106 0.27392,-2.00427 0.0956,-0.85653 0.22727,-1.70708 0.27931,-2.57053 0.0415,-0.92307 0.12911,-1.83978 0.21755,-2.75771 0.0645,-1.9991 -0.0252,-3.98938 -0.36145,-5.9549 -0.22937,-1.25593 -0.28855,-1.72509 -0.62935,-2.97079 -0.57508,-2.10212 -1.40199,-4.07962 -2.40472,-5.92374 -1.57626,-2.76872 -3.32917,-5.36989 -5.40829,-7.60352 -10.35023,4.48601 -11.73282,0.48974 -11.67554,7.25235 5.9e-4,0.84919 0.002,1.69837 0.003,2.54756 9.7e-4,0.6049 0.004,1.20995 -0.0105,1.81472 -0.0222,0.82942 -0.0531,1.66177 -0.16051,2.48225 -0.12744,0.88769 -0.24271,1.78652 -0.39835,2.66233 -0.24212,1.0376 -0.75765,1.99219 -1.21171,2.90391 -0.42486,0.77095 -0.83222,1.55457 -1.25399,2.32779 -0.10725,0.19665 -0.21738,0.39093 -0.327,0.58564 -0.073,0.12962 -0.33949,0.44841 -0.2208,0.38744 0.17469,-0.0897 0.27211,-0.32248 0.40818,-0.48371 1.27918,-1.09445 2.8472,-2.65105 4.6327,-1.75902 3.26432,1.63079 6.73854,4.45881 6.05116,8.91422 -0.0146,0.0743 -0.007,0.16505 -0.0494,0.22128 -0.0473,0.0629 0.0322,-0.1663 0.0531,-0.24775 0.0966,-0.37665 0.20677,-0.748 0.29729,-1.12704 0.31213,-1.47813 0.76248,-2.91906 0.91689,-4.44607 0.14967,-1.19294 0.35144,-2.37691 0.54246,-3.56062 0.36799,-2.41991 0.53143,-4.86427 0.3489,-7.3241 -0.13021,-2.72351 -0.32233,-5.44431 -0.68259,-8.13863 -0.0456,-0.34358 0.14548,-0.98418 -0.1367,-1.03076 -0.27506,-0.0453 0.11451,0.68666 0.0484,1.0162 -0.29472,1.46919 -0.007,3.66576 -1.12016,4.32665 -5.16229,3.065 -9.50671,4.8008 -11.61657,-1.09813 0.0227,0.0171 0.0617,0.0875 0.0658,0.0553 0.0725,-0.58496 -0.1109,-0.53842 0.13652,-1.24556 0.83519,-2.38703 0.53804,-1.92265 1.53786,-3.00468 -0.23067,0.54804 -0.0464,0.17244 -0.94532,0.92413 -1.97723,1.65322 -4.08001,3.08528 -5.91301,4.98811 -0.4426,0.58674 -0.90295,1.15421 -1.32782,1.76021 -0.28651,0.40863 -0.44682,0.82863 -0.70269,1.23465 -0.17272,0.27408 -0.35802,0.53625 -0.52752,0.81333 -0.1916,0.31324 -0.37023,0.63802 -0.55535,0.95703 -0.78637,1.50492 -1.55933,3.02332 -2.29484,4.56569 -1.38453,2.88001 -2.59851,5.8798 -3.02749,9.21922 -0.0592,0.46323 -0.12759,0.92485 -0.17776,1.38967 -0.0501,0.46498 -0.47206,1.59397 -0.12317,1.39892 0.38167,-0.21339 -0.0567,-1.21882 0.29656,-1.49585 5.3723,-4.21313 8.33552,-8.58358 12.16377,-1.59614 0.0698,0.19962 -0.0495,-0.14456 -0.16859,-0.37314 -0.035,-0.0672 0.11051,0.28816 0.0808,0.2174 -0.61015,-1.45047 -0.38091,-0.98752 -0.2681,-0.61439 -0.22133,-0.64107 -0.44876,-1.27645 -0.69509,-1.90408 -0.1106,-0.28175 -0.19744,-0.58388 -0.35159,-0.8332 -0.0114,-0.0184 0.003,0.046 0.004,0.0689 0.0255,0.34788 0.0733,0.65993 0.0722,1.01443 -1.8e-4,0.0608 -0.0198,0.24188 -0.0195,0.18102 5.8e-4,-0.12759 0.0544,-1.33939 0.0549,-1.34959 0.18277,-3.87545 0.40425,-7.7482 0.55395,-11.62596 0.0719,-2.3981 0.15797,-4.80834 0.19563,-7.20322 -0.17412,0.48179 -0.48808,1.37763 -0.70111,1.5601 -1.4782,1.26617 -2.95597,2.73815 -4.70748,3.2713 -1.76949,0.53861 -4.26973,-0.8874 -5.36369,-2.61933 -0.18176,-0.43064 0.0786,0.19994 0.11807,0.18129 0.0984,-0.0464 -0.0907,-0.2333 -0.12767,-0.35412 -0.0101,-0.0325 0.0491,0.12236 0.0462,0.0878 -0.023,-0.26924 -0.17153,-0.51122 -0.13331,-0.79559 -0.0122,-0.32863 -0.0457,-0.65706 -0.0368,-0.98585 0.0396,-1.47262 0.13416,-1.03683 0.0241,-0.50936 -0.0252,0.12061 -0.0535,0.23995 -0.0803,0.35995 -0.17515,0.6815 -0.37386,1.35041 -0.56739,2.02445 -0.0627,0.21853 -0.14808,0.42989 -0.18435,0.65721 -0.0634,0.3976 0.87637,-2.72739 0.52027,-1.0356 0.14755,-0.19592 0.61948,-0.74843 0.47269,-0.55167 -0.53876,0.72216 -1.27684,1.21235 -1.88124,1.83728 -1.65139,1.39105 -3.33987,2.73734 -4.85355,4.35476 -0.4902,0.52377 -0.98991,1.04095 -1.42435,1.63372 -0.51004,0.69593 -0.93336,1.47999 -1.40005,2.22 -0.76364,1.77165 -1.43296,3.60243 -1.85471,5.54545 -0.38456,2.0035 -0.63774,4.03796 -0.54098,6.1035 0.0406,2.12249 0.14645,4.2498 0.54432,6.32434 0.51308,2.46212 1.20645,4.85633 2.28186,7.04463 0.33023,0.56315 1.70095,3.19945 2.45646,3.30872 2.61525,0.37818 5.46263,1.09627 7.89981,-0.12337 2.46958,-1.23583 2.88561,-4.99766 2.90782,-7.69974 -0.077,-1.8058 -0.29575,-3.59342 -0.6085,-5.36091 -0.88938,-5.17307 -1.71321,-10.36092 -2.5685,-15.54243 -0.60718,-3.32684 -1.20268,-6.65344 -2.01578,-9.91693 -0.34085,-1.36806 -0.99244,-3.87299 -1.57179,-5.18882 -0.44811,-1.01776 -1.01241,-1.95242 -1.51863,-2.92862 -1.24643,-1.43469 -1.79093,-2.32528 -3.47799,-3.10621 -2.04007,-0.94437 -4.73106,-1.21056 -6.65838,0.45021 -1.47047,1.26711 -2.31824,3.3748 -3.32204,5.19991 -0.19521,0.35492 -0.15124,0.83516 -0.22687,1.25273 -0.0963,0.79514 -0.19855,1.58981 -0.24494,2.39206 -0.0146,0.14844 -0.42985,2.27946 -0.1542,1.28233 0.007,-0.0242 -0.006,0.0507 -0.0101,0.0761 -0.15304,0.79472 -0.39964,1.56117 -0.63409,2.32309 -0.60052,1.64173 -1.13054,3.3128 -1.5858,5.0226 -0.49227,1.6836 -0.95641,3.3788 -1.47164,5.05245 -0.70095,2.50005 -1.36418,5.0116 -1.89881,7.57426 -0.16095,0.8689 -0.19141,1.0002 -0.32301,1.82395 -0.0135,0.0845 -0.0653,0.3323 -0.0347,0.25472 1.35759,-3.45252 0.96009,-4.81546 6.17651,-5.82709 1.55266,-0.30112 2.97243,1.25292 4.45863,1.87937 0.34678,0.46237 0.72916,0.88833 1.04035,1.38713 0.20318,0.32568 0.33724,0.70817 0.49308,1.07076 0.0111,0.0257 0.42847,1.47481 -0.10192,-0.36439 -0.0567,-0.19672 -0.11876,-0.39108 -0.17814,-0.58663 -0.0525,-0.16175 -0.31152,-0.96429 -0.32148,-0.9808 -0.0929,-0.15401 0.0397,0.41081 0.15311,0.54287 0.10934,0.12729 -0.0777,-0.35857 -0.13951,-0.52703 -0.14213,-0.38721 0.76549,2.833 0.18014,1.25404 -9.7e-4,0.0985 -2.7e-4,0.39433 -0.003,0.29579 -0.0318,-1.04867 0.003,-2.10088 -0.0581,-3.14877 -0.0327,-0.70323 -0.0714,-1.40382 -0.13414,-2.10413 -0.0126,-0.14152 -0.0269,-0.28294 -0.0411,-0.4243 -0.008,-0.0743 0.004,-0.28987 -0.0236,-0.22291 -0.0363,0.0885 -0.005,0.19798 -0.007,0.29695 0.006,-1.26012 0.0101,-2.52123 -0.0513,-3.77977 -0.14457,-2.49181 -0.44623,-4.96977 -1.01073,-7.37565 -0.83681,-3.27602 -1.88908,-6.29039 -3.72282,-8.94034 -0.63285,-0.67535 -1.13493,-2.45414 -1.89853,-2.02606 -3.83133,2.14793 -7.00702,5.74303 -10.34464,8.88983 -0.16034,0.15117 0.16438,0.96562 0.15378,0.71843 -0.0142,-0.33154 -0.10987,-0.65026 -0.16481,-0.97539 0.0402,0.32886 0.0428,0.41515 0.0353,0.2554 -0.0384,-1.39465 0.0954,-2.79258 0.62486,-4.04499 0.004,-0.0102 -0.007,0.0193 -0.0101,0.0289 -0.0492,0.10857 -0.0983,0.2172 -0.1475,0.32578 0.0802,-0.14895 0.15746,-0.3003 0.24055,-0.44686 0.0131,-0.0232 0.0609,-0.084 0.0475,-0.0613 -0.38306,0.64785 -0.80887,1.25789 -1.2158,1.88238 -0.59651,0.97055 -1.22441,1.91897 -1.71888,2.97699 -0.57942,1.23976 -1.00387,2.55506 -1.30255,3.93104 -0.21075,0.95706 -0.43653,1.90436 -0.72037,2.83517 -0.62349,2.11717 -1.31841,4.20421 -1.80384,6.37899 -0.57589,2.41965 -1.26201,4.85348 -1.31049,7.39584 0.30775,-5.8675 13.24283,-6.10891 13.28632,-1.84951 0.0102,0.19958 0.006,0.40107 0.0306,0.59876 0.0197,0.15701 -0.009,-0.3175 -0.0151,-0.47612 -0.0324,-0.75426 -0.0996,-1.4948 -0.21616,-2.23753 -0.0326,-0.20737 -0.0776,-0.41153 -0.11636,-0.61731 -0.1173,-0.53935 -0.256,-1.01309 -0.3096,-1.56223 -0.14608,-2.05956 -0.17637,-4.13702 -0.54411,-6.16449 -0.59434,-3.31873 -1.38462,-6.57997 -2.14152,-9.84725 -0.50678,-1.73023 -0.99896,-3.43447 -1.79063,-5.00819 -0.21886,-0.43507 -0.42278,-0.88679 -0.69123,-1.27818 -0.44589,-0.65008 -0.81018,-1.48713 -1.44349,-1.83408 -1.63052,-0.89322 -3.43878,-1.18826 -5.15817,-1.78239 -1.75555,1.50362 -3.59273,2.87406 -5.26666,4.51088 -0.29838,0.29177 -0.48282,1.6374 -0.72829,2.1183 0.0456,-0.0814 0.0531,-0.1016 -0.0298,0.11946 -0.0651,0.17367 -0.13991,0.34186 -0.20068,0.51782 -0.4743,1.3734 -0.87535,2.74781 -0.96837,4.24947 -0.0706,1.41477 -0.0666,2.83087 -0.12173,4.24678 -0.0214,0.44554 9.7e-4,0.79457 -0.11598,1.16288 -0.42658,1.32965 -0.89879,2.63605 -1.31289,3.97167 -0.30598,1.24464 -0.79125,2.42551 -1.13995,3.65332 -1.07262,2.73463 -2.01631,5.61403 -1.65588,8.72055 0.0145,0.13397 0.17905,1.80885 0.25479,1.80884 5.75395,-10e-4 15.96985,4.02093 13.00771,-4.95141 0.26415,1.33242 -0.26641,-1.71553 -0.10503,-0.34024 0.0136,0.11612 -0.0279,-0.23196 -0.0418,-0.34795 -0.042,-0.22593 -0.0293,-0.17916 -0.006,0.45234 0.004,0.11234 6e-5,-0.22512 9e-5,-0.3377 1.4e-4,-0.39499 3.5e-4,-0.78999 7.3e-4,-1.18499 9.7e-4,-1.05174 0.003,-2.10346 0.005,-3.15522 9.6e-4,-1.21653 0.007,-2.43411 -0.0513,-3.64912 -0.10417,-1.75699 -0.30278,-3.50325 -0.65395,-5.21424 -0.4239,-2.14825 -0.81416,-4.31232 -1.47705,-6.37617 -0.77015,-2.39422 -1.65303,-4.74353 -2.90475,-6.8276 -0.54615,-0.88008 -1.48993,-2.51766 -2.26783,-2.94786 -1.36316,-0.75385 -2.78593,-1.90464 -4.27136,-1.68591 -4.30236,0.63356 -4.62518,1.849 -6.18062,4.7377 -0.70826,2.23935 -0.50121,1.2722 -0.80663,3.11344 -0.005,0.029 0.0111,-0.0575 0.0173,-0.0861 0.0595,-0.27325 0.13786,-0.5396 0.23321,-0.79742 -0.30645,0.90304 -0.55813,1.83082 -0.72111,2.78888 -0.0421,0.24743 0.3014,-1.32449 0.22055,-0.70861 0.0201,-0.0402 0.027,-0.097 0.0603,-0.12047 0.0256,-0.018 -0.0187,0.0688 -0.0326,0.10088 -0.0573,0.1315 -0.11906,0.26009 -0.1806,0.38872 -0.41345,0.86416 -0.40396,0.79083 -0.86634,1.86091 -0.0931,0.2155 -0.17276,0.43931 -0.25914,0.65898 -0.6024,1.53908 -1.1598,3.10144 -1.44113,4.78204 -0.48319,2.11936 -0.96312,4.24955 -1.21338,6.43218 -0.26335,2.47896 -0.53746,4.95505 -0.84912,7.42586 -0.3712,2.66915 -0.93011,5.34159 -0.48873,8.06135 0.20096,0.80688 0.35109,1.63533 0.60289,2.42057 0.69405,2.16457 2.65342,4.77085 4.43105,5.63591 0.90826,0.442 1.88653,0.62781 2.82978,0.94171 1.44743,-0.41384 3.1218,-0.20417 4.34226,-1.24152 1.46503,-1.24523 2.66521,-3.14236 3.24338,-5.20596 0.86556,-3.08946 -0.0613,-5.12176 -0.84058,-7.59534 -0.68959,-2.13437 -1.28885,-4.30697 -1.80468,-6.51408 -0.542,-2.47122 -0.99651,-4.97669 -1.72645,-7.3797 -0.48322,-1.51448 -1.05853,-2.97616 -1.55899,-4.48128 -0.60664,-1.99295 -1.0706,-4.05669 -1.89764,-5.94266 -0.18347,-0.43225 -1.06001,-2.79792 -1.19287,-2.80929 -9.35522,-0.80005 -10.51656,-3.64044 -12.35122,2.11424 0.0659,-0.13847 0.0202,-0.0469 -0.079,0.25475 -0.26888,0.81932 -0.51784,1.64701 -0.75927,2.47919 -0.24059,1.04274 -0.4524,2.16452 -0.54105,3.19109 0.008,0.70664 -0.42666,1.39158 -0.46208,2.0901 -0.3301,1.5658 -0.70041,3.11306 -1.1477,4.63589 -0.49347,2.08487 -0.81644,4.21901 -0.88092,6.3935 -0.0444,1.83747 -0.009,3.67468 0.12447,5.50688 0.074,0.94542 0.15558,1.88243 0.3019,2.81603 0.0339,0.21624 -0.0668,0.62657 0.11261,0.646 13.63084,1.47633 12.29564,5.94327 13.46271,-1.47231 -0.0102,-0.53625 -0.0101,-1.07297 -0.0308,-1.60875 -0.0437,-1.10465 -0.33907,-2.1899 -0.59679,-3.23818 0.0403,0.2183 6e-4,-0.006 -0.06,-0.21999 -0.1966,-0.69302 -0.27867,-1.47993 -0.5062,-2.18408 -0.37248,-1.42645 -0.60886,-2.89063 -0.87309,-4.35108 -0.54001,-2.85748 -1.18685,-5.68331 -1.91066,-8.47937 -0.53282,-2.16032 -1.04327,-4.33185 -1.69695,-6.44396 -0.17885,-0.57791 -0.34003,-1.16844 -0.57715,-1.71412 -0.36946,-0.85027 -0.48595,-2.171 -1.237,-2.46083 -2.96842,-1.14554 -6.1653,-1.05695 -9.24796,-1.58541 -0.77151,1.11284 -1.58882,2.18054 -2.31451,3.33851 -0.14802,0.23618 -0.1975,0.54392 -0.29085,0.8187 -0.3797,1.11775 0.3641,-0.90956 -0.3063,0.89995 0.0603,-0.14195 0.11535,-0.28772 0.18121,-0.42608 0.0573,-0.12047 0.24944,-0.46625 0.18783,-0.34909 -0.2714,0.51609 -0.54347,1.0307 -0.81364,1.54785 -0.67073,1.27024 -1.26035,2.59209 -1.78894,3.95907 -0.10884,0.35472 -0.0108,0.0553 -0.33531,0.75222 -0.3458,0.74237 -0.72043,1.46235 -1.05682,2.21146 -0.69789,1.62647 -1.41005,3.25863 -1.83158,5.03096 -0.24931,1.11553 -0.48215,2.23683 -0.76502,3.34083 -0.31416,1.43728 -0.52221,2.88885 -0.74387,4.34869 -0.19874,1.15956 -0.34063,2.32768 -0.51661,3.49138 -0.0403,0.77486 -0.68908,1.97735 -0.12099,2.3246 10.00102,6.11338 11.38652,8.73935 13.73065,0.86003 0.0674,-0.35759 0.15243,-0.71088 0.20206,-1.07278 0.20466,-1.49186 0.17478,-2.99284 0.16885,-4.49845 4e-5,-1.12809 8e-5,-2.25622 8.4e-4,-3.38431 9.7e-4,-1.11245 0.003,-2.2249 0.005,-3.33735 9.7e-4,-1.34098 0.002,-2.68249 -0.044,-4.02257 -0.0857,-1.93257 -0.25466,-3.86101 -0.67045,-5.73485 -0.45141,-2.00737 -0.96327,-4.00506 -1.91541,-5.75763 -1.13329,-1.96847 -2.35519,-3.81655 -4.25619,-4.79423 -0.85932,-0.44194 -1.79273,-0.85583 -2.72297,-0.78056 -1.43304,0.11612 -2.77813,0.89202 -4.1672,1.33802 -0.40823,0.38215 -0.8272,0.74773 -1.2247,1.14645 -0.15687,0.15734 -0.2932,0.34311 -0.43602,0.51935 -1.61108,1.98794 1.51959,-1.65343 -1.05149,1.29182 -0.24849,0.36031 -0.50044,0.71713 -0.74549,1.08096 -0.0412,0.0613 -0.15779,0.25112 -0.11303,0.1937 0.0809,-0.10378 0.29714,-0.44388 0.22212,-0.33363 -0.5,0.73469 -0.61209,0.90596 -1.11895,1.96854 -0.14443,0.30277 -0.24616,0.63311 -0.36924,0.94965 -0.19123,0.62481 -0.43049,1.21775 -0.71356,1.79187 -0.44148,1.00341 -0.90783,1.98867 -1.30706,3.01911 -0.0111,0.0287 0.0295,-0.0524 0.0442,-0.0785 -0.54644,1.19927 -0.95033,2.45984 -1.27784,3.76959 -0.25435,1.07409 -0.56366,2.12389 -0.8417,3.18914 -0.18841,1.0695 -0.54087,2.10734 -0.86674,3.12125 -0.24074,0.73646 -0.3659,1.10252 -0.59325,1.87758 -0.0454,0.15467 -0.10452,0.45091 -0.15929,0.61092 -0.0943,0.27547 -0.20953,0.54006 -0.29883,0.81802 -0.0168,0.0523 0.0534,-0.0914 0.08,-0.13702 -0.42402,0.96685 -0.86403,1.92359 -1.2415,2.91976 0.22753,-0.46522 -0.0369,0.0695 -0.10089,0.24602 -0.007,0.0177 0.11619,-0.23203 0.15503,-0.27209 0.80125,-0.8268 1.3682,-2.57379 2.41309,-2.46678 3.1471,0.32225 5.99708,2.42334 8.99561,3.63501 0.21752,0.89123 0.45945,1.7741 0.65255,2.67371 0.0303,0.14137 0.0169,0.29177 0.0154,0.43783 -10e-4,0.11075 -0.01,0.22142 -0.0233,0.33092 -0.001,0.0116 -0.0206,0.0361 -0.0201,0.0245 0.008,-0.19014 0.0447,-0.37731 0.0542,-0.56745 0.14765,-0.81302 0.37165,-1.60458 0.59545,-2.3901 0.59001,-1.58789 1.12507,-3.20721 1.42841,-4.91826 0.25302,-1.65787 0.38379,-3.32575 0.32565,-5.01298 -0.008,-1.24313 -0.0325,-2.48615 -0.0872,-3.72765 -0.0829,-1.77244 -0.2117,-3.54052 -0.29198,-5.31275 -0.14575,-2.4811 -0.38027,-4.984 -1.26501,-7.26012 -1.26961,-2.41315 -2.02284,-4.59574 -4.98183,-5.09317 -4.07513,-0.68508 -6.42075,1.28908 -8.1838,5.04043 -0.12539,0.38175 0.0115,-0.0182 -0.40966,0.84165 -0.38307,0.78203 -0.73163,1.59454 -0.99182,2.44997 -0.20741,0.6705 -0.40428,1.33575 -0.53421,1.76162 -0.34552,1.2352 -0.25485,0.72314 -0.49683,1.83792 -0.0336,0.15457 0.0834,-0.30334 0.13247,-0.45159 0.042,-0.127 0.0936,-0.24904 0.14043,-0.37358 0.044,-0.0962 0.0894,-0.19148 0.13211,-0.28858 0.0305,-0.0694 -0.14254,0.25898 -0.0955,0.20527 0.0597,-0.0682 0.18234,-0.33162 0.13489,-0.25027 -0.33319,0.57121 -0.619,1.18494 -0.87896,1.80959 -0.15075,0.45854 -0.42652,0.95471 -0.60326,1.37273 -0.26647,0.6302 -0.49552,1.28173 -0.72372,1.9334 -0.32004,0.92188 -0.63395,1.84545 -0.91513,2.78606 -0.31951,1.03166 -0.56468,2.05687 -0.93152,3.06723 -0.46597,1.4231 -0.89793,2.8621 -1.37072,4.28217 -0.3979,1.25784 -0.75751,2.52805 -1.05709,3.82437 14.72056,3.26235 13.07168,8.26352 13.17601,2.04016 0.0149,-0.58014 0.0888,-1.1542 0.16852,-1.72562 0.27069,-1.82134 0.63855,-3.63325 0.67783,-5.49254 1.4e-4,-0.93975 4.2e-4,-1.8795 0.001,-2.81923 9.7e-4,-0.98639 0.003,-1.97275 0.002,-2.95914 -0.004,-1.41876 -0.0198,-2.83779 -0.0782,-4.25503 -0.0881,-1.8597 -0.1909,-3.73202 -0.53208,-5.55263 -0.20187,-1.36542 -0.35372,-2.95984 -1.00593,-4.11642 -0.62957,-1.11641 -1.16373,-2.62499 -2.22311,-3.02698 -2.26565,-0.8597 -4.73635,-0.34163 -7.10453,-0.51242 -2.21688,2.584 -2.57893,2.34519 -3.42105,4.87824 -0.10407,0.31302 -0.22045,0.6232 -0.28599,0.95148 -0.0286,0.1434 0.0956,-0.27108 0.14346,-0.40663 -0.32874,0.95845 -0.69873,1.89807 -0.9345,2.90109 0.12438,-0.2299 -0.47022,1.34958 -0.51623,1.49121 -0.052,0.15992 -0.1,0.32172 -0.14997,0.48259 -0.21281,0.8114 -0.38456,1.51662 -0.50079,2.22861 -0.28724,0.88881 -0.63649,1.74632 -1.02766,2.57627 -0.63997,1.44073 -1.24738,2.9018 -1.89419,4.33776 -0.66338,1.44866 -1.33727,2.89173 -1.91607,4.39504 -0.14099,0.34644 -0.27028,0.68665 -0.43587,1.01592 -0.0443,0.0882 -0.21613,0.29653 -0.13631,0.26202 0.11274,-0.0488 0.32964,-0.42333 0.25206,-0.3121 -0.12633,0.18114 -0.26568,0.34806 -0.39852,0.52208 2.0198,-2.19334 4.19839,-2.61989 7.20285,-1.43899 2.15133,0.84554 3.40322,3.49986 3.7936,5.96448 -0.039,-0.26452 -0.0727,-0.53028 -0.11699,-0.79356 -0.0192,-0.11394 0.058,0.46016 0.0417,0.34551 -0.0584,-0.4089 -0.0783,-0.66544 -0.14562,-1.02847 -0.002,-0.0131 10e-4,0.0267 0.002,0.0401 0.0109,0.13557 0.0217,0.27126 0.0326,0.4069 -0.10257,-1.37076 -0.26806,-2.73884 -0.6165,-4.05269 -0.14473,-0.34627 0.034,0.087 -0.2524,-1.02405 -0.0423,-0.16422 -0.002,-0.48795 -0.14276,-0.48618 -0.1382,0.003 0.0715,0.32665 0.11625,0.48651 0.0409,0.14607 -0.0836,-0.38626 -0.1032,-0.44557 0.0165,0.15236 0.033,0.30472 0.0495,0.4571 -0.005,-0.0361 -0.0109,-0.14399 -0.0161,-0.10799 -0.0122,0.0856 -0.003,0.34703 -0.006,0.26032 -0.0152,-0.44845 0.008,-0.89887 -0.004,-1.34746 -0.002,-0.8567 -0.005,-1.71383 0.0253,-2.56992 0.0305,-0.71968 0.0622,-1.42671 0.27751,-2.10931 0.52266,-2.06726 1.01595,-4.14651 1.48186,-6.23395 0.28611,-1.48462 0.49957,-2.98332 0.77681,-4.47024 2.04315,-11.49788 -11.25861,-15.03002 -13.30176,-3.53213 z" />
    <path
       style="fill:url(#linearGradient3826);fill-opacity:1;stroke-width:8.68002;stroke-opacity:0"
       id="path1995"
       d="m 64.912965,385.71772 c 1.405015,2.29391 2.148511,4.96742 2.856585,7.60711 0.595722,2.22083 0.995814,3.92041 1.54416,6.16944 1.162995,4.39133 2.04545,8.93155 3.781292,13.10331 0.325801,0.60035 0.563721,1.27725 0.941239,1.84248 0.02979,0.0448 -0.09032,-0.11352 -0.05817,-0.15458 0.01165,-0.0145 0.332145,0.43216 -0.04144,-0.0765 -1.617474,-1.68235 -3.563201,-1.60553 -5.803895,-0.75279 -1.409082,0.53625 -1.839107,1.69694 -2.397701,2.91669 -0.007,-0.0145 -0.02108,-0.0285 -0.02092,-0.0454 0.0055,-0.58365 0.06652,-1.16361 0.08915,-1.74628 0.02923,-0.75384 0.05335,-1.50805 0.07412,-2.26243 0.09133,-3.30479 0.06973,-2.85004 0.09427,-6.29539 0.207346,-6.18067 -0.67736,-12.32036 -1.67816,-18.39739 -0.297727,-1.96771 -0.736318,-3.90983 -1.015037,-5.88119 -0.06722,-0.47571 -0.190403,-0.95364 -0.165222,-1.43248 0.06018,-1.14443 -0.417805,-2.79059 0.419301,-3.39995 2.497533,-1.81807 5.65958,-2.05669 8.48937,-3.08504 0.802177,0.90204 1.665403,1.73798 2.406549,2.70613 0.327625,0.42794 1.87357,3.27592 2.138293,3.76629 0.97651,1.80902 1.915457,3.64367 2.859299,5.47462 1.12234,2.10928 1.938313,4.42549 3.105274,6.50564 0.275841,0.49172 0.614217,0.93433 0.928806,1.39488 1.088666,1.59379 1.133664,1.6261 2.247216,3.13248 1.332693,1.78032 2.716043,3.50943 4.070733,5.26731 0.061,0.0742 0.11857,0.15233 0.18286,0.22281 0.0438,0.048 -0.1661,-0.20022 -0.11752,-0.15877 0.613756,0.52288 1.101086,1.22108 1.588046,1.88917 0.81344,1.13476 1.54643,2.32293 2.15685,3.61305 -3.561066,-4.98082 -0.67069,-2.20918 -10.531764,2.35376 -0.03317,0.0161 -0.06842,-0.0514 -0.07415,-0.0923 -0.07753,-0.54581 -0.120172,-1.09666 -0.172867,-1.64582 -0.209228,-2.17998 -0.185751,-2.12879 -0.334343,-4.46074 -0.171712,-4.50236 -0.103773,-9.00486 -0.02575,-13.50271 0.04267,-1.351 0.02265,-2.70686 0.105417,-4.05512 0.01382,-0.22544 -0.07697,-0.50805 0.05338,-0.67497 1.55618,-1.99423 3.28346,-3.80333 4.925201,-5.705 1.87927,1.02768 3.820176,1.91462 5.637816,3.083 0.26414,0.16982 0.32715,0.58553 0.50594,0.8663 0.0918,0.14428 0.19184,0.28329 0.30464,0.40657 0.255,0.27865 1.10095,0.94117 1.25777,1.07321 0.46629,0.39266 0.92756,0.79318 1.39135,1.18977 2.12361,1.87423 4.344017,3.59207 6.560687,5.31357 1.04901,0.81817 2.11972,1.59714 3.14244,2.45874 1.14345,1.0536 2.19019,2.23771 3.2341,3.41754 1.27322,1.50296 2.41567,3.69182 2.27639,5.84349 -0.1577,2.43634 -0.41925,2.68433 -1.24216,4.29199 -1.03434,1.77717 -2.38807,2.9364 -4.00815,3.93491 -1.8626,1.12056 -3.90334,1.51409 -5.99739,0.49796 -0.860737,-0.41768 -1.512007,-1.26968 -2.268027,-1.90451 -1.02659,-1.32749 -1.76878,-2.86489 -2.25521,-4.53893 -0.26481,-0.91131 -0.32737,-1.40051 -0.49003,-2.32085 -0.30261,-2.1191 -0.25988,-4.26595 -0.32739,-6.4 -0.0527,-1.87885 -0.2,-3.75384 -0.27884,-5.63203 -0.0887,-1.47207 0.0299,-2.93394 0.25274,-4.37409 0.25389,-1.28859 0.626,-2.53502 1.06316,-3.75114 1.17965,-1.19632 2.03991,-3.01205 3.53896,-3.58892 2.815117,-1.08339 3.991307,0.13413 5.893027,1.39512 0.22418,0.14862 0.46306,0.26786 0.68056,0.42932 0.0775,0.0575 3.64358,2.84937 3.7839,2.95919 3.9606,2.91372 7.8079,6.02207 11.49241,9.38407 1.23223,1.12144 2.39556,2.33742 3.5161,3.60259 -2.81731,2.81001 -5.57382,5.70168 -8.45195,8.43002 -0.0707,0.067 -0.12527,-0.16022 -0.18075,-0.24668 -0.23319,-0.3637 -0.48519,-0.71456 -0.68478,-1.10319 -0.69878,-1.3606 -1.13703,-2.53724 -1.5521,-4.04427 -0.22712,-0.82461 -0.38938,-1.66944 -0.58408,-2.50413 -0.99432,-4.92541 -0.97329,-9.95914 -0.75233,-14.94588 0.19116,-3.32056 -0.0165,0.20952 0.15724,-2.5502 0.0146,-0.23172 0.0295,-0.46346 0.0395,-0.69563 0.005,-0.0971 0.004,-0.19426 0.002,-0.29148 -2.3e-4,-0.0242 -0.007,-0.0963 -0.006,-0.0723 -2.6e-4,0.0879 0.003,0.17571 0.007,0.26361 3.77647,-0.0171 7.57406,0.32699 11.32942,-0.051 0.15815,-0.0161 -0.28877,-1.79035 0.0577,-0.77147 0.13083,0.38472 0.24639,0.77573 0.37058,1.16318 0.14087,0.4395 0.28307,0.87854 0.42462,1.3178 0.18355,0.53189 0.79875,2.34827 1.02085,2.8556 0.12545,0.28655 0.2996,0.54236 0.45247,0.81137 0.66887,1.17683 1.38473,2.27901 2.1462,3.37949 0.77669,1.08448 1.61248,2.11456 2.45991,3.12715 0.47661,0.56946 0.43824,0.52524 0.25215,0.2663 -2.04081,-1.50677 -2.25605,-2.01828 -5.83547,-0.77757 -2.80901,0.97367 -1.55182,1.8493 -2.57735,3.41836 -0.0822,0.12576 0.004,-0.31751 0.0102,-0.476 0.0134,-0.35044 0.0319,-0.70049 0.0478,-1.05074 0.0131,-2.52368 -0.14892,-5.05072 -0.36406,-7.56675 -0.14331,-1.60653 -0.3442,-3.20735 -0.40178,-4.81948 1.35103,-5.85202 0.0115,-3.85853 8.28988,-5.75199 0.32842,-0.075 0.6159,0.32928 0.90583,0.53184 0.60931,0.42568 1.18259,0.91779 1.78829,1.35038 0.42483,0.30344 3.68032,2.42882 3.74976,2.47431 3.04204,2.04219 6.15093,3.93382 9.28953,5.76386 0.18229,0.10225 0.36455,0.20478 0.54683,0.30716 0.0279,0.008 0.11027,0.0359 0.0834,0.0248 -1.65053,-0.69904 -2.56681,-1.02048 -4.83181,0.49851 -1.10543,0.74131 -1.62562,2.2806 -2.26905,3.55034 -0.17914,0.3535 -0.0996,0.81487 -0.14948,1.22229 -0.004,0.40529 0.0618,0.77001 -0.15516,0.12254 -0.20578,-0.614 -0.30132,-0.94098 -0.48198,-1.53535 -0.47962,-1.40092 -0.87872,-2.82497 -1.18088,-4.28582 -0.44556,-2.95827 -0.26075,-5.19877 2.3151,-7.62206 1.1065,-1.04096 2.76473,-1.00322 4.20443,-1.12753 0.75665,-0.0654 2.86642,0.93924 3.63914,1.27681 2.59226,1.16711 5.15654,2.41579 7.73495,3.62353 0.13667,0.0525 0.26686,0.14718 0.41,0.15813 0.11894,0.01 -0.21598,-0.1351 -0.33439,-0.15233 -0.48995,-0.0715 -1.00326,-0.25697 -1.4766,-0.11176 -2.74829,0.84284 -2.51804,1.06531 -3.89651,3.07658 0.0921,-1.16787 -0.0407,-2.35431 0.0336,-3.52184 0.0261,-0.41301 0.078,-0.82271 0.11701,-1.23403 1.1495,-1.63331 1.86052,-3.85134 3.44851,-4.89984 2.48949,-1.64376 5.32692,0.36366 7.44568,1.75552 0.49048,0.35587 2.55596,1.04559 0.272,0.28252 -1.58757,0.008 -1.27738,-0.16494 -2.60275,0.40136 -0.14217,0.0609 -0.25569,0.19732 -0.40285,0.24087 -0.0495,0.0145 0.0572,-0.0966 0.0839,-0.14653 0.0746,-0.1388 0.14317,-0.28192 0.21451,-0.42306 4.43409,-7.56095 13.89437,-0.13977 9.46027,7.42113 v 0 c -1.36809,2.25947 -3.06808,4.54224 -5.53838,5.21046 -0.75561,0.20439 -1.55221,0.14557 -2.32831,0.21846 -0.57554,-0.14701 -1.15489,-0.27397 -1.7266,-0.44114 -0.0621,-0.0184 -0.6763,-0.30492 -0.76871,-0.34828 -0.73195,-0.34327 -1.45894,-0.70068 -2.14635,-1.15663 -0.36336,-0.2388 -0.58398,-0.38478 -0.94389,-0.61782 -0.11008,-0.0712 -0.45095,-0.17426 -0.33091,-0.2124 0.16141,-0.0514 0.31988,0.17108 0.48797,0.1625 5.01569,-0.25598 3.06828,0.26159 6.57992,-5.09407 0.008,-0.19896 0.0117,-0.3985 0.0267,-0.59683 0.008,-0.11723 -0.008,0.23525 -0.01,0.35299 7.5e-4,0.30589 0.009,0.6119 0.009,0.91773 -2.4e-4,1.45855 -0.0389,2.91801 -0.21971,4.35991 -0.39102,1.83886 -0.56763,3.64552 -1.93033,5.02178 -0.96843,0.97804 -2.16886,1.67205 -3.39873,2.13997 -1.41502,0.53833 -3.27347,-0.16384 -4.63563,-0.72976 -2.51553,-1.17955 -5.01772,-2.39764 -7.54677,-3.5375 -0.30165,-0.13881 -0.64617,-0.18932 -0.90497,-0.41672 -0.11069,-0.0971 0.28165,0.0283 0.41351,-0.0145 1.11672,-0.36889 2.49183,-0.29078 3.31886,-1.21775 0.66029,-0.74007 2.53583,-3.71373 1.98136,-5.67115 0.18928,1.00481 0.53126,1.95054 0.83645,2.91774 0.51437,1.69866 1.19863,3.3492 1.2655,5.17282 -0.13866,2.64591 0.078,4.43408 -2.51782,6.41053 -2.58484,1.96812 -4.86602,1.18119 -7.17362,-0.15555 -3.30764,-1.92971 -6.58403,-3.92482 -9.79143,-6.07455 -1.26551,-0.83031 -3.33524,-2.16411 -4.58129,-3.07417 -0.19299,-0.1409 -0.34866,-0.3425 -0.53848,-0.48912 -0.14189,-0.10965 -0.60845,-0.20413 -0.45256,-0.2763 8.00142,-3.70357 6.3469,0.22619 7.66217,-5.86262 -0.009,-0.11288 -0.0408,-0.45063 -0.0275,-0.33828 0.15613,1.33269 0.21914,2.67834 0.37672,4.01104 0.26497,3.17342 0.46952,6.36193 0.39967,9.54359 -0.0869,1.72498 -0.10078,4.31009 -0.92515,5.75554 -0.63791,1.11853 -1.32462,2.41835 -2.41806,2.89117 -3.7924,1.63986 -4.29578,0.83879 -6.73114,-0.77706 -1.64055,-1.6444 -3.07822,-3.53976 -4.4726,-5.45504 -1.57035,-2.29743 -3.05395,-4.63693 -4.18158,-7.26225 -0.24104,-0.56118 -0.42932,-1.14926 -0.63502,-1.72798 -0.20002,-0.56275 -0.38802,-1.1307 -0.58203,-1.6961 -0.49927,-1.54991 -0.32693,-1.007 -0.73853,-2.30877 -0.17701,-0.5598 -0.51035,-1.50872 -0.61021,-2.14862 -0.0958,-0.61424 -0.74892,-1.74401 -0.21734,-1.85358 3.70828,-0.76429 7.5537,-0.2913 11.33054,-0.43693 0.0885,1.70952 -0.0743,3.40286 -0.17464,5.10317 -0.16829,3.67052 -0.25793,7.3792 0.40823,11.01986 0.0934,0.45404 0.17534,0.91114 0.28028,1.36212 0.0702,0.30187 0.17485,0.5931 0.24492,0.89502 0.0135,0.0583 0.0255,0.12576 0.004,0.18048 -0.009,0.0233 -0.0733,-0.0562 -0.0601,-0.0349 0.0857,0.1359 0.38196,0.26934 0.28155,0.38673 -2.62025,3.0631 -5.44466,5.88757 -8.16697,8.83134 -0.8268,-0.93497 -1.68076,-1.83921 -2.59335,-2.66422 -3.45562,-3.16248 -7.08231,-6.05678 -10.79824,-8.79644 -0.64501,-0.50512 -1.29466,-1.00242 -1.93505,-1.51534 -0.34504,-0.27635 -0.66718,-0.59106 -1.02094,-0.85223 -0.40668,-0.30024 -0.84802,-0.53354 -1.257017,-0.8295 -0.0339,-0.0246 0.0797,0.005 0.11953,0.005 5.226857,0.10579 2.877247,1.05104 6.906377,-3.36358 -0.14444,0.42182 -0.25445,0.84643 -0.37806,1.28055 -0.002,0.008 -0.005,-0.0184 -0.007,-0.0275 0.006,-0.0614 0.045,-0.23389 0.0138,-0.18416 -0.0942,0.15072 -0.055,1.27027 -0.0561,1.37357 0.0791,1.92779 0.2374,3.85218 0.28427,5.78097 0.0466,1.47859 0.0488,2.95952 0.13513,4.43605 0.01,0.0852 0.0199,0.17029 0.0294,0.25549 0.0431,0.38882 -0.0335,0.005 -0.154,-0.0217 -0.12743,-0.0291 0.41966,0.52125 -0.073,-0.005 -0.5965,-0.4395 -1.12254,-1.05014 -1.7895,-1.31843 -0.9572,-0.38505 -2.73355,-0.67421 -3.75074,0.0457 -0.0189,0.0129 0.0414,-0.019 0.062,-0.0288 0.68275,-0.42058 0.0325,-0.0391 0.0146,0.25937 -0.85874,2.0691 -0.78833,4.61284 0.6327,6.37993 0.0158,0.0198 -0.026,-0.0446 -0.039,-0.0672 -0.6621,-0.76005 -1.34512,-1.49748 -2.033187,-2.22644 -0.30471,-0.29572 -0.66024,-0.52525 -0.99176,-0.77688 -0.56121,-0.42598 -1.11128,-0.87124 -1.67524,-1.29244 -2.36474,-1.83656 -4.73071,-3.67376 -6.998016,-5.67026 -0.90462,-0.77491 -2.58386,-2.18419 -3.37885,-3.00118 -1.100344,-1.13078 -1.515163,-1.73979 -2.331155,-3.01032 -1.509208,-2.34986 2.539495,0.83386 4.943635,1.93369 1.567786,-1.89086 3.111196,-3.80875 4.703336,-5.67263 0.0387,-0.0451 -0.0153,0.12657 -0.02,0.19014 -0.0103,0.13575 -0.0201,0.27151 -0.0247,0.40772 -0.0353,1.04379 -0.0308,2.09032 -0.0629,3.13431 -0.0713,4.10006 -0.13389,8.20367 -0.002,12.30796 0.11063,1.79609 0.27776,3.57157 0.44182,5.36223 0.062,0.67855 0.64519,1.64615 0.16662,2.03739 -8.7707,7.17 -7.122666,7.95126 -10.779535,3.0912 -0.08796,-0.18938 -0.05846,-0.20275 -0.102166,-0.27408 -0.245147,-0.39978 -0.537265,-0.76001 -0.77746,-1.16404 -0.248465,-0.3552 -0.291338,-0.38481 0.208711,0.12544 0.07462,0.076 -0.154851,-0.1446 -0.231125,-0.21862 -0.493039,-0.47803 -0.973061,-0.9742 -1.392579,-1.53956 -1.399572,-1.83327 -2.849695,-3.6169 -4.2261,-5.47389 -1.56539,-2.12981 -3.13218,-4.26347 -4.440543,-6.61675 -1.113261,-2.00233 -1.924676,-4.20608 -2.975901,-6.24817 -0.890978,-1.72856 -1.777465,-3.4605 -2.697305,-5.1697 -0.293491,-0.54534 -0.592122,-1.08711 -0.890011,-1.62936 -0.187193,-0.34074 -0.869754,-0.8343 -0.565235,-1.01967 0.35536,-0.21631 0.704279,0.48043 1.056422,0.72067 2.549607,-1.21023 5.378146,-1.84596 7.648829,-3.63076 0.593137,-0.46623 0.05545,-1.66466 0.138188,-2.49005 0.01983,-0.19734 0.02387,0.39852 0.05169,0.59576 0.278435,1.97392 0.722698,3.91755 1.016255,5.88858 1.130243,6.91384 2.092336,13.89916 1.874857,20.92765 -0.02707,3.50269 -0.0066,3.3421 -0.102251,6.68483 -0.05874,2.05223 -0.07725,4.15379 -0.397009,6.17602 -0.06936,0.4386 -0.178901,0.86662 -0.268342,1.29994 -0.639103,1.77866 -1.046657,3.5586 -2.934023,4.40889 -2.533413,1.1413 -4.514637,0.9856 -6.512655,-0.60009 -0.27524,-0.21845 -0.525735,-0.47573 -0.788588,-0.71361 -0.469526,-0.52887 -0.715017,-0.7694 -1.112208,-1.34009 -0.958782,-1.37761 -1.71055,-2.90293 -2.394029,-4.47452 -0.237789,-0.60012 -0.491437,-1.19263 -0.713384,-1.80035 -1.573048,-4.30742 -2.559196,-8.84862 -3.711446,-13.30609 -0.619396,-2.54442 -0.780804,-3.26067 -1.429386,-5.72819 -0.174883,-0.66533 -0.359137,-1.32761 -0.540876,-1.9907 -0.08742,-0.31894 -0.158272,-0.64453 -0.266606,-0.95537 -0.157591,-0.45223 -0.351764,-0.77748 -0.570922,-1.17978 -4.566227,-7.67873 4.767482,-14.85396 9.333709,-7.1752 z" />
    <path
       style="fill:url(#linearGradient2257);fill-opacity:1;stroke-width:10;stroke-opacity:0"
       id="path2186"
       d="m 102.70055,386.1882 c -3.45543,3.35388 -5.56766,7.85709 -7.66329,12.12846 -0.60209,1.4027 -1.35335,2.78212 -1.67282,4.2909 -0.0732,0.34555 -0.28242,0.73492 -0.12681,1.05201 0.4839,0.98606 1.00254,2.09819 1.94751,2.65811 0.69498,0.4118 1.61499,-0.0458 2.42248,-0.0688 0.54792,-0.16841 1.10386,-0.31268 1.64377,-0.50523 0.32203,-0.11483 3.60348,-1.45393 3.84496,-1.55149 2.30155,-0.92986 4.60962,-1.83758 6.93053,-2.71789 1.61192,-0.61348 3.23607,-1.19321 4.85165,-1.79676 0.31647,-0.11823 0.63172,-0.2398 0.94953,-0.35438 0.20505,-0.0739 0.42752,-0.10672 0.61889,-0.21106 0.1679,-0.0915 -0.36485,0.11468 -0.54728,0.17202 -0.23914,-0.0474 -0.47828,-0.0948 -0.71742,-0.14215 -0.21186,-0.15158 -0.38032,-0.40267 -0.63556,-0.45474 -0.10438,-0.0213 -0.0357,0.2108 -0.0382,0.3173 -0.008,0.34303 0.0196,0.68646 0.007,1.02934 -0.035,0.93583 -0.16058,2.01407 -0.25438,2.93915 -0.10956,1.25969 -0.32666,2.50505 -0.53418,3.75093 -0.0393,0.23625 -0.21189,1.21994 -0.21565,1.51142 -0.004,0.3235 0.039,0.64587 0.0586,0.96881 1.2184,0.61792 2.28999,1.80384 3.65521,1.85374 0.7654,0.028 1.13228,-1.04541 1.58646,-1.66212 0.33712,-0.45775 0.50809,-1.01714 0.76149,-1.52604 0.83469,-1.67625 1.66998,-3.351 2.48496,-5.03698 0.46035,-0.92947 1.11279,-2.27864 1.62847,-3.20616 0.19382,-0.34863 0.38289,-0.70253 0.61829,-1.02455 0.0775,-0.10606 0.40896,-0.32989 0.30927,-0.24432 -1.13903,0.9777 -0.48747,0.63371 -2.41182,0.54375 0.0549,0.18354 0.10044,0.37016 0.16472,0.55064 0.6625,1.85988 0.2644,0.49735 0.87733,2.4643 0.2948,0.94605 0.54157,1.90733 0.82226,2.85768 0.80442,0.60231 1.40887,1.77452 2.41327,1.80694 1.75177,0.0566 3.08964,-2.05649 4.03243,-3.18589 0.62891,-0.75339 1.25492,-1.50976 1.90951,-2.24095 1.6243,-1.81437 2.69831,-2.85397 4.40187,-4.57078 1.0415,-0.99565 2.36486,-2.29326 3.48219,-3.25102 0.38642,-0.33124 0.75752,-0.69097 1.19645,-0.94861 0.11529,-0.0677 0.47724,-0.0988 0.40091,0.011 -0.77858,0.42145 -0.5346,0.13758 -0.8596,0.72254 1.42087,3.88918 1.84935,8.04815 2.24173,12.14413 0.15273,1.9064 0.0721,0.82864 0.18098,2.4103 0.14118,2.05164 -0.0213,1.86016 4.98239,0.97927 0.46816,-0.0824 0.24083,-0.92058 0.39457,-1.37039 0.18247,-0.53385 0.40869,-1.05172 0.61303,-1.57759 1.3998,-3.48052 2.70994,-7.01846 4.47655,-10.3353 -0.37791,1.07469 0.008,0.299 -2.3011,0.92254 -0.13758,0.0371 -0.40303,-0.005 -0.40493,0.13714 -0.007,0.52325 0.27411,1.01063 0.38278,1.52252 0.47854,2.25424 0.47305,2.61291 0.77179,4.95699 0.0783,0.82147 0.16417,1.64226 0.23497,2.46441 0.13097,1.52084 0.15887,2.16097 0.24995,3.60299 0.0178,0.28228 -0.20718,0.74223 0.0557,0.8467 5.08667,2.02178 4.23924,2.14955 5.5754,-1.00583 0.37301,-0.81562 0.71114,-1.64811 1.11901,-2.44686 1.05161,-2.05944 2.53304,-4.51183 3.72453,-6.47722 1.51356,-2.49663 3.08246,-4.9486 4.70852,-7.37268 0.30413,-0.38363 0.60826,-0.76725 0.91238,-1.15087 0.0138,0.0774 0.1165,0.2091 0.0414,0.23224 -0.6347,0.19544 -1.37351,0.0466 -1.95981,0.3585 -0.195,0.10374 -9e-5,0.44461 0.0431,0.66122 1.36265,6.83434 -0.56494,-4.11832 0.80803,3.91611 0.25842,1.94524 0.35271,3.91035 0.32497,5.87172 -0.006,0.44517 -0.028,0.8901 -0.0545,1.33453 -0.0579,0.97091 0.009,1.15653 -0.097,0.8183 1.65224,0.20488 3.29188,0.62862 4.95672,0.61464 0.24453,-0.002 0.19882,-0.44797 0.32242,-0.65898 0.23559,-0.40222 0.49501,-0.79014 0.75354,-1.17801 1.04209,-1.5634 2.15608,-3.06372 3.30821,-4.54667 0.29269,-0.35188 0.58539,-0.70376 0.87808,-1.05563 0.0663,0.0406 0.25157,0.0644 0.19902,0.12175 -0.24512,0.2674 -0.96768,0.43737 -0.94337,0.74471 0.0305,0.38587 0.23596,0.73749 0.34012,1.11029 0.19185,0.68669 0.36515,1.37844 0.54773,2.06766 0.50297,2.47274 0.82831,4.98121 0.97608,7.50018 0.007,0.11945 0.16281,2.76764 -0.0609,3.0883 1.64056,0.0565 3.2817,0.24085 4.9217,0.16964 0.17523,-0.008 0.25455,-0.24734 0.34387,-0.39829 0.37077,-0.62655 0.66428,-1.29653 1.03115,-1.92537 1.32122,-2.26473 2.83593,-4.40254 4.36633,-6.52756 0.31967,-0.4161 1.59528,-2.13904 2.10277,-2.59777 0.13623,-0.12314 0.33001,-0.28295 0.50367,-0.22322 0.11943,0.0411 -0.0806,0.25142 -0.17381,0.33669 -0.13441,0.12299 -0.44864,0.082 -0.47995,0.26153 -0.0433,0.248 0.20974,0.45773 0.3146,0.6866 1.24126,2.85137 1.96254,5.96312 1.96028,9.07925 0.0137,-0.18795 -0.14354,-0.52641 0.0412,-0.56386 1.50831,-0.30583 3.0921,-0.0773 4.60153,-0.37751 0.18199,-0.0362 0.0365,-0.36984 0.0719,-0.55197 0.0939,-0.48252 0.16241,-0.97345 0.31565,-1.44052 0.4986,-1.51959 1.36584,-3.20109 2.04419,-4.62213 0.73125,-1.37279 1.51416,-2.91778 2.35914,-4.2378 0.29798,-0.46549 0.58828,-0.94433 0.96681,-1.34707 0.13254,-0.141 0.60575,-0.4196 0.52739,-0.24266 -0.78701,0.70755 -0.58018,0.33745 -0.8331,0.96114 0.58474,0.8385 1.05907,1.74163 1.46151,2.6796 0.11155,0.26 0.19429,0.5322 0.31409,0.7885 0.10879,0.23275 0.11404,0.69249 0.37042,0.6759 1.58745,-0.10276 3.11064,-0.66793 4.66597,-1.0019 0.38743,-1.1625 0.12381,-2.47256 0.52328,-3.62723 0.008,-0.0236 0.0529,0.0577 0.0304,0.0684 -1.01424,0.48173 -2.04939,0.91817 -3.07409,1.37726 -0.29502,-0.16072 -0.59222,-0.64682 -0.88506,-0.48215 -0.25738,0.14473 0.14902,0.57158 0.21362,0.85972 0.0888,0.39609 0.17357,0.79324 0.24649,1.19257 0.23147,1.26764 0.36415,2.55075 0.52129,3.8289 0.0385,1.08594 0.41564,2.21666 0.23215,3.31046 -0.0125,0.0744 -0.0682,0.13481 -0.0973,0.20444 -0.0498,0.11916 -0.0929,0.24104 -0.13929,0.36156 -0.0406,0.19105 -0.42738,0.41279 -0.27891,0.2713 -3.03457,1.81422 -0.46888,6.10575 2.56569,4.29153 v 0 c 1.11054,-0.71563 1.96859,-1.66478 2.43713,-2.92432 0.27715,-0.83835 0.39808,-1.08242 0.50953,-2.02701 0.16108,-1.36524 -0.15579,-2.74473 -0.26637,-4.09812 -0.23654,-1.92374 -0.43361,-3.8633 -0.91203,-5.74671 -0.12913,-0.50832 -0.18556,-1.05282 -0.44307,-1.50972 -0.42218,-0.74908 -1.04266,-1.3676 -1.56399,-2.0514 -1.2117,0.37053 -2.50765,0.53336 -3.63511,1.1116 -0.29644,0.15204 -0.26234,0.61434 -0.35441,0.93451 -0.29883,1.03917 -0.28817,2.1426 -0.41607,3.20772 1.46765,-0.0439 2.935,-0.0992 4.40294,-0.13169 0.0127,-2.8e-4 -0.0109,0.0461 -0.016,0.0345 -0.14898,-0.34089 -0.26931,-0.69391 -0.42069,-1.03374 -0.73534,-1.65073 -1.61265,-3.19956 -2.90079,-4.49436 -0.76257,-0.45306 -1.41752,-1.18725 -2.2877,-1.35917 -0.97446,-0.19254 -2.02991,-0.0202 -2.96245,0.32184 -0.65998,0.24208 -1.13916,0.83893 -1.61439,1.35693 -0.47244,0.51497 -0.8293,1.12639 -1.20467,1.71587 -0.92656,1.4551 -1.75713,3.10403 -2.56076,4.61973 -1.2641,2.6851 -2.68154,5.35785 -2.83793,8.39073 -0.0326,0.63201 -0.40868,1.62083 0.16337,1.89151 1.47837,0.69954 3.25821,0.69547 4.88148,0.49562 0.38061,-0.0469 0.15793,-0.75053 0.23689,-1.12579 -0.051,-3.27073 -0.60672,-6.70238 -1.84577,-9.7428 -0.32466,-0.79668 -0.75631,-1.54545 -1.13446,-2.31817 -1.39534,-1.6053 -1.79089,-2.65035 -4.17294,-2.90859 -2.84005,-0.30789 -4.67747,2.67332 -6.1331,4.55164 -1.66439,2.31622 -3.33362,4.64607 -4.73957,7.13302 -0.4689,0.82943 -0.94999,1.65917 -1.30277,2.54425 -0.29659,0.74412 -1.28958,1.85585 -0.63509,2.31771 1.36158,0.96085 3.29773,0.48322 4.94659,0.72483 0.0649,-0.35201 0.16184,-0.6996 0.19483,-1.05603 0.0891,-0.9629 0.0304,-2.66584 -0.0239,-3.55749 -0.17256,-2.83838 -0.54709,-5.66467 -1.1457,-8.44519 -0.51816,-1.77147 -0.93561,-3.89982 -2.18131,-5.37681 -1.36628,-1.61996 -2.78397,-2.16173 -4.86745,-1.63856 -1.28993,0.32391 -1.97281,1.39112 -2.7372,2.3136 -1.26433,1.63194 -2.53149,3.27482 -3.63514,5.02246 -0.39658,0.628 -0.80277,1.25428 -1.12397,1.92398 -0.25834,0.53866 -1.08711,1.32997 -0.60748,1.68612 1.34638,0.99977 3.21327,0.96125 4.81991,1.44187 0.23786,-1.13712 0.29388,-2.26812 0.3077,-3.43185 0.0266,-2.23852 -0.0921,-4.48043 -0.40027,-6.6987 -0.27832,-1.54841 -0.57332,-3.68892 -1.19742,-5.15605 -0.36053,-0.84753 -0.6154,-1.87682 -1.37615,-2.39602 -2.35149,-1.60485 -3.53411,-1.38035 -5.21654,0.16193 -0.45282,0.41511 -0.75496,0.96927 -1.13244,1.45391 -1.67381,2.49767 -3.29178,5.02258 -4.84932,7.59514 -1.34101,2.21491 -2.81281,4.6553 -3.98219,6.96924 -0.45505,0.90044 -0.8319,1.83831 -1.24785,2.75747 -0.57387,2.18375 -0.72482,1.59335 4.09407,2.43701 0.27226,0.0477 -0.037,-0.55156 -0.0544,-0.82741 -0.13521,-2.13593 -0.27153,-4.27237 -0.5166,-6.39939 -0.26998,-2.06337 -0.42066,-3.6893 -0.92881,-5.71014 -0.21378,-0.85017 -0.38208,-1.73202 -0.78766,-2.5092 -0.42232,-0.80923 -0.82535,-1.80669 -1.65888,-2.17878 -1.00276,-0.44763 -2.23151,-0.30886 -3.29425,-0.0323 -0.53513,0.13927 -0.77028,0.79355 -1.15543,1.19032 -1.85074,3.50539 -3.27051,7.21745 -4.73113,10.89671 -0.25334,0.67529 -0.52752,1.34312 -0.76002,2.02586 -0.094,0.27617 -0.48649,0.73232 -0.21846,0.84752 4.95918,2.13152 4.78879,2.55789 4.64922,0.53579 -0.11396,-1.65134 -0.0329,-0.56895 -0.19235,-2.54895 -0.22397,-2.32162 -0.46367,-4.64074 -0.86731,-6.93992 -0.29418,-1.67567 -0.71074,-3.79282 -1.3065,-5.40282 -0.30516,-0.82459 -0.73433,-1.59781 -1.10147,-2.39671 -0.68337,-0.6667 -1.19674,-1.57206 -2.05012,-2.00011 -1.70472,-0.85507 -3.09256,-0.43023 -4.55387,0.43261 -0.52871,0.31218 -0.97079,0.75287 -1.43653,1.15297 -1.18409,1.01718 -2.56657,2.37444 -3.67343,3.43393 -2.33806,2.35952 -4.5166,4.632 -6.64734,7.18652 -0.44082,0.5285 -1.48699,0.94302 -1.29874,1.60498 0.35012,1.23115 4.51926,-3.02046 3.53411,1.50158 -0.8107,-2.73659 -1.43845,-5.58301 -3.09817,-7.96455 -0.96069,-0.4381 -1.83103,-1.2134 -2.88206,-1.31431 -0.69381,-0.0666 -1.33282,0.46142 -1.90847,0.8544 -0.40198,0.27442 -0.67283,0.70757 -0.95767,1.10224 -1.02174,1.41565 -1.61478,3.10977 -2.45874,4.62357 -0.81137,1.67963 -1.65804,3.34076 -2.4754,5.01732 -0.17137,0.35152 -0.61183,0.68484 -0.50226,1.06025 0.0731,0.25058 0.48405,-0.19558 0.72608,-0.29338 1.07086,0.6793 2.14172,1.3586 3.21258,2.0379 -0.0124,0.10515 -0.0448,0.42108 -0.0372,0.31547 0.0319,-0.44175 0.10148,-0.78249 0.17752,-1.23995 0.22545,-1.35631 0.457,-2.71268 0.57882,-4.08353 0.26042,-2.62797 0.95605,-6.68601 -1.43065,-8.58608 -0.40095,-0.3192 -0.9498,-0.38534 -1.4247,-0.57801 -0.51809,0.0249 -1.04088,7.4e-4 -1.55427,0.0747 -0.13647,0.0197 -1.69856,0.61204 -1.69922,0.61229 -1.62297,0.60649 -3.25482,1.18831 -4.87396,1.80517 -2.35732,0.89462 -4.70188,1.81627 -7.0397,2.76077 -1.15686,0.46739 -2.29665,0.97817 -3.46547,1.41481 -0.38185,0.14265 -0.775,0.25297 -1.16251,0.37945 1.20059,0.81869 0.42907,0.17462 1.63902,2.6662 0.0113,0.0232 -0.0507,-0.0366 -0.0461,-0.062 0.0427,-0.23801 0.10455,-0.47324 0.18317,-0.70191 0.31108,-0.90482 0.77938,-1.88062 1.16519,-2.7392 0.86055,-1.75682 1.13172,-2.3485 2.09109,-4.13505 1.06289,-1.9793 2.16155,-3.98046 3.64266,-5.68711 0.29666,-0.34184 0.64136,-0.63884 0.96204,-0.95825 2.50952,-2.49045 -1.01251,-6.03944 -3.52202,-3.54899 z" />
  </g>
</svg>
