<?xml version="1.0" encoding="UTF-8" standalone="no"?>
<!-- Created with Inkscape (http://www.inkscape.org/) -->

<svg
   width="1920"
   height="1080"
   viewBox="0 0 1920 1080"
   version="1.1"
   id="svg5"
   inkscape:version="1.1.1 (3bf5ae0d25, 2021-09-20)"
   sodipodi:docname="left_panel.svg"
   xmlns:inkscape="http://www.inkscape.org/namespaces/inkscape"
   xmlns:sodipodi="http://sodipodi.sourceforge.net/DTD/sodipodi-0.dtd"
   xmlns="http://www.w3.org/2000/svg"
   xmlns:svg="http://www.w3.org/2000/svg">
  <sodipodi:namedview
     id="namedview7"
     pagecolor="#505050"
     bordercolor="#ffffff"
     borderopacity="1"
     inkscape:pageshadow="0"
     inkscape:pageopacity="0"
     inkscape:pagecheckerboard="1"
     inkscape:document-units="px"
     showgrid="false"
     inkscape:zoom="2.8284271"
     inkscape:cx="414.1878"
     inkscape:cy="385.90353"
     inkscape:window-width="1920"
     inkscape:window-height="1017"
     inkscape:window-x="0"
     inkscape:window-y="0"
     inkscape:window-maximized="1"
     inkscape:current-layer="layer1" />
  <defs
     id="defs2" />
  <g
     inkscape:label="Réteg 1"
     inkscape:groupmode="layer"
     id="layer1">
    <rect
       style="fill:#000000;stroke-width:2.99259;stroke-linecap:round;stroke-linejoin:round;fill-opacity:0.02264952"
       id="rect962"
       width="40"
       height="40"
       x="432.4707"
       y="460.6543"
       ry="0.588772"
       inkscape:export-filename="/home/taklert/Dokumentumok/OWT/HTML-CSS/public-HTML-CSS/felix-foto-projekt/felix-foto-3/svg/contactbutton.png"
       inkscape:export-xdpi="96"
       inkscape:export-ydpi="96" />
    <rect
       style="fill:#000000;stroke-width:2.99259;stroke-linecap:round;stroke-linejoin:round;fill-opacity:0.02264952"
       id="rect960"
       width="40"
       height="40"
       x="432.4707"
       y="420.6543"
       ry="0.588772"
       inkscape:export-filename="/home/taklert/Dokumentumok/OWT/HTML-CSS/public-HTML-CSS/felix-foto-projekt/felix-foto-3/svg/pricesbutton.png"
       inkscape:export-xdpi="96"
       inkscape:export-ydpi="96" />
    <path
       id="path22085"
       style="fill:#242424;stroke:#242424;stroke-width:1.80377;stroke-linecap:round;stroke-linejoin:round"
       inkscape:transform-center-y="2.264815"
       d="m 452.47153,466.55619 c -4.33605,-1.8e-4 -9.09915,3.51414 -9.09894,7.84922 0.20938,6.49401 5.78988,13.91503 9.02495,20.34711 3.37464,-6.3904 8.95607,-13.64031 9.17128,-20.34711 2.2e-4,-4.33508 -4.76122,-7.8494 -9.09729,-7.84922 z m 0,3.69694 a 4.8882105,4.8870984 0 0 1 4.88817,4.88706 4.8882105,4.8870984 0 0 1 -4.88817,4.88705 4.8882105,4.8870984 0 0 1 -4.88817,-4.88705 4.8882105,4.8870984 0 0 1 4.88817,-4.88706 z"
       inkscape:transform-center-x="1.508035e-06"
       inkscape:export-filename="/home/taklert/Dokumentumok/OWT/HTML-CSS/public-HTML-CSS/felix-foto-projekt/felix-foto-3/svg/contactbutton.png"
       inkscape:export-xdpi="96"
       inkscape:export-ydpi="96" />
    <rect
       style="fill:#000000;stroke-width:2.99259;stroke-linecap:round;stroke-linejoin:round;fill-opacity:0.02264952"
       id="rect945"
       width="40"
       height="40"
       x="432.4707"
       y="380.6543"
       ry="0.588772"
       inkscape:export-filename="/home/taklert/Dokumentumok/OWT/HTML-CSS/public-HTML-CSS/felix-foto-projekt/felix-foto-3/svg/servicesbutton.png"
       inkscape:export-xdpi="96"
       inkscape:export-ydpi="96" />
    <path
       d="m 459.9333,386.6543 c 0.85939,0 1.65005,0.46747 2.06069,1.21846 l 2.18828,4.00121 c 0.85024,1.55516 -0.28127,3.44867 -2.06067,3.44867 h -4.61035 c -1.29558,0 -2.34581,1.04533 -2.34581,2.33333 v 14.66498 c 0,1.28918 -1.05034,2.33335 -2.34581,2.33335 h -1.4707 c -1.2956,0 -2.34582,-1.04417 -2.34582,-2.33335 v -14.66498 c 0,-1.288 -1.05022,-2.33333 -2.34581,-2.33333 h -3.84079 c -1.29556,0 -2.34581,-1.04417 -2.34581,-2.33335 v -4.00166 c 0,-1.2887 1.05025,-2.33333 2.34581,-2.33333 z"
       fill="#242424"
       id="path834"
       sodipodi:nodetypes="sccssssssssssssss"
       style="stroke-width:1.16979"
       inkscape:export-filename="/home/taklert/Dokumentumok/OWT/HTML-CSS/public-HTML-CSS/felix-foto-projekt/felix-foto-3/svg/servicesbutton.png"
       inkscape:export-xdpi="96"
       inkscape:export-ydpi="96" />
    <text
       xml:space="preserve"
       style="font-style:normal;font-variant:normal;font-weight:800;font-stretch:normal;font-size:30.8392px;line-height:1.25;font-family:Cantarell;-inkscape-font-specification:'Cantarell, Ultra-Bold';font-variant-ligatures:normal;font-variant-caps:normal;font-variant-numeric:normal;font-variant-east-asian:normal;fill:#242424;fill-opacity:1;stroke:none;stroke-width:1.28496"
       x="425.94882"
       y="468.91998"
       id="text29089"
       inkscape:export-filename="/home/taklert/Dokumentumok/OWT/HTML-CSS/public-HTML-CSS/felix-foto-projekt/felix-foto-3/svg/pricesbutton.png"
       inkscape:export-xdpi="96"
       inkscape:export-ydpi="96"
       transform="scale(1.03972,0.9617974)"><tspan
         sodipodi:role="line"
         id="tspan29087"
         x="425.94882"
         y="468.91998"
         style="fill:#242424;fill-opacity:1;stroke-width:1.28496">$</tspan></text>
    <rect
       style="fill:#000000;stroke-width:2.99259;stroke-linecap:round;stroke-linejoin:round;fill-opacity:0.02264952"
       id="rect849"
       width="40"
       height="40"
       x="432.4707"
       y="300.6543"
       ry="0.588772"
       inkscape:export-filename="/home/taklert/Dokumentumok/OWT/HTML-CSS/public-HTML-CSS/felix-foto-projekt/felix-foto-3/svg/homebutton.png"
       inkscape:export-xdpi="96"
       inkscape:export-ydpi="96" />
    <path
       d="m 451.30265,309.98276 c 0.71702,-0.43794 1.61908,-0.43794 2.3361,-2e-5 l 11.75999,7.18225 c 0.66583,0.40664 1.07196,1.13024 1.07196,1.91004 v 10.34078 c 0,1.23632 -1.00285,2.23849 -2.24002,2.23849 H 452.4707 440.71072 c -1.23714,0 -2.24002,-1.00217 -2.24002,-2.23849 l 3e-5,-10.34078 c 0,-0.7798 0.40609,-1.5034 1.07189,-1.91004 z"
       fill="#242424"
       id="path828"
       style="stroke-width:1.11961"
       inkscape:export-filename="/home/taklert/Dokumentumok/OWT/HTML-CSS/public-HTML-CSS/felix-foto-projekt/felix-foto-3/svg/homebutton.png"
       inkscape:export-xdpi="96"
       inkscape:export-ydpi="96" />
    <rect
       style="fill:#000000;stroke-width:2.99259;stroke-linecap:round;stroke-linejoin:round;fill-opacity:0.02264952"
       id="rect931"
       width="40"
       height="40"
       x="432.4707"
       y="340.6543"
       ry="0.588772"
       inkscape:export-filename="/home/taklert/Dokumentumok/OWT/HTML-CSS/public-HTML-CSS/felix-foto-projekt/felix-foto-3/svg/gallerybutton.png"
       inkscape:export-xdpi="96"
       inkscape:export-ydpi="96" />
    <path
       id="circle830"
       d="m 454.08514,348.1543 a 4.4935385,4.3749978 0 0 0 -4.49479,4.3742 4.4935385,4.3749978 0 0 0 4.49479,4.37621 4.4935385,4.3749978 0 0 0 4.4927,-4.37621 4.4935385,4.3749978 0 0 0 -4.4927,-4.3742 z m -7.32207,11.23047 c -0.69986,0.005 -1.39227,0.34152 -1.80125,0.97859 l -6.16233,9.60288 c -0.89074,1.3876 0.13314,3.18806 1.8138,3.18806 h 23.71313 c 1.8064,0 2.80061,-2.04597 1.65498,-3.40576 l -4.74973,-5.63761 c -0.96173,-1.14146 -2.80594,-0.97182 -3.53356,0.32347 l -0.3239,0.57781 c -0.68291,1.21585 -2.37184,1.45525 -3.38311,0.48014 l -5.70886,-5.50536 c -0.42643,-0.41126 -0.97482,-0.60642 -1.51917,-0.60222 z"
       style="fill:#242424;fill-opacity:1;stroke-width:1.05568"
       inkscape:export-filename="/home/taklert/Dokumentumok/OWT/HTML-CSS/public-HTML-CSS/felix-foto-projekt/felix-foto-3/svg/gallerybutton.png"
       inkscape:export-xdpi="96"
       inkscape:export-ydpi="96" />
  </g>
</svg>
